<svg xmlns="http://www.w3.org/2000/svg" xmlns:xlink="http://www.w3.org/1999/xlink" viewBox="0 0 91.91 159.69"><defs><style>.cls-1,.cls-10{fill:none;}.cls-2{isolation:isolate;}.cls-13,.cls-3{fill:#999;}.cls-3{fill-opacity:0.39;}.cls-11,.cls-3{mix-blend-mode:multiply;}.cls-4{fill:url(#linear-gradient);}.cls-5{fill:#5590cc;}.cls-6{fill:#6dc497;}.cls-7{fill:#ef3c23;}.cls-8,.cls-9{fill:#f9ef6b;}.cls-10,.cls-9{font-size:28.76px;font-family:BlairMdITCTTMedium, BlairMdITCTTMedium;}.cls-10{stroke:#ef3c23;stroke-miterlimit:10;}.cls-12{clip-path:url(#clip-path);}.cls-13{opacity:0.4;}</style><linearGradient id="linear-gradient" x1="3523.55" y1="-1370.33" x2="3629.73" y2="-1370.33" gradientTransform="matrix(-0.27, 0.96, 0.96, 0.27, 2362.8, -2987.97)" gradientUnits="userSpaceOnUse"><stop offset="0" stop-color="#8b221b"/><stop offset="0.18" stop-color="#90221b"/><stop offset="0.39" stop-color="#9f211d"/><stop offset="0.63" stop-color="#b91f1f"/><stop offset="0.89" stop-color="#db1d22"/><stop offset="1" stop-color="#ed1c24"/></linearGradient><clipPath id="clip-path"><path class="cls-1" d="M89.54,128.85l-8.85.13-.09,19.66-6.45.1.09-19.67-13.53.19-.2,19.49-6.33-.13.2-19.26-8.39.12L49.9,79.8H45.36V29.93H50v49l3.91-49.74,29.89.65ZM68.85,23.67A11.17,11.17,0,1,0,57.93,12.26,11.14,11.14,0,0,0,68.85,23.67Zm18.2,6.89V80.42h4.61V30.55Z"/></clipPath></defs><title>Asset 16</title><g class="cls-2"><g id="Layer_2" data-name="Layer 2"><g id="Layer_1-2" data-name="Layer 1"><polygon class="cls-3" points="26.14 112.68 0 112.68 54.79 148.02 81.39 148.02 26.14 112.68"/><polygon class="cls-4" points="54.13 28.88 46.25 129.19 89.79 128.57 84.02 29.53 54.13 28.88"/><polygon class="cls-5" points="53 79.21 82.91 79.89 84.02 29.53 54.13 28.88 53 79.21"/><path class="cls-6" d="M58.18,12A11.17,11.17,0,1,1,69.1,23.39,11.16,11.16,0,0,1,58.18,12Z"/><polygon class="cls-5" points="87.3 80.14 91.91 80.15 91.91 30.28 87.3 30.28 87.3 80.14"/><rect class="cls-5" x="45.62" y="29.65" width="4.6" height="49.87"/><polygon class="cls-5" points="74.4 148.45 80.85 148.36 81.11 91 74.68 91.09 74.4 148.45"/><polygon class="cls-5" points="54.43 148.34 60.77 148.47 61.35 91.08 55.03 90.96 54.43 148.34"/><polygon class="cls-7" points="82.96 77.21 52.64 76.65 52.76 82.3 65.09 89.47 69.84 89.68 82.74 82.89 82.96 77.21"/><rect class="cls-8" x="66.32" y="60.31" width="3.27" height="29.99" transform="translate(-8.87 141.53) rotate(-88.7)"/><text class="cls-9" transform="translate(63.2 59.9) scale(0.99 1)">1</text><text class="cls-10" transform="translate(63.2 59.9) scale(0.99 1)">1</text><g class="cls-11"><g class="cls-12"><rect class="cls-13" x="12.38" width="56.72" height="159.69"/></g></g></g></g></g></svg>