<svg xmlns="http://www.w3.org/2000/svg" xmlns:xlink="http://www.w3.org/1999/xlink" viewBox="0 0 88.16 148.3"><defs><style>.cls-1{fill:none;}.cls-2{isolation:isolate;}.cls-10,.cls-3{fill:#999;}.cls-3{fill-opacity:0.39;}.cls-3,.cls-9{mix-blend-mode:multiply;}.cls-4{fill:#73c8ef;}.cls-5{fill:#fff;}.cls-6{fill:#557faa;}.cls-7{fill:#9fc9eb;}.cls-8{clip-path:url(#clip-path);}.cls-9{opacity:0.4;}</style><clipPath id="clip-path" transform="translate(0 -2.08)"><rect class="cls-1" x="43.46" width="22.74" height="150.14"/></clipPath></defs><title>Asset 10</title><g class="cls-2"><g id="Layer_2" data-name="Layer 2"><g id="Layer_1-2" data-name="Layer 1"><polygon class="cls-3" points="19.82 112.77 0 112.77 54.78 148.1 75.05 148.1 19.82 112.77"/><rect class="cls-4" x="55.69" y="105.18" width="5.77" height="43.12"/><rect class="cls-4" x="51.81" y="65.39" width="28.39" height="12.06"/><rect class="cls-4" x="69.71" y="104.96" width="5.77" height="43.11"/><rect class="cls-5" x="50.93" y="28.51" width="29.87" height="42.52"/><path class="cls-4" d="M74.89,22.87C84.54,10,70.21-4.5,57.53,5.29,47.84,18.14,62.21,32.69,74.89,22.87Z" transform="translate(0 -2.08)"/><rect class="cls-4" x="43.46" y="31.16" width="3.98" height="45.51"/><rect class="cls-4" x="84.19" y="30.91" width="3.97" height="45.51"/><polygon class="cls-6" points="51.29 73.78 80.94 74.14 75.93 132.52 69.39 132.67 67.65 84.88 63.78 84.88 63.13 132.67 53.02 132.52 51.29 73.78"/><rect class="cls-7" x="52.28" y="129.21" width="11.9" height="3.62"/><rect class="cls-7" x="67.6" y="129.66" width="9.82" height="3.62"/><rect class="cls-4" x="50.69" y="28.51" width="3.41" height="9.54"/><rect class="cls-4" x="77.77" y="28.36" width="3.25" height="9.54"/><rect class="cls-4" x="57.02" y="28.51" width="17.83" height="9.54"/><g class="cls-8"><g class="cls-9"><ellipse class="cls-10" cx="66.2" cy="12.01" rx="11.85" ry="12.01"/><rect class="cls-10" x="43.46" y="31.15" width="3.98" height="45.51"/><rect class="cls-10" x="84.19" y="30.91" width="3.97" height="45.51"/><polygon class="cls-10" points="80.21 74.13 80.21 71.03 80.8 71.03 80.8 37.9 81.02 37.9 81.02 28.36 77.77 28.36 77.77 28.51 74.85 28.51 57.02 28.51 54.09 28.51 50.93 28.51 50.69 28.51 50.69 38.05 50.93 38.05 50.93 71.03 51.81 71.03 51.81 73.79 51.29 73.78 52.92 129.21 52.28 129.21 52.28 132.83 55.69 132.83 55.69 148.3 61.46 148.3 61.46 132.83 64.18 132.83 64.18 129.21 63.18 129.21 63.78 84.88 67.65 84.88 69.28 129.66 67.6 129.66 67.6 133.28 69.71 133.28 69.71 148.06 75.48 148.06 75.48 133.28 77.42 133.28 77.42 129.66 76.17 129.66 80.94 74.14 80.21 74.13"/></g></g></g></g></g></svg>