<svg xmlns="http://www.w3.org/2000/svg" xmlns:xlink="http://www.w3.org/1999/xlink" viewBox="0 0 91.76 147.96"><defs><style>.cls-1,.cls-10{fill:none;}.cls-2{isolation:isolate;}.cls-13,.cls-3{fill:#999;}.cls-3{fill-opacity:0.39;}.cls-12,.cls-3{mix-blend-mode:multiply;}.cls-4{fill:#73c8ef;}.cls-5{fill:#4d5d74;}.cls-6{fill:#5590cc;}.cls-7{fill:#8eacc6;}.cls-8{fill:#a0bfe4;}.cls-9{clip-path:url(#clip-path);}.cls-10{stroke:#4170b7;stroke-miterlimit:10;stroke-width:0.25px;}.cls-11{clip-path:url(#clip-path-2);}.cls-12{opacity:0.4;}</style><clipPath id="clip-path"><polygon class="cls-1" points="78.16 74.5 78.16 71.62 67.51 71.61 66.05 52.09 68 28.76 60.53 28.6 62.48 52.09 61.84 71.58 50.7 71.56 50.57 74.47 78.16 74.5"/></clipPath><clipPath id="clip-path-2"><rect class="cls-1" x="38" width="26.26" height="147.96"/></clipPath></defs><title>Asset 17</title><g class="cls-2"><g id="Layer_2" data-name="Layer 2"><g id="Layer_1-2" data-name="Layer 1"><polygon class="cls-3" points="19.36 111.71 0 111.71 56.19 147.96 76.01 147.96 19.36 111.71"/><rect class="cls-4" x="59.14" y="56.21" width="54.76" height="5.65" transform="matrix(0, -1, 1, 0, 27.28, 145.41)"/><rect class="cls-4" x="15.59" y="55.79" width="54.59" height="5.65" transform="translate(-15.83 101.36) rotate(-89.86)"/><rect class="cls-4" x="24.17" y="111.6" width="65.6" height="7" transform="translate(-58.26 171.8) rotate(-89.87)"/><rect class="cls-4" x="40.04" y="111.46" width="65.98" height="7" transform="translate(-42.08 187.77) rotate(-89.89)"/><ellipse class="cls-4" cx="64.26" cy="11.81" rx="11.8" ry="11.65" transform="translate(52.32 76.04) rotate(-89.88)"/><rect class="cls-5" x="43.26" y="34.3" width="42.84" height="31.75" transform="matrix(0, -1, 1, 0, 14.38, 114.75)"/><polygon class="cls-5" points="46.61 77.99 39.44 77.97 39.53 30.75 46.7 30.76 46.61 77.99"/><rect class="cls-5" x="63.04" y="51.53" width="47.24" height="6.93" transform="translate(31.52 141.56) rotate(-89.91)"/><polygon class="cls-6" points="52.04 77.66 77.29 78.06 76.73 141.36 69.17 142.56 65.95 88.47 62.66 88.46 61.28 141.67 52.96 142.02 52.04 77.66"/><rect class="cls-7" x="52.65" y="140.72" width="8.63" height="2.31"/><rect class="cls-7" x="68.72" y="140.72" width="8.63" height="2.31"/><polygon class="cls-8" points="78.16 74.85 78.16 71.62 67.51 71.61 66.05 52.09 68 28.76 60.53 28.6 62.48 52.09 61.84 71.58 50.7 71.56 50.57 74.82 78.16 74.85"/><g class="cls-9"><line class="cls-10" x1="43.4" y1="26.93" x2="85.33" y2="26.93"/><line class="cls-10" x1="43.4" y1="28.71" x2="85.33" y2="28.71"/><line class="cls-10" x1="43.4" y1="30.5" x2="85.33" y2="30.5"/><line class="cls-10" x1="43.4" y1="32.29" x2="85.33" y2="32.29"/><line class="cls-10" x1="43.4" y1="34.07" x2="85.33" y2="34.07"/><line class="cls-10" x1="43.4" y1="35.86" x2="85.33" y2="35.86"/><line class="cls-10" x1="43.4" y1="37.65" x2="85.33" y2="37.65"/><line class="cls-10" x1="43.4" y1="39.43" x2="85.33" y2="39.43"/><line class="cls-10" x1="43.4" y1="41.22" x2="85.33" y2="41.22"/><line class="cls-10" x1="43.4" y1="43.01" x2="85.33" y2="43.01"/><line class="cls-10" x1="43.4" y1="44.79" x2="85.33" y2="44.79"/><line class="cls-10" x1="43.4" y1="46.58" x2="85.33" y2="46.58"/><line class="cls-10" x1="43.4" y1="48.37" x2="85.33" y2="48.37"/><line class="cls-10" x1="43.4" y1="50.15" x2="85.33" y2="50.15"/><line class="cls-10" x1="43.4" y1="51.94" x2="85.33" y2="51.94"/><line class="cls-10" x1="43.4" y1="53.73" x2="85.33" y2="53.73"/><line class="cls-10" x1="43.4" y1="55.51" x2="85.33" y2="55.51"/><line class="cls-10" x1="43.4" y1="57.3" x2="85.33" y2="57.3"/><line class="cls-10" x1="43.4" y1="59.08" x2="85.33" y2="59.08"/><line class="cls-10" x1="43.4" y1="60.87" x2="85.33" y2="60.87"/><line class="cls-10" x1="43.4" y1="62.66" x2="85.33" y2="62.66"/><line class="cls-10" x1="43.4" y1="64.44" x2="85.33" y2="64.44"/><line class="cls-10" x1="43.4" y1="66.23" x2="85.33" y2="66.23"/><line class="cls-10" x1="43.4" y1="68.02" x2="85.33" y2="68.02"/><line class="cls-10" x1="43.4" y1="69.8" x2="85.33" y2="69.8"/><line class="cls-10" x1="43.4" y1="71.59" x2="85.33" y2="71.59"/><line class="cls-10" x1="43.4" y1="73.38" x2="85.33" y2="73.38"/><line class="cls-10" x1="43.4" y1="75.16" x2="85.33" y2="75.16"/><line class="cls-10" x1="43.4" y1="76.95" x2="85.33" y2="76.95"/><line class="cls-10" x1="43.4" y1="78.74" x2="85.33" y2="78.74"/></g><rect class="cls-8" x="39.44" y="77.97" width="6.35" height="1.08"/><rect class="cls-8" x="83.35" y="77.97" width="6.35" height="1.08"/><rect class="cls-5" x="55.21" y="27.38" width="5.35" height="2.67"/><g class="cls-11"><g class="cls-12"><ellipse class="cls-13" cx="64.26" cy="11.81" rx="11.8" ry="11.65" transform="matrix(0, -1, 1, 0, 52.32, 76.04)"/><polygon class="cls-13" points="91.76 31.38 84.83 31.38 84.73 78.61 84.94 78.61 84.94 79.05 85.24 79.05 85.22 86.41 90.88 86.42 90.89 79.05 91.29 79.05 91.29 78.62 91.66 78.62 91.76 31.38"/><polygon class="cls-13" points="77.26 78.06 52.02 77.66 52.91 140.72 52.63 140.72 52.63 143.03 53.38 143.03 53.37 147.89 60.37 147.91 60.38 143.03 61.25 143.03 61.25 141.67 62.63 88.46 65.92 88.47 69.04 140.72 68.69 140.72 68.69 143.03 69.44 143.03 69.43 147.94 76.43 147.96 76.44 143.03 77.32 143.03 77.32 140.72 76.71 140.72 77.26 78.06"/><path class="cls-13" d="M60.55,28.74V27.38H55.21v1.35H48.85l-.09,42.85H50.7l-.12,2.9,27.59,0V71.62h2.35l.09-42.84-12.6,0h0l-7.46-.16Zm7,42.88v0l10.64,0Z"/><polygon class="cls-13" points="45.78 77.99 46.61 77.99 46.7 30.76 39.53 30.75 39.44 77.97 39.44 79.05 40.02 79.05 40 85.91 45.65 85.91 45.67 79.05 45.78 79.05 45.78 77.99"/></g></g><rect class="cls-5" x="67.97" y="27.38" width="5.35" height="2.67"/></g></g></g></svg>