<svg xmlns="http://www.w3.org/2000/svg" xmlns:xlink="http://www.w3.org/1999/xlink" viewBox="0 0 98.63 161.7"><defs><style>.cls-1{fill:none;}.cls-2{isolation:isolate;}.cls-3{fill:#73c8ef;}.cls-14,.cls-4{fill:#9e9e9e;}.cls-4{fill-opacity:0.39;}.cls-13,.cls-4{mix-blend-mode:multiply;}.cls-5{fill:#518fcc;}.cls-6{fill:#d1d4d2;}.cls-7{fill:#666766;}.cls-10,.cls-8{fill:#fff;}.cls-8{stroke:#333;stroke-miterlimit:10;stroke-width:3.5px;}.cls-9{fill:#2b2e31;}.cls-11{fill:#2b2f31;}.cls-12{clip-path:url(#clip-path);}.cls-13{opacity:0.4;}</style><clipPath id="clip-path"><rect class="cls-1" x="0.42" width="48.82" height="161.7"/></clipPath></defs><title>Asset 30</title><g class="cls-2"><g id="Layer_2" data-name="Layer 2"><g id="Layer_1-2" data-name="Layer 1"><rect class="cls-3" x="67.66" y="31.02" width="5.37" height="50.49"/><polygon class="cls-4" points="17.48 134.56 0 134.56 42.07 161.69 59.89 161.69 17.48 134.56"/><polygon class="cls-3" points="25.75 28.32 29.44 32.55 6.09 52.97 2.39 48.73 25.75 28.32"/><rect class="cls-5" x="23.69" y="85.88" width="8.9" height="40.87" transform="translate(-0.47 0.13) rotate(-0.25)"/><rect class="cls-5" x="66.09" y="85.88" width="8.9" height="40.87" transform="translate(-0.47 0.31) rotate(-0.25)"/><path class="cls-3" d="M61,11.54A11.6,11.6,0,1,0,49.43,23.19,11.6,11.6,0,0,0,61,11.54Z"/><polygon class="cls-6" points="65.28 76.23 33.69 76.39 33.46 28.31 65.05 28.16 65.28 76.23"/><path class="cls-7" d="M58.73,55.65c0-2-3.21-3.57-7.16-3.57H46.67c-3.94,0-7.13,1.6-7.13,3.57V87.12c0,2,3.2,3.57,7.13,3.57h4.91c3.95,0,7.16-1.6,7.16-3.57Z"/><path class="cls-8" d="M43.28,54.66c-15.41,1.47-8.76-9.41-22.39-7.22"/><polygon class="cls-9" points="21.73 45.87 3.76 48.81 4.26 51.93 22.23 49 21.73 45.87"/><polygon class="cls-9" points="1.94 55.16 0.54 46.49 24.05 42.65 25.45 51.32 1.94 55.16"/><path class="cls-8" d="M56,54.66c15.41,1.47,8.76-9.41,22.39-7.22"/><path class="cls-9" d="M64.37,76.27c0-.91-2.32-1.65-5.19-1.65H39.07c-2.87,0-5.19.74-5.19,1.65v15.4c0,.91,2.32,1.64,5.19,1.64H59.18c2.87,0,5.19-.74,5.19-1.64Z"/><path class="cls-9" d="M59.18,155.83a5.93,5.93,0,0,1-6,5.86H45.07a5.93,5.93,0,0,1-6-5.86V102.77a5.92,5.92,0,0,1,6-5.86h8.12a5.93,5.93,0,0,1,6,5.86Z"/><path class="cls-10" d="M59.18,57.67a9.61,9.61,0,1,0-9.62,9.61A9.62,9.62,0,0,0,59.18,57.67Z"/><path class="cls-9" d="M49.56,69.87a12.21,12.21,0,1,1,12.22-12.2A12.22,12.22,0,0,1,49.56,69.87Zm0-19.23a7,7,0,1,0,7,7A7,7,0,0,0,49.56,50.64Z"/><polygon class="cls-9" points="77.45 45.87 95.42 48.81 94.92 51.93 76.94 49 77.45 45.87"/><polygon class="cls-9" points="97.24 55.16 73.73 51.32 75.12 42.65 98.63 46.49 97.24 55.16"/><path class="cls-3" d="M57,28.32a7.45,7.45,0,0,1-14.9,0Z"/><rect class="cls-3" x="24.83" y="126.75" width="6.91" height="9.42"/><rect class="cls-3" x="67.09" y="126.75" width="6.91" height="9.42"/><path class="cls-9" d="M61,11.6H37.77A11.6,11.6,0,1,1,61,11.6Z"/><rect class="cls-11" x="59.22" y="11.6" width="1.27" height="9.69"/><rect class="cls-11" x="38.26" y="11.6" width="1.27" height="13.7"/><rect class="cls-11" x="58.71" y="20.85" width="2.36" height="3.49"/><g class="cls-12"><g class="cls-13"><polygon class="cls-14" points="32.36 85.86 23.46 85.9 23.66 126.77 24.7 126.77 24.7 136.17 31.62 136.17 31.62 126.75 29.43 126.75 32.56 126.73 32.36 85.86"/><polygon class="cls-14" points="74.77 85.86 65.87 85.9 66.06 126.77 66.96 126.77 66.96 136.17 73.88 136.17 73.88 126.75 71.83 126.75 74.97 126.73 74.77 85.86"/><path class="cls-14" d="M40,4.64c-.12.16-.25.32-.36.49s-.25.41-.38.62-.14.22-.2.33-.27.54-.39.81l-.09.2c-.13.3-.24.62-.34.94l0,.13c-.1.31-.18.64-.25,1l0,.15c-.06.29-.1.59-.13.88,0,.09,0,.18,0,.27s0,.47,0,.7,0,.31,0,.47h0s0,0,0,0a11.59,11.59,0,0,0,.49,3.27V25.29h1.27V17.71a11.57,11.57,0,0,0,19.69,0v3.16h-.51v3.49h2.36V20.85h-.57v-6a11.6,11.6,0,0,0,.47-3.26h0v-.06c0-.18,0-.35,0-.52s0-.43,0-.64,0-.31-.07-.46-.06-.47-.11-.69-.07-.25-.1-.38-.12-.49-.19-.73-.08-.21-.12-.31S60,7.29,59.91,7l-.11-.23c-.12-.27-.24-.53-.38-.78l-.09-.14c-.16-.28-.32-.55-.5-.81l0-.07c-.2-.28-.4-.56-.63-.83h0A11.61,11.61,0,0,0,52.64.51h0C52.26.4,51.9.3,51.53.23l-.21,0C51,.14,50.71.09,50.39.06l-.46,0c-.23,0-.46,0-.69,0h0l-.46,0c-.24,0-.48,0-.72,0l-.23,0c-.31,0-.63.08-.93.15h0a11.55,11.55,0,0,0-5,2.43l0,0c-.27.23-.53.46-.77.71l-.18.19c-.19.2-.39.41-.57.63S40.07,4.51,40,4.64Z"/><path class="cls-14" d="M53.06,96.91H44.94a5.92,5.92,0,0,0-6,5.86v53.06a5.93,5.93,0,0,0,6,5.86h8.12a5.93,5.93,0,0,0,6-5.86V102.77A5.93,5.93,0,0,0,53.06,96.91Z"/><path class="cls-14" d="M93.07,45.6,73.31,28.32l-3.7,4.23,13,11.34L75,42.65l-.32,2c-4.55.1-6.69,2-8.71,4.38-.31.36-.62.71-.94,1l-.1-21.87-31.59.14.1,21.06L33.11,49c-2-2.36-4.21-4.32-8.87-4.38l-.32-2-7.58,1.24,13-11.34-3.7-4.23L5.85,45.6l-5.43.89,1.39,8.67,23.51-3.84-.26-1.59c2.13.22,3,1.22,4.2,2.6a14.37,14.37,0,0,0,4.2,3.57l.1,20.49h.19V91.67c0,.91,2.32,1.64,5.19,1.64H59.06c2.87,0,5.19-.74,5.19-1.64V76.27a0,0,0,0,0,0,0l.92,0-.1-20.06a13.69,13.69,0,0,0,4.75-3.84c1.16-1.34,2-2.32,4-2.58l-.25,1.57,23.51,3.84,1.39-8.67Z"/></g></g></g></g></g></svg>