<svg xmlns="http://www.w3.org/2000/svg" xmlns:xlink="http://www.w3.org/1999/xlink" viewBox="0 0 112.85 144.74"><defs><style>.cls-1{fill:none;}.cls-2{isolation:isolate;}.cls-3{fill:#9e9e9e;fill-opacity:0.39;}.cls-10,.cls-13,.cls-3,.cls-9{mix-blend-mode:multiply;}.cls-4{fill:#75c5a4;}.cls-5{fill:#ffd043;}.cls-6{fill:#2c2f31;}.cls-7{fill:#f47b3a;}.cls-8{clip-path:url(#clip-path);}.cls-10,.cls-16,.cls-9{fill:#999;}.cls-9{opacity:0.3;}.cls-10,.cls-15{opacity:0.4;}.cls-11{fill:#fff;}.cls-12{font-size:19.67px;fill:#231f20;font-family:BrandonText-Bold, Brandon Text;font-weight:700;}.cls-14{clip-path:url(#clip-path-2);}</style><clipPath id="clip-path" transform="translate(0 -0.14)"><rect class="cls-1" x="72.22" y="68.37" width="24.7" height="12.35" transform="translate(9.21 158.39) rotate(-89.44)"/></clipPath><clipPath id="clip-path-2" transform="translate(0 -0.14)"><rect class="cls-1" x="-21.5" y="59.7" width="144.42" height="25.25" transform="translate(-22.11 122.34) rotate(-89.44)"/></clipPath></defs><title>Asset 29</title><g class="cls-2"><g id="Layer_2" data-name="Layer 2"><g id="Layer_1-2" data-name="Layer 1"><polygon class="cls-3" points="22.64 110.53 0 110.31 52.02 144.52 75.09 144.74 22.64 110.53"/><polygon class="cls-4" points="38.5 30.38 44.09 30.43 43.55 83.72 37.97 83.67 38.5 30.38"/><rect class="cls-4" x="23.93" y="108.98" width="64.04" height="6.93" transform="translate(-57.03 167.15) rotate(-89.44)"/><rect class="cls-4" x="39.63" y="108.97" width="64.42" height="6.92" transform="translate(-41.29 183.03) rotate(-89.44)"/><circle class="cls-4" cx="63.93" cy="11.67" r="11.52" transform="translate(51.64 75.33) rotate(-89.44)"/><polygon class="cls-5" points="47.68 118 48.1 75.27 78.38 75.56 77.97 118.29 64.52 118.16 64.74 95.69 62.08 95.66 61.86 118.39 47.68 118"/><rect class="cls-6" x="54.69" y="96.23" width="42.64" height="1.53" transform="translate(-21.72 171.93) rotate(-89.44)"/><rect class="cls-5" x="35.23" y="41.25" width="56.39" height="30.29" transform="translate(6.42 119.13) rotate(-89.44)"/><circle class="cls-7" cx="90.75" cy="74.61" r="12.35" transform="translate(15.26 164.48) rotate(-89.44)"/><g class="cls-8"><circle class="cls-9" cx="90.75" cy="74.61" r="12.35" transform="translate(15.26 164.48) rotate(-89.44)"/></g><path class="cls-4" d="M71.16,28.34a7.46,7.46,0,0,1-14.92-.14Z" transform="translate(0 -0.14)"/><polygon class="cls-10" points="78.27 85.93 47.98 85.63 48.01 84.3 78.3 84.6 78.27 85.93"/><polygon class="cls-11" points="74.48 53.21 52.6 53.02 52.64 44.36 74.52 44.55 74.48 53.21"/><text class="cls-12" transform="translate(52.47 60.78) rotate(0.56)">23</text><g class="cls-13"><g class="cls-14"><g class="cls-15"><polygon class="cls-16" points="37.97 83.77 43.55 83.82 44.09 30.53 38.5 30.48 37.97 83.77"/><circle class="cls-16" cx="63.93" cy="11.77" r="11.52" transform="translate(51.54 75.44) rotate(-89.44)"/><polygon class="cls-16" points="48.55 28.02 48.09 75.37 48.01 84.41 47.98 86.77 47.68 118.1 52.43 118.23 52.17 144.39 59.1 144.46 59.35 118.42 61.86 118.49 62.08 95.76 64.73 95.79 64.52 118.26 68.32 118.3 68.06 144.57 74.98 144.63 75.24 118.37 77.97 118.39 78.3 84.7 78.38 75.66 78.84 28.31 48.55 28.02"/></g></g></g><rect class="cls-4" x="95.22" y="28.86" width="5.59" height="53.63" transform="translate(-14.63 51.27) rotate(-27.43)"/></g></g></g></svg>