<svg xmlns="http://www.w3.org/2000/svg" xmlns:xlink="http://www.w3.org/1999/xlink" viewBox="0 0 107.73 131.7"><defs><style>.cls-1{fill:none;}.cls-2{isolation:isolate;}.cls-3,.cls-5{fill:#999;}.cls-3{fill-opacity:0.39;}.cls-12,.cls-3{mix-blend-mode:multiply;}.cls-4{fill:#666766;}.cls-6{fill:#828383;}.cls-7{fill:#caeaee;}.cls-8{fill:#73c8f0;}.cls-9{fill:#f2716c;}.cls-10{fill:#f69799;}.cls-11{clip-path:url(#clip-path);}.cls-12{opacity:0.35;}</style><clipPath id="clip-path"><rect class="cls-1" x="38.03" y="0.02" width="33.93" height="131.4"/></clipPath></defs><title>Asset 8</title><g class="cls-2"><g id="Layer_2" data-name="Layer 2"><g id="Layer_1-2" data-name="Layer 1"><polygon class="cls-3" points="66.53 107.32 13.34 107.61 0 107.32 40.56 131.61 107.6 131.61 66.53 107.32"/><rect class="cls-4" x="37.95" y="50.45" width="5.45" height="81.23"/><rect class="cls-4" x="102.2" y="50.45" width="5.45" height="81.23"/><rect class="cls-5" x="43.4" y="114.49" width="24.86" height="3.21"/><rect class="cls-5" x="75.13" y="114.49" width="27.06" height="3.21"/><path class="cls-6" d="M71.87,79.17H43.4V41.59c0-5.18,2.49-5.38,5.15-5.38H71.87"/><path class="cls-6" d="M74,79.17h28.47V41.59c0-5.18-2.48-5.38-5.14-5.38H74"/><rect class="cls-4" x="40.67" y="78.36" width="64.25" height="8.9"/><rect class="cls-7" x="56.68" y="28.16" width="31" height="44.77"/><ellipse class="cls-8" cx="71.81" cy="11.87" rx="11.72" ry="11.87"/><rect class="cls-8" x="48.93" y="30.91" width="4.12" height="47.23"/><rect class="cls-8" x="91.2" y="30.66" width="4.12" height="47.23"/><rect class="cls-8" x="60.1" y="65.72" width="6.41" height="53.87"/><rect class="cls-8" x="77.59" y="65.72" width="6.41" height="53.87"/><rect class="cls-9" x="58.28" y="64.71" width="9.98" height="42.19"/><rect class="cls-9" x="75.8" y="64.71" width="9.98" height="42.19"/><rect class="cls-10" x="57.49" y="102.6" width="11.75" height="4.16"/><rect class="cls-10" x="74.7" y="102.74" width="11.75" height="4.16"/><rect class="cls-7" x="90.07" y="30.66" width="6.85" height="7.59"/><rect class="cls-7" x="47.57" y="30.66" width="6.85" height="7.59"/><path class="cls-8" d="M78.68,28.16a6.81,6.81,0,1,1-13.62,0Z"/><g class="cls-11"><g class="cls-12"><path class="cls-5" d="M72,23.91A11.73,11.73,0,0,0,83.75,12.23a11.59,11.59,0,0,0-.94-4.59,11.69,11.69,0,0,0-22.65,4.25,12.08,12.08,0,0,0,.26,2.49A11.76,11.76,0,0,0,72,23.91Z"/><path class="cls-5" d="M102.59,50.47V41.61c0-5.18-2.48-5.38-5.14-5.38h-2V30.68H91.28v5.55H87.75V28h-4.3v.16H56.75v8H54.41V30.66H47.57v5.57c-2.12.17-4.09,1.07-4.09,5.39v8.86H38V131.7h5.45v-14h16.7v1.89h6.41v-1.89h1.75v-3.21H66.58v-7.59h1.75v-.14h1v-4.16h-1V87.28h7.54v15.48H74.77v4.16h2.89v7.59H75.21v3.21h2.45v1.89h6.41v-1.89h18.21v14h5.45V50.47ZM71.95,72.95h2.17v5.44H71.95ZM60.17,114.52H43.48V87.28H58.36v15.34h-.79v4.16h.79v.14h1.82Zm23.89,0v-7.59h2.45v-4.16h-.66V87.28h16.41v27.23Z"/></g></g></g></g></g></svg>