<svg xmlns="http://www.w3.org/2000/svg" xmlns:xlink="http://www.w3.org/1999/xlink" viewBox="0 0 88.17 159.69"><defs><style>.cls-1{fill:none;}.cls-2{isolation:isolate;}.cls-10,.cls-3{fill:#999;}.cls-3{fill-opacity:0.39;}.cls-3,.cls-8{mix-blend-mode:multiply;}.cls-4{fill:#73c8ef;}.cls-5{fill:#557faa;}.cls-6{fill:#9fc9eb;}.cls-7{fill:#fff;}.cls-9{clip-path:url(#clip-path);}.cls-10{opacity:0.4;}</style><clipPath id="clip-path"><path class="cls-1" d="M57.58,8.89C70.26-.89,84.6,13.63,75,26.48,62.27,36.29,47.9,21.74,57.58,8.89ZM43.52,82.36h4V36.84h-4ZM84.25,36.6V82.12h4V36.6ZM51.34,79.47,53,134.91h-.64v3.62h3V154h5.77V138.53h3.11v-3.62h-1l.6-44.33H67.7l1.62,44.33H68.18v3.62H71.7v15.24h5.78V138.53h2v-3.62h-.76L81,79.83ZM81.08,34H77.83v.15H51v.12h-.24V51.47H51v31H80.86v-31h.3V46.42l-.08,0Z"/></clipPath></defs><title>Asset 15</title><g class="cls-2"><g id="Layer_2" data-name="Layer 2"><g id="Layer_1-2" data-name="Layer 1"><polygon class="cls-3" points="21.44 118.46 0 118.46 54.79 153.81 76.68 153.81 21.44 118.46"/><rect class="cls-4" x="55.35" y="110.88" width="5.78" height="43.12"/><rect class="cls-4" x="70.9" y="110.65" width="5.78" height="43.12"/><polygon class="cls-5" points="81.2 82.12 51.33 82.12 50.94 34.2 80.81 34.2 81.2 82.12"/><path class="cls-4" d="M74.9,26.48C84.55,13.63,70.21-.89,57.53,8.89,47.85,21.74,62.22,36.29,74.9,26.48Z"/><rect class="cls-4" x="43.47" y="36.84" width="3.98" height="45.52"/><rect class="cls-4" x="84.2" y="36.6" width="3.97" height="45.52"/><polygon class="cls-5" points="51.29 79.47 81.2 82.12 78.55 138.37 69.4 138.37 67.66 90.57 63.79 90.57 63.14 138.37 53.03 138.22 51.29 79.47"/><rect class="cls-6" x="52.29" y="134.91" width="11.9" height="3.62"/><rect class="cls-6" x="68.13" y="134.91" width="11.32" height="3.62"/><rect class="cls-4" x="50.69" y="34.32" width="3.41" height="17.15"/><rect class="cls-4" x="77.78" y="34.04" width="3.25" height="17.16"/><rect class="cls-4" x="57.02" y="34.32" width="17.83" height="17.15"/><polygon class="cls-7" points="54.1 44.61 50.7 46.41 50.7 51.47 54.1 51.47 54.1 44.61"/><polygon class="cls-7" points="81.11 46.41 77.7 44.61 77.7 51.47 81.11 51.47 81.11 46.41"/><polygon class="cls-7" points="74.86 44.61 65.87 48.04 56.88 44.61 56.88 51.47 74.86 51.47 74.86 44.61"/><g class="cls-8"><g class="cls-9"><rect class="cls-10" x="9.15" width="56.72" height="159.69"/></g></g></g></g></g></svg>