<svg xmlns="http://www.w3.org/2000/svg" xmlns:xlink="http://www.w3.org/1999/xlink" viewBox="0 0 115.16 311.08"><defs><style>.cls-1{fill:none;}.cls-2{isolation:isolate;}.cls-16,.cls-3{fill:#999;}.cls-3{fill-opacity:0.39;}.cls-14,.cls-3{mix-blend-mode:multiply;}.cls-4{fill:#73c8ef;}.cls-5{fill:#f26739;}.cls-6{fill:#949199;}.cls-7{clip-path:url(#clip-path);}.cls-8{fill:#545562;}.cls-9{fill:#3a414d;}.cls-10{fill:#8590a9;}.cls-11{fill:#192029;}.cls-12{fill:#69696e;}.cls-13{fill:#a0adcc;}.cls-15{clip-path:url(#clip-path-2);}.cls-16{opacity:0.4;}</style><clipPath id="clip-path"><path class="cls-1" d="M99.74,142.29c0,10.06-4.27,13-4.27,13h-17a24.7,24.7,0,0,1-4.27-13,12.79,12.79,0,1,1,25.58,0Z"/></clipPath><clipPath id="clip-path-2"><path class="cls-1" d="M115.08,209.1h-1.5v8h-5.75v-8h-1.49V160.59h8.73Zm-56.16,0h1.49v7.56h5.74V209.1h1.5V160.59H58.92Zm40.82-.51v-.35H74.09v2.12h0l.48,29.25h0l.18,15,.07.3.3,18.72.46,0v6h7.12v-6.3l.88,0,.91-32.08-.15,0,.52-22h3.35l3.39,55,.3,0v5.52h7.11V273l.27,0,.12-18.37.11-.48,0-12.39.21-31.35h0V208.6ZM78.36,155.31h17s4.27-3,4.27-13a12.94,12.94,0,0,0-12.79-13l-.25,0-.26,0a11.78,11.78,0,0,0-10,5.71,13.09,13.09,0,0,0-2.23,7.32A24.69,24.69,0,0,0,78.36,155.31Zm25,26.52-.39-.71V158.5H99.74v-1.08H98.29v-.32H95.84v.32H94.39v1.08h-15v-1.08H77.91v-.32H75.46v.32H74v1.08H70.73v22.38l-.53,1,.53,5.14v4.68h-.57v5.64h.57V204H103V197.3h.39v-5.64H103v-6.07Z"/></clipPath></defs><title>Asset 44</title><g class="cls-2"><g id="Layer_2" data-name="Layer 2"><g id="Layer_1-2" data-name="Layer 1"><polygon class="cls-3" points="42 242.77 18.25 242.77 75.42 279.64 99.63 279.64 42 242.77"/><rect class="cls-4" x="107.93" y="161.4" width="5.75" height="55.67"/><rect class="cls-4" x="60.49" y="161.16" width="5.74" height="55.49"/><rect class="cls-4" x="75.69" y="212.95" width="7.12" height="66.69"/><rect class="cls-4" x="92.02" y="212.59" width="7.11" height="67.08"/><rect class="cls-5" x="70.82" y="158.5" width="32.28" height="45.55"/><rect class="cls-5" x="106.43" y="160.58" width="8.73" height="48.52"/><rect class="cls-5" x="59" y="160.58" width="8.73" height="48.52"/><polygon class="cls-6" points="74.17 208.25 99.83 208.6 99.41 272.95 91.72 274.19 88.33 219.21 84.98 219.21 83.7 273.3 75.23 273.67 74.17 208.25"/><g class="cls-7"><rect class="cls-8" x="72.42" y="129.27" width="29.07" height="26.05"/><ellipse class="cls-4" cx="86.45" cy="141.27" rx="11.85" ry="12"/><rect class="cls-5" x="72.42" y="147.47" width="29.07" height="7.85"/><rect class="cls-5" x="72.42" y="129.27" width="29.07" height="6.11"/><rect class="cls-5" x="69.62" y="125.86" width="9.64" height="29.45"/><rect class="cls-5" x="94.82" y="125.86" width="9.64" height="29.45"/></g><polygon class="cls-9" points="70.28 181.84 76.05 171.39 78.39 172.69 70.82 186.98 70.28 181.84"/><polygon class="cls-9" points="103.48 181.84 97.72 171.39 95.37 172.69 102.95 186.98 103.48 181.84"/><rect class="cls-9" x="78.15" y="164.75" width="17.43" height="1.55"/><rect class="cls-10" x="94.47" y="157.41" width="5.35" height="16.22"/><rect class="cls-10" x="74.09" y="157.41" width="5.35" height="16.22"/><rect class="cls-11" x="84.34" y="164.09" width="5.04" height="2.86"/><rect class="cls-9" x="70.24" y="191.66" width="33.24" height="5.63"/><rect class="cls-11" x="83.41" y="191.02" width="6.91" height="6.92"/><polyline class="cls-12" points="83.7 273.3 79.44 273.49 74.86 254.65 74.68 239.63 84.61 241.22"/><polyline class="cls-12" points="92.02 274.1 95.37 273.6 99.63 254.1 99.61 238.68 89.69 241.22"/><rect class="cls-12" x="74.17" y="208.25" width="25.65" height="2.12"/><rect class="cls-13" x="75.54" y="157.1" width="2.46" height="13.98"/><rect class="cls-13" x="95.92" y="157.1" width="2.46" height="13.98"/><g class="cls-14"><g class="cls-15"><rect class="cls-16" width="86.78" height="311.08"/></g></g></g></g></g></svg>