<svg xmlns="http://www.w3.org/2000/svg" xmlns:xlink="http://www.w3.org/1999/xlink" viewBox="0 0 87.22 145.33"><defs><style>.cls-1{fill:none;}.cls-2{isolation:isolate;}.cls-3{fill:#999;fill-opacity:0.39;}.cls-3,.cls-9{mix-blend-mode:multiply;}.cls-4{fill:#74c6ee;}.cls-5{fill:#2c2f31;}.cls-6{fill:#e5dfdc;}.cls-7{fill:#ffd145;}.cls-8{clip-path:url(#clip-path);}.cls-9{opacity:0.3;}.cls-10{fill:#969696;}</style><clipPath id="clip-path"><polygon class="cls-1" points="37.45 145.31 63.96 146.02 63.24 0.08 38.95 0.05 37.45 145.31"/></clipPath></defs><title>Asset 21</title><g class="cls-2"><g id="Layer_2" data-name="Layer 2"><g id="Layer_1-2" data-name="Layer 1"><polygon class="cls-3" points="18.67 110.84 0 110.72 53.35 145.14 72.47 145.26 18.67 110.84"/><polygon class="cls-4" points="59.35 145.23 53.21 145.26 53.18 141.41 59.31 141.38 59.35 145.23"/><polygon class="cls-4" points="72.59 145.15 66.43 145.19 66.39 141.24 72.56 141.21 72.59 145.15"/><ellipse class="cls-4" cx="62.89" cy="11.77" rx="11.61" ry="11.77" transform="translate(-0.06 0.33) rotate(-0.3)"/><polygon class="cls-4" points="44.66 79.16 40.42 79.18 40.3 30.58 44.4 30.56 44.66 79.16"/><polygon class="cls-4" points="85.42 78.68 81.27 78.7 81.02 30.45 85.73 30.42 85.42 78.68"/><polygon class="cls-5" points="49.46 74.38 49.27 69.34 58.91 27.8 67.04 27.7 76.37 69.18 76.15 74.29 49.46 74.38"/><polygon class="cls-6" points="44.62 72.73 40.38 72.76 39.37 30.59 44.4 30.56 44.62 72.73"/><polygon class="cls-6" points="85.48 72.52 81.24 72.54 81.02 30.45 85.82 30.42 85.48 72.52"/><rect class="cls-7" x="38.8" y="30.57" width="7.2" height="38.72" transform="translate(-0.16 0.14) rotate(-0.18)"/><rect class="cls-7" x="47.44" y="27.75" width="11.53" height="41.51" transform="translate(-0.16 0.17) rotate(-0.19)"/><rect class="cls-7" x="67.1" y="27.69" width="11.12" height="41.51" transform="translate(-0.16 0.23) rotate(-0.19)"/><rect class="cls-7" x="79.88" y="30.44" width="7.2" height="38.72" transform="translate(-0.16 0.27) rotate(-0.19)"/><polygon class="cls-5" points="70.29 78.09 63.97 78.11 61.4 78.12 53.67 78.14 50.94 78.15 53.16 141.4 59.33 141.38 61.43 87.69 64 87.69 66.39 141.36 72.57 141.34 74.43 78.08 70.29 78.09"/><rect class="cls-7" x="54.07" y="26.79" width="4.83" height="1.94" transform="translate(-0.09 0.18) rotate(-0.19)"/><rect class="cls-7" x="67.04" y="26.74" width="4.83" height="1.94" transform="translate(-0.09 0.22) rotate(-0.19)"/><g class="cls-8"><g class="cls-9"><ellipse class="cls-10" cx="62.97" cy="11.83" rx="11.61" ry="11.77" transform="translate(-0.06 0.33) rotate(-0.3)"/><polygon class="cls-10" points="38.81 30.65 38.94 69.37 40.37 69.37 40.45 72.83 40.47 72.83 40.49 79.25 44.73 79.22 44.7 72.8 44.7 72.8 44.68 69.36 46.14 69.35 46.01 30.63 38.81 30.65"/><polygon class="cls-10" points="87.09 30.49 85.9 30.5 85.9 30.49 83.51 30.5 79.89 30.52 80.02 69.24 81.3 69.24 81.31 72.61 81.31 72.61 81.35 78.77 85.5 78.75 85.53 72.59 85.56 72.59 85.58 69.22 87.22 69.22 87.09 30.49"/><polygon class="cls-10" points="74.43 78.14 70.29 78.16 63.97 78.18 61.4 78.19 53.67 78.21 50.94 78.22 53.16 141.47 56.17 141.46 53.18 141.48 53.21 145.33 59.35 145.3 59.31 141.45 59.33 141.45 61.43 87.76 63.99 86.91 66.39 141.43 66.39 141.43 66.43 145.26 72.59 145.22 72.56 141.41 72.57 141.41 74.43 78.14"/><polygon class="cls-10" points="71.94 26.81 67.11 26.82 67.11 27.77 67.11 27.8 58.98 27.84 58.98 27.8 58.98 26.85 54.15 26.86 54.15 27.82 47.45 27.84 47.58 69.35 49.28 69.34 49.53 74.45 75.17 74.36 75.51 69.25 78.37 69.25 78.23 27.74 71.94 27.76 71.94 26.81"/></g></g></g></g></g></svg>