<svg xmlns="http://www.w3.org/2000/svg" xmlns:xlink="http://www.w3.org/1999/xlink" viewBox="0 0 120.76 144.72"><defs><style>.cls-1{fill:none;}.cls-2{isolation:isolate;}.cls-12,.cls-3{mix-blend-mode:multiply;}.cls-4{opacity:0.39;}.cls-5{fill:#9e9e9e;}.cls-6{fill:#73c8ef;}.cls-7{fill:#5590cc;}.cls-8{opacity:0.73;}.cls-9{clip-path:url(#clip-path);}.cls-10{fill:#fff;}.cls-11{fill:#bdd9f1;}.cls-12{opacity:0.3;}.cls-13{clip-path:url(#clip-path-2);}</style><clipPath id="clip-path"><path class="cls-1" d="M91.31,28.26V76.34H79.49l-5.83,54.38H66.38L62,77h-.45l-3.17,53.66H52l-3.8-59.76h-.12V28ZM45.6,29.73h-7.4V76h7.4Z"/></clipPath><clipPath id="clip-path-2"><rect class="cls-1" x="37.91" width="24.08" height="144.72"/></clipPath></defs><title>Asset 41</title><g class="cls-2"><g id="Layer_2" data-name="Layer 2"><g id="Layer_1-2" data-name="Layer 1"><g class="cls-3"><g class="cls-4"><polygon class="cls-5" points="20.83 111.43 0 111.43 51.57 144.69 72.82 144.69 20.83 111.43"/></g></g><polygon class="cls-6" points="52.09 144.69 57.94 144.69 59.94 80.5 51.09 80.5 52.09 144.69"/><polygon class="cls-6" points="66.81 144.72 72.66 144.72 73.66 80.14 64.81 80.14 66.81 144.72"/><rect class="cls-6" x="80.54" y="30.74" width="4.04" height="53.59"/><rect class="cls-6" x="39.07" y="30.64" width="4.13" height="53.43"/><polygon class="cls-7" points="45.38 30.09 38.2 30.09 38.36 75.96 43.91 75.96 45.38 30.09"/><polygon class="cls-7" points="85.64 29.96 78.47 29.96 79.78 76.34 85.33 76.34 85.64 29.96"/><path class="cls-6" d="M73.39,11.55a11.41,11.41,0,1,0-22.81,0,11.41,11.41,0,1,0,22.81,0Z"/><path class="cls-7" d="M75.67,29.08l-4.53-1h-.45a3.12,3.12,0,0,0-3-2.17L63.5,26v2.07h-3V26.67a.66.66,0,0,0-.66-.66H56.4a3.29,3.29,0,0,0-3,2.06H53l-4.95,1V67.31L52,130.71h6.35l3.17-53.66h.9l4,53.67h6.38l2.9-62,.13,0Z"/><g class="cls-8"><g class="cls-9"><path class="cls-10" d="M44.56,93.44a.48.48,0,0,1-.43-.27c-.09-.1-.33-.31-.5-.46-.63-.57-.76-.69-.76-.94a.5.5,0,0,1,.14-.36c.24-.24.45-.2,2.05.13l.18,0-.35-.32c-1.38-1.25-1.52-1.4-1.53-1.7a.51.51,0,0,1,.15-.36c.28-.28.48-.22,2.5.52l.09,0c-1.32-1.2-1.46-1.35-1.47-1.64a.51.51,0,0,1,.14-.36c.23-.23.43-.2,2,.08l.11,0a.55.55,0,0,1-.19-.4.49.49,0,0,1,.14-.36.48.48,0,0,1,.68,0,.48.48,0,0,1,.09.12l.44.41c.58.52.7.63.7.88a.49.49,0,0,1-.14.36c-.23.23-.44.2-2-.08l-.19,0,.38.35c1.37,1.24,1.51,1.4,1.52,1.69a.51.51,0,0,1-.14.36c-.28.28-.48.22-2.5-.52l-.09,0c1.33,1.21,1.47,1.37,1.48,1.65a.51.51,0,0,1-.15.36c-.24.24-.45.2-2.05-.13l-.1,0c.21.21.26.32.27.48a.5.5,0,0,1-.14.36A.48.48,0,0,1,44.56,93.44Zm-.34-.82a.47.47,0,0,0-.12.22A.48.48,0,0,1,44.22,92.62Z"/><path class="cls-10" d="M68.31,78.11c-.37,0-1.1-.43-3.22-1.78.74.69.85.87.85,1.1a.52.52,0,0,1-.15.37.48.48,0,0,1-.8-.21c-.21-.25-1-1-1.59-1.5-1.69-1.53-1.89-1.74-1.89-2.06a.52.52,0,0,1,.15-.37c.37-.37.62-.26,3.75,1.73l.28.18-.91-.83c-2.93-2.65-3.37-3.11-3.38-3.52a.56.56,0,0,1,.15-.38c.42-.42.71-.29,4.77,2.74l.15.11-.33-.3c-3.32-3-3.87-3.57-3.88-4a.58.58,0,0,1,.15-.39c.43-.43.74-.29,5,3-3.19-2.89-3.72-3.44-3.73-3.88a.58.58,0,0,1,.15-.39c.42-.42.77-.24,4.49,2.51-2.27-2.07-2.63-2.47-2.64-2.84a.56.56,0,0,1,.15-.38c.35-.35.66-.2,3.3,1.29a.51.51,0,0,1,0-.68.48.48,0,0,1,.79.17c.15.17.62.59.94.89,1.08,1,1.22,1.12,1.23,1.4a.51.51,0,0,1-.14.36c-.36.35-.66.2-3.31-1.3l-.3-.17L69.54,70c2.78,2.51,3.19,2.95,3.2,3.35a.56.56,0,0,1-.15.38c-.43.43-.78.23-4.66-2.63L67.75,71l.42.38c3.29,3,3.82,3.53,3.83,4a.58.58,0,0,1-.15.39c-.43.43-.74.29-5-3h0c3.29,3,3.83,3.54,3.84,4a.58.58,0,0,1-.15.39c-.43.43-.78.23-4.63-2.63,2.51,2.28,2.9,2.71,2.91,3.1a.56.56,0,0,1-.15.38A.46.46,0,0,1,68.31,78.11Z"/><path class="cls-10" d="M52.76,89.94a.48.48,0,0,1-.47-.4c-.27-.36-1.56-1.53-2.51-2.39-2.59-2.35-2.82-2.62-2.83-3a.55.55,0,0,1,.15-.38c.4-.4.72-.24,4.27,2.24l.18.13-.46-.41c-3-2.71-3.49-3.22-3.5-3.64a.57.57,0,0,1,.15-.38c.43-.43.77-.23,4.63,2.6l0,0h0c-3-2.75-3.54-3.27-3.55-3.69a.57.57,0,0,1,.15-.38c.41-.41.73-.24,4.28,2.28-2.34-2.12-2.57-2.42-2.58-2.77a.55.55,0,0,1,.15-.38c.34-.34.63-.21,3.13,1.13a.54.54,0,0,1-.15-.36.51.51,0,0,1,.14-.36.48.48,0,0,1,.79.16c.14.16.59.57.9.85,1,.95,1.18,1.08,1.19,1.36a.51.51,0,0,1-.14.36c-.34.34-.63.21-3.15-1.14l-.28-.15,1.08,1c2.74,2.48,3,2.79,3,3.16a.55.55,0,0,1-.15.38c-.41.41-.74.24-4.38-2.36l-.16-.11.37.34c3,2.75,3.54,3.27,3.55,3.69a.57.57,0,0,1-.15.38c-.43.43-.77.23-4.63-2.6h0c2.94,2.66,3.43,3.17,3.44,3.59a.57.57,0,0,1-.15.38c-.4.4-.72.24-4.15-2.15,2.11,1.92,2.31,2.18,2.32,2.52a.55.55,0,0,1-.15.38A.48.48,0,0,1,52.76,89.94Z"/><path class="cls-10" d="M54.06,68.16a.48.48,0,0,1-.47-.4c-.28-.37-1.61-1.58-2.6-2.47-2.68-2.42-2.91-2.7-2.92-3.07a.55.55,0,0,1,.15-.38c.41-.41.74-.24,4.36,2.33l.15.11-.36-.33c-3-2.73-3.51-3.24-3.52-3.66A.57.57,0,0,1,49,59.9c.43-.43.78-.23,4.67,2.64h0c-3-2.7-3.47-3.21-3.48-3.63a.57.57,0,0,1,.15-.38c.41-.41.74-.24,4.28,2.29-2.25-2-2.48-2.34-2.49-2.68a.55.55,0,0,1,.15-.38c.34-.34.63-.2,3.16,1.16a.51.51,0,0,1-.12-.33.51.51,0,0,1,.14-.36.48.48,0,0,1,.79.16c.14.16.59.56.89.83,1,.94,1.17,1.07,1.17,1.35a.51.51,0,0,1-.14.36c-.34.34-.63.21-3.17-1.16l-.27-.14,1,.94c2.72,2.46,3,2.77,3,3.14a.55.55,0,0,1-.15.38c-.41.41-.74.23-4.41-2.38l-.14-.1.32.29c3,2.75,3.53,3.26,3.54,3.68a.57.57,0,0,1-.15.38c-.43.43-.78.23-4.67-2.64C56,66,56.51,66.48,56.52,66.9a.57.57,0,0,1-.15.38c-.4.41-.73.24-4.23-2.24,2.19,2,2.39,2.26,2.4,2.6a.55.55,0,0,1-.15.38A.48.48,0,0,1,54.06,68.16Z"/><path class="cls-10" d="M81.51,70.39a.47.47,0,0,0-.12.22A.48.48,0,0,1,81.51,70.39Z"/><path class="cls-10" d="M72.85,99.38c-.37,0-1.1-.43-3.22-1.78.74.7.85.87.85,1.11a.52.52,0,0,1-.15.37.48.48,0,0,1-.8-.21c-.21-.25-1-1-1.59-1.5-1.69-1.53-1.89-1.74-1.89-2.06a.52.52,0,0,1,.15-.37c.37-.37.62-.26,3.75,1.73l.28.18L69.33,96C66.4,93.37,66,92.91,65.95,92.5a.56.56,0,0,1,.15-.38c.42-.42.71-.29,4.77,2.74L71,95l-.33-.3c-3.32-3-3.87-3.57-3.88-4a.58.58,0,0,1,.15-.39c.43-.43.73-.29,5,3-3.19-2.89-3.72-3.44-3.73-3.88a.58.58,0,0,1,.15-.39c.42-.42.77-.24,4.49,2.51-2.27-2.06-2.63-2.47-2.64-2.84a.56.56,0,0,1,.15-.38c.35-.35.66-.2,3.3,1.29a.51.51,0,0,1,0-.68.48.48,0,0,1,.79.17c.15.17.62.59.94.89,1.08,1,1.22,1.12,1.23,1.4a.51.51,0,0,1-.14.36c-.35.35-.66.2-3.31-1.3l-.3-.17,1.16,1.06c2.77,2.51,3.19,2.95,3.2,3.35a.56.56,0,0,1-.15.38c-.43.43-.78.23-4.66-2.63l-.18-.14.42.38c3.29,3,3.82,3.53,3.84,4a.58.58,0,0,1-.15.39c-.43.43-.74.29-5-3h0c3.29,3,3.83,3.54,3.84,4a.58.58,0,0,1-.15.39c-.41.41-.7.29-4.63-2.63,2.51,2.28,2.9,2.71,2.91,3.1a.56.56,0,0,1-.15.38A.46.46,0,0,1,72.85,99.38Z"/><path class="cls-10" d="M74.89,117.07c-.37,0-1.1-.43-3.22-1.78.74.7.85.87.85,1.11a.52.52,0,0,1-.15.37.48.48,0,0,1-.8-.21c-.21-.25-1-1-1.59-1.5-1.69-1.53-1.89-1.74-1.89-2.06a.52.52,0,0,1,.15-.37c.37-.37.62-.26,3.75,1.73l.28.18-.91-.83c-2.93-2.65-3.37-3.11-3.38-3.52a.56.56,0,0,1,.15-.38c.42-.42.71-.29,4.77,2.74l.15.12-.33-.3c-3.32-3-3.87-3.57-3.88-4A.58.58,0,0,1,69,108c.43-.43.73-.29,5,3-3.19-2.89-3.72-3.44-3.73-3.88a.58.58,0,0,1,.15-.39c.42-.42.77-.24,4.49,2.51-2.27-2.06-2.63-2.47-2.64-2.84a.56.56,0,0,1,.15-.38c.35-.35.66-.2,3.3,1.29a.51.51,0,0,1,0-.68.48.48,0,0,1,.79.17c.15.17.62.59.94.89,1.08,1,1.22,1.12,1.23,1.4a.51.51,0,0,1-.14.36c-.35.35-.66.2-3.31-1.3l-.3-.17L76.12,109c2.77,2.51,3.19,2.95,3.2,3.35a.56.56,0,0,1-.15.38c-.43.43-.78.23-4.66-2.63l-.18-.14.42.38c3.29,3,3.82,3.53,3.84,4a.58.58,0,0,1-.15.39c-.43.43-.74.29-5-3h0c3.29,3,3.83,3.54,3.84,4a.58.58,0,0,1-.15.39c-.41.41-.7.29-4.63-2.63,2.51,2.28,2.9,2.71,2.91,3.1a.56.56,0,0,1-.15.38A.46.46,0,0,1,74.89,117.07Z"/><path class="cls-10" d="M86.88,44.37c-.37,0-1.1-.43-3.22-1.78.74.7.85.87.85,1.11a.52.52,0,0,1-.15.37.48.48,0,0,1-.8-.21c-.21-.25-1-1-1.59-1.5-1.69-1.53-1.89-1.74-1.89-2.06a.52.52,0,0,1,.15-.37c.37-.37.62-.26,3.75,1.73l.28.18L83.35,41C80.43,38.36,80,37.9,80,37.48a.56.56,0,0,1,.15-.38c.42-.42.71-.29,4.77,2.74l.15.12-.33-.3c-3.32-3-3.87-3.57-3.88-4a.58.58,0,0,1,.15-.39c.43-.43.73-.29,5,3-3.19-2.89-3.72-3.44-3.73-3.88a.58.58,0,0,1,.15-.39c.42-.42.77-.24,4.49,2.51-2.27-2.06-2.63-2.47-2.64-2.84a.56.56,0,0,1,.15-.38c.35-.35.66-.2,3.3,1.29a.51.51,0,0,1,0-.68.48.48,0,0,1,.79.17c.15.17.62.59.94.89,1.08,1,1.22,1.12,1.23,1.4a.51.51,0,0,1-.14.36c-.35.35-.66.2-3.31-1.3l-.3-.17,1.16,1.06c2.77,2.51,3.19,2.95,3.2,3.35a.56.56,0,0,1-.15.38c-.43.43-.78.23-4.66-2.63l-.18-.14.42.38c3.29,3,3.82,3.53,3.84,4a.58.58,0,0,1-.15.39c-.43.43-.74.29-5-3h0c3.29,3,3.83,3.54,3.84,4a.58.58,0,0,1-.15.39c-.41.41-.7.29-4.63-2.63,2.51,2.28,2.9,2.71,2.91,3.1a.56.56,0,0,1-.15.38A.46.46,0,0,1,86.88,44.37Z"/><path class="cls-10" d="M58.72,109.2a.48.48,0,0,1-.47-.4c-.27-.36-1.56-1.53-2.51-2.39-2.59-2.35-2.82-2.62-2.83-3a.55.55,0,0,1,.15-.38c.4-.4.72-.24,4.27,2.24l.18.13L57,105c-3-2.71-3.49-3.22-3.5-3.64a.57.57,0,0,1,.15-.38c.43-.43.77-.23,4.63,2.6l0,0h0c-3-2.75-3.54-3.27-3.55-3.69a.57.57,0,0,1,.15-.38c.41-.41.73-.24,4.28,2.28-2.34-2.12-2.57-2.42-2.58-2.77a.55.55,0,0,1,.15-.38c.34-.34.63-.21,3.13,1.13a.54.54,0,0,1-.15-.36.51.51,0,0,1,.14-.36.48.48,0,0,1,.79.16c.14.16.59.57.9.85,1,.95,1.18,1.08,1.19,1.36a.51.51,0,0,1-.14.36c-.34.34-.63.21-3.15-1.14l-.27-.15,1.08,1c2.74,2.48,3,2.79,3,3.16a.55.55,0,0,1-.15.38c-.41.41-.74.24-4.38-2.36l-.16-.11.37.34c3,2.75,3.54,3.27,3.55,3.69a.57.57,0,0,1-.15.38c-.43.43-.77.23-4.63-2.6h0c2.94,2.66,3.43,3.17,3.44,3.59a.57.57,0,0,1-.15.38c-.4.4-.72.24-4.15-2.16,2.11,1.92,2.31,2.18,2.32,2.52a.55.55,0,0,1-.15.38A.48.48,0,0,1,58.72,109.2Z"/><path class="cls-10" d="M50.17,124.93a.48.48,0,0,1-.47-.4c-.27-.36-1.56-1.53-2.51-2.39-2.59-2.35-2.82-2.62-2.83-3a.55.55,0,0,1,.15-.38c.4-.4.72-.24,4.27,2.24l.18.13-.46-.41c-3-2.71-3.49-3.22-3.5-3.64a.57.57,0,0,1,.15-.38c.43-.43.77-.23,4.63,2.6l0,0h0c-3-2.75-3.54-3.27-3.55-3.69a.57.57,0,0,1,.15-.38c.41-.41.73-.24,4.28,2.28-2.34-2.12-2.57-2.42-2.58-2.77a.55.55,0,0,1,.15-.38c.34-.34.63-.21,3.13,1.13a.54.54,0,0,1-.15-.36.51.51,0,0,1,.14-.36.48.48,0,0,1,.79.16c.14.16.59.57.9.85,1,.95,1.18,1.08,1.19,1.36a.51.51,0,0,1-.14.36c-.34.34-.63.21-3.15-1.14l-.27-.15,1.08,1c2.74,2.48,3,2.79,3,3.16a.55.55,0,0,1-.15.38c-.41.41-.74.24-4.38-2.36l-.16-.11.37.34c3,2.75,3.54,3.27,3.55,3.69a.57.57,0,0,1-.15.38c-.43.43-.77.23-4.63-2.6h0c2.94,2.66,3.43,3.17,3.44,3.59a.57.57,0,0,1-.15.38c-.4.4-.72.24-4.15-2.16,2.11,1.92,2.31,2.18,2.32,2.52a.55.55,0,0,1-.15.38A.48.48,0,0,1,50.17,124.93Z"/><path class="cls-10" d="M83.51,97a.48.48,0,0,1-.46-.35c-.21-.25-1-1-1.59-1.5-1.69-1.53-1.89-1.74-1.9-2.06a.52.52,0,0,1,.15-.37c.34-.34.62-.21,3.11,1.1l.11.06-.23-.21c-2.11-1.91-2.28-2.12-2.28-2.44a.53.53,0,0,1,.15-.37c.3-.3.51-.22,2.67.69-.34-.33-.4-.45-.4-.63a.5.5,0,0,1,.14-.36.48.48,0,0,1,.78.16c.13.15.54.52.82.77,1,.88,1.1,1,1.11,1.28a.5.5,0,0,1-.14.36c-.3.3-.51.23-2.68-.69l-.19-.08.67.61c2.11,1.91,2.28,2.12,2.28,2.44a.53.53,0,0,1-.15.37c-.34.34-.62.21-3.11-1.1h0C83.81,96,84,96.2,84,96.5a.52.52,0,0,1-.15.37A.48.48,0,0,1,83.51,97Z"/><path class="cls-10" d="M41.47,101.65a.48.48,0,0,1-.47-.4c-.28-.37-1.61-1.58-2.6-2.47-2.68-2.42-2.91-2.7-2.92-3.07a.55.55,0,0,1,.15-.38c.41-.41.74-.24,4.36,2.33l.15.11-.36-.33c-3-2.73-3.51-3.24-3.52-3.66a.57.57,0,0,1,.15-.38c.43-.43.78-.23,4.67,2.64h0c-3-2.7-3.47-3.21-3.48-3.63a.57.57,0,0,1,.15-.38c.41-.41.74-.24,4.28,2.29-2.25-2-2.48-2.34-2.49-2.68a.55.55,0,0,1,.15-.38c.34-.34.63-.21,3.16,1.16a.51.51,0,0,1-.12-.33.51.51,0,0,1,.14-.36.48.48,0,0,1,.79.16c.14.16.59.56.89.83,1,.94,1.17,1.07,1.17,1.35a.51.51,0,0,1-.14.36c-.34.34-.63.2-3.17-1.16l-.27-.14,1,.94c2.72,2.46,3,2.77,3,3.14a.55.55,0,0,1-.15.38c-.41.41-.74.23-4.41-2.38l-.14-.1.32.29c3,2.75,3.53,3.26,3.54,3.68a.57.57,0,0,1-.15.38c-.43.43-.78.23-4.67-2.64,2.93,2.65,3.41,3.16,3.42,3.57a.57.57,0,0,1-.15.38c-.41.41-.73.24-4.23-2.24,2.19,2,2.39,2.26,2.4,2.6a.55.55,0,0,1-.15.38A.48.48,0,0,1,41.47,101.65Z"/><path class="cls-10" d="M52.76,42.58a.48.48,0,0,1-.47-.4c-.27-.36-1.56-1.53-2.51-2.39-2.59-2.35-2.82-2.62-2.83-3a.55.55,0,0,1,.15-.38c.4-.4.72-.24,4.27,2.24l.18.13-.46-.41c-3-2.71-3.49-3.22-3.5-3.64a.57.57,0,0,1,.15-.38c.43-.43.77-.23,4.63,2.6l0,0h0c-3-2.75-3.54-3.27-3.55-3.69A.57.57,0,0,1,49,32.9c.41-.41.73-.24,4.28,2.28-2.34-2.12-2.57-2.42-2.58-2.77a.55.55,0,0,1,.15-.38c.34-.34.63-.21,3.13,1.13a.54.54,0,0,1-.15-.36.51.51,0,0,1,.14-.36.48.48,0,0,1,.79.16c.14.16.59.57.9.85,1,.95,1.18,1.08,1.19,1.36a.51.51,0,0,1-.14.36c-.34.34-.63.21-3.15-1.14l-.28-.15,1.08,1c2.74,2.48,3,2.79,3,3.16a.55.55,0,0,1-.15.38c-.41.41-.74.24-4.38-2.36l-.16-.11.37.34c3,2.75,3.54,3.27,3.55,3.69a.57.57,0,0,1-.15.38c-.43.43-.77.23-4.63-2.6h0c2.94,2.66,3.43,3.17,3.44,3.59a.57.57,0,0,1-.15.38c-.4.4-.72.24-4.15-2.15,2.11,1.92,2.31,2.18,2.32,2.52a.55.55,0,0,1-.15.38A.48.48,0,0,1,52.76,42.58Z"/><path class="cls-10" d="M69.93,25.79a.48.48,0,0,1-.46-.35c-.21-.25-1-1-1.59-1.5C66.19,22.4,66,22.19,66,21.87a.52.52,0,0,1,.15-.37c.34-.34.62-.21,3.11,1.1l.11.06-.23-.21C67,20.55,66.85,20.34,66.84,20a.53.53,0,0,1,.15-.37c.3-.3.51-.23,2.67.69-.34-.33-.39-.44-.4-.63a.5.5,0,0,1,.14-.36.48.48,0,0,1,.78.16c.13.15.54.52.82.77,1,.88,1.1,1,1.11,1.28a.5.5,0,0,1-.14.36c-.3.3-.51.23-2.68-.69l-.19-.08.67.61C71.87,23.65,72,23.86,72,24.18a.53.53,0,0,1-.15.37c-.34.34-.62.21-3.11-1.1h0c1.46,1.33,1.64,1.53,1.64,1.83a.52.52,0,0,1-.15.37A.48.48,0,0,1,69.93,25.79Z"/><path class="cls-10" d="M36.81,37.46a.48.48,0,0,1-.47-.4c-.28-.37-1.61-1.58-2.6-2.47-2.68-2.42-2.91-2.7-2.92-3.07a.55.55,0,0,1,.15-.38c.41-.41.74-.24,4.36,2.33l.15.11-.36-.33c-3-2.73-3.51-3.24-3.52-3.66a.57.57,0,0,1,.15-.38c.43-.43.78-.23,4.67,2.64h0c-3-2.7-3.47-3.21-3.48-3.63a.57.57,0,0,1,.15-.38c.41-.41.74-.24,4.28,2.29-2.25-2-2.48-2.34-2.49-2.68a.55.55,0,0,1,.15-.38c.34-.34.63-.2,3.16,1.16a.51.51,0,0,1-.12-.33.51.51,0,0,1,.14-.36.48.48,0,0,1,.79.16c.14.16.59.56.89.83,1,.94,1.17,1.07,1.17,1.35a.51.51,0,0,1-.14.36c-.34.34-.63.21-3.17-1.16l-.27-.14,1,.94c2.72,2.46,3,2.77,3,3.14a.55.55,0,0,1-.15.38c-.41.41-.74.23-4.41-2.38l-.14-.1.32.29c3,2.75,3.53,3.26,3.54,3.68a.57.57,0,0,1-.15.38c-.43.43-.78.23-4.67-2.64,2.93,2.65,3.41,3.16,3.42,3.57a.57.57,0,0,1-.15.38c-.4.41-.73.24-4.23-2.24,2.19,2,2.39,2.26,2.4,2.6a.55.55,0,0,1-.15.38A.48.48,0,0,1,36.81,37.46Z"/><path class="cls-10" d="M50.26,21.94a.48.48,0,0,1-.46-.34c-.19-.22-.88-.85-1.36-1.28C46.95,19,46.79,18.8,46.79,18.5a.52.52,0,0,1,.15-.37c.31-.31.52-.23,2.73.74l.08,0C48.16,17.48,48,17.29,48,17a.52.52,0,0,1,.15-.37c.27-.27.49-.2,2.26.31l.07,0a.58.58,0,0,1-.2-.42.5.5,0,0,1,.14-.36.48.48,0,0,1,.68,0,.49.49,0,0,1,.09.13c.1.11.36.34.54.51.67.61.81.73.82,1a.5.5,0,0,1-.14.36c-.27.27-.49.2-2.26-.31L50,17.8l.44.4c1.59,1.44,1.76,1.62,1.76,1.93a.52.52,0,0,1-.15.37c-.31.31-.52.23-2.73-.74l-.06,0c1.37,1.24,1.52,1.41,1.52,1.7a.52.52,0,0,1-.15.37A.48.48,0,0,1,50.26,21.94Zm.94-5.28a.48.48,0,0,1-.12.19A.47.47,0,0,0,51.2,16.66Z"/><path class="cls-10" d="M86.83,63.21c-.32,0-.93-.37-2.73-1.51.63.59.72.74.73.94a.45.45,0,0,1-.12.31.41.41,0,0,1-.68-.18c-.18-.21-.85-.82-1.35-1.28-1.44-1.3-1.6-1.48-1.61-1.75a.45.45,0,0,1,.12-.31c.32-.32.53-.22,3.19,1.47l.24.15-.78-.7c-2.49-2.25-2.86-2.64-2.87-3a.48.48,0,0,1,.13-.33c.35-.35.6-.25,4.05,2.33l.13.1L85,59.2c-2.82-2.56-3.29-3-3.3-3.41a.49.49,0,0,1,.13-.33c.37-.37.62-.25,4.24,2.52-2.71-2.46-3.16-2.92-3.17-3.29a.49.49,0,0,1,.13-.33c.36-.36.65-.2,3.82,2.13-1.93-1.76-2.24-2.1-2.25-2.42a.47.47,0,0,1,.13-.32c.3-.3.56-.17,2.8,1.1a.44.44,0,0,1,0-.57.41.41,0,0,1,.67.14c.13.14.53.5.8.75.92.83,1,1,1,1.19a.43.43,0,0,1-.12.31c-.3.3-.56.17-2.81-1.1l-.26-.15,1,.9c2.36,2.13,2.71,2.51,2.72,2.85a.47.47,0,0,1-.13.32c-.36.36-.66.2-4-2.24l-.16-.11.36.32C89.5,60,90,60.46,90,60.83a.49.49,0,0,1-.13.33c-.37.37-.63.25-4.25-2.53h0c2.8,2.53,3.26,3,3.27,3.39a.49.49,0,0,1-.13.33c-.35.35-.6.25-3.93-2.24,2.13,1.94,2.47,2.3,2.48,2.64a.48.48,0,0,1-.13.33A.39.39,0,0,1,86.83,63.21Z"/><path class="cls-10" d="M73.88,64.77c-.32,0-.93-.37-2.73-1.51.63.59.72.74.73.94a.45.45,0,0,1-.12.31.41.41,0,0,1-.68-.18c-.18-.21-.85-.82-1.35-1.28-1.44-1.3-1.6-1.48-1.61-1.75a.45.45,0,0,1,.12-.31c.32-.32.53-.22,3.19,1.47l.24.15-.78-.7c-2.49-2.25-2.86-2.64-2.87-3a.48.48,0,0,1,.13-.33c.35-.35.6-.25,4.05,2.33l.13.1L72,60.77c-2.82-2.56-3.29-3-3.3-3.41a.49.49,0,0,1,.13-.33c.37-.37.62-.25,4.24,2.52-2.71-2.46-3.16-2.92-3.17-3.29a.49.49,0,0,1,.13-.33c.36-.36.65-.2,3.82,2.13C72,56.3,71.66,56,71.65,55.64a.47.47,0,0,1,.13-.32c.3-.3.56-.17,2.8,1.1a.44.44,0,0,1,0-.57.41.41,0,0,1,.67.14c.13.14.53.5.8.75.92.83,1,1,1,1.19a.43.43,0,0,1-.12.31c-.3.3-.56.17-2.81-1.1L73.93,57l1,.9c2.36,2.13,2.71,2.51,2.72,2.85a.47.47,0,0,1-.13.32c-.36.36-.66.2-4-2.24l-.16-.11.36.32C76.55,61.55,77,62,77,62.4a.49.49,0,0,1-.13.33c-.37.37-.63.25-4.25-2.53h0c2.8,2.53,3.26,3,3.27,3.39a.49.49,0,0,1-.13.33c-.35.35-.6.25-3.93-2.24C74,63.6,74.29,64,74.3,64.31a.48.48,0,0,1-.13.33A.39.39,0,0,1,73.88,64.77Z"/><path class="cls-10" d="M63.92,56a.48.48,0,0,1-.47-.4c-.27-.36-1.56-1.53-2.51-2.39-2.59-2.35-2.82-2.62-2.83-3a.55.55,0,0,1,.15-.38c.4-.4.72-.24,4.27,2.24l.18.13-.46-.41c-3-2.71-3.49-3.22-3.5-3.64a.57.57,0,0,1,.15-.38c.43-.43.77-.23,4.63,2.6l0,0h0c-3-2.75-3.54-3.27-3.55-3.69a.57.57,0,0,1,.15-.38c.41-.41.73-.24,4.28,2.28-2.34-2.12-2.57-2.42-2.58-2.77a.55.55,0,0,1,.15-.38c.34-.34.63-.21,3.13,1.13a.54.54,0,0,1-.15-.36.51.51,0,0,1,.14-.36.48.48,0,0,1,.79.16c.14.16.59.57.9.85,1,.95,1.18,1.08,1.19,1.36a.51.51,0,0,1-.14.36c-.34.34-.63.21-3.15-1.14l-.27-.15,1.08,1c2.74,2.48,3,2.79,3,3.16a.55.55,0,0,1-.15.38c-.41.41-.74.24-4.38-2.36l-.16-.11.37.34c3,2.75,3.54,3.27,3.55,3.69a.57.57,0,0,1-.15.38c-.43.43-.77.23-4.63-2.6h0c2.94,2.66,3.43,3.17,3.44,3.59a.57.57,0,0,1-.15.38c-.4.4-.72.24-4.15-2.16,2.11,1.92,2.31,2.18,2.32,2.52a.55.55,0,0,1-.15.38A.48.48,0,0,1,63.92,56Z"/><path class="cls-10" d="M42.39,56a.48.48,0,0,1-.47-.4c-.27-.36-1.56-1.53-2.51-2.39-2.59-2.35-2.82-2.62-2.83-3a.55.55,0,0,1,.15-.38c.4-.4.72-.24,4.27,2.24l.18.13-.46-.41c-3-2.71-3.49-3.22-3.5-3.64a.57.57,0,0,1,.15-.38c.43-.43.77-.23,4.63,2.6l0,0h0c-3-2.75-3.54-3.27-3.55-3.69a.57.57,0,0,1,.15-.38c.41-.41.73-.24,4.28,2.28-2.34-2.12-2.57-2.42-2.58-2.77a.55.55,0,0,1,.15-.38c.34-.34.63-.21,3.13,1.13a.54.54,0,0,1-.15-.36.51.51,0,0,1,.14-.36.48.48,0,0,1,.79.16c.14.16.59.57.9.85,1,.95,1.18,1.08,1.19,1.36a.51.51,0,0,1-.14.36c-.34.34-.63.21-3.15-1.14l-.27-.15,1.08,1c2.74,2.48,3,2.79,3,3.16a.55.55,0,0,1-.15.38c-.41.41-.74.24-4.38-2.36l-.16-.11.37.34c3,2.75,3.54,3.27,3.55,3.69a.57.57,0,0,1-.15.38c-.43.43-.77.23-4.63-2.6h0c2.94,2.66,3.43,3.17,3.44,3.59a.57.57,0,0,1-.15.38c-.4.4-.72.24-4.15-2.16,2.11,1.92,2.31,2.18,2.32,2.52a.55.55,0,0,1-.15.38A.48.48,0,0,1,42.39,56Z"/><path class="cls-10" d="M71.19,44.29a.48.48,0,0,1-.47-.4c-.27-.36-1.56-1.53-2.51-2.39-2.59-2.35-2.82-2.62-2.83-3a.55.55,0,0,1,.15-.38c.4-.4.72-.24,4.27,2.24l.18.13-.46-.41c-3-2.71-3.49-3.22-3.5-3.64a.57.57,0,0,1,.15-.38c.43-.43.77-.23,4.63,2.6l0,0h0c-3-2.75-3.54-3.27-3.55-3.69a.57.57,0,0,1,.15-.38c.41-.41.73-.24,4.28,2.28-2.34-2.12-2.57-2.42-2.58-2.77a.55.55,0,0,1,.15-.38c.34-.34.63-.21,3.13,1.13a.54.54,0,0,1-.15-.36.51.51,0,0,1,.14-.36.48.48,0,0,1,.79.16c.14.16.59.57.9.85,1,.95,1.18,1.08,1.19,1.36a.51.51,0,0,1-.14.36c-.34.34-.63.21-3.15-1.14l-.27-.15,1.08,1c2.74,2.48,3,2.79,3,3.16a.55.55,0,0,1-.15.38c-.41.41-.74.24-4.38-2.36l-.16-.11.37.34c3,2.75,3.54,3.27,3.55,3.69a.57.57,0,0,1-.15.38c-.43.43-.77.23-4.63-2.6h0c2.94,2.66,3.43,3.17,3.44,3.59a.57.57,0,0,1-.15.38c-.4.4-.72.24-4.15-2.16,2.11,1.92,2.31,2.18,2.32,2.52a.55.55,0,0,1-.15.38A.48.48,0,0,1,71.19,44.29Z"/><path class="cls-10" d="M36.3,68.42a.43.43,0,0,1-.42-.36c-.25-.33-1.43-1.4-2.31-2.19C31.2,63.73,31,63.47,31,63.15a.49.49,0,0,1,.13-.34c.36-.36.65-.21,3.86,2.07l.14.1-.32-.29c-2.67-2.42-3.11-2.87-3.12-3.24a.5.5,0,0,1,.13-.34c.38-.38.69-.2,4.14,2.34h0c-2.64-2.39-3.08-2.85-3.09-3.22A.5.5,0,0,1,33,59.9c.36-.36.65-.21,3.8,2-2-1.82-2.2-2.08-2.21-2.38a.49.49,0,0,1,.13-.34c.3-.3.56-.18,2.8,1a.45.45,0,0,1-.11-.29.45.45,0,0,1,.13-.32.43.43,0,0,1,.7.14c.13.14.52.5.79.74.92.83,1,.95,1,1.19A.45.45,0,0,1,40,62c-.3.3-.56.18-2.81-1l-.24-.13.92.83c2.41,2.18,2.64,2.46,2.65,2.78a.49.49,0,0,1-.13.34c-.37.37-.66.21-3.91-2.11l-.13-.09.29.26c2.69,2.43,3.13,2.89,3.14,3.26a.5.5,0,0,1-.13.34c-.38.38-.69.21-4.14-2.34,2.59,2.35,3,2.8,3,3.17a.5.5,0,0,1-.13.34c-.36.36-.65.21-3.75-2,1.94,1.76,2.12,2,2.13,2.3a.49.49,0,0,1-.13.34A.42.42,0,0,1,36.3,68.42Z"/><path class="cls-10" d="M100.34,85.94c-.37,0-1.1-.43-3.22-1.78.74.69.85.87.85,1.1a.52.52,0,0,1-.15.37.48.48,0,0,1-.8-.21c-.21-.25-1-1-1.59-1.5-1.69-1.53-1.89-1.74-1.89-2.06a.52.52,0,0,1,.15-.37c.37-.37.62-.26,3.75,1.73l.28.18-.91-.83c-2.93-2.65-3.37-3.11-3.38-3.52a.56.56,0,0,1,.15-.38c.42-.42.71-.29,4.77,2.74l.15.11-.33-.3c-3.32-3-3.87-3.57-3.88-4a.58.58,0,0,1,.15-.39c.43-.43.74-.29,5,3-3.19-2.89-3.72-3.44-3.73-3.88a.58.58,0,0,1,.15-.39c.42-.42.77-.24,4.49,2.51-2.27-2.07-2.63-2.47-2.64-2.84a.56.56,0,0,1,.15-.38c.35-.35.66-.2,3.3,1.29a.51.51,0,0,1,0-.68.48.48,0,0,1,.79.17c.15.17.62.59.94.89,1.08,1,1.22,1.12,1.23,1.4a.51.51,0,0,1-.14.36c-.36.35-.66.2-3.31-1.3l-.3-.17,1.16,1.06c2.78,2.51,3.19,2.95,3.2,3.35a.56.56,0,0,1-.15.38c-.43.43-.78.23-4.66-2.63l-.18-.14.42.38c3.29,3,3.82,3.53,3.83,4a.58.58,0,0,1-.15.39c-.43.43-.74.29-5-3h0c3.29,3,3.83,3.54,3.84,4a.58.58,0,0,1-.15.39c-.43.43-.78.23-4.63-2.63,2.51,2.28,2.9,2.71,2.91,3.1a.56.56,0,0,1-.15.38A.46.46,0,0,1,100.34,85.94Z"/><path class="cls-10" d="M86.55,90.58a.48.48,0,0,1-.47-.4c-.27-.36-1.56-1.53-2.51-2.39-2.59-2.35-2.82-2.62-2.83-3a.55.55,0,0,1,.15-.38c.4-.4.72-.24,4.27,2.24l.18.13-.46-.41c-3-2.71-3.49-3.22-3.5-3.64a.57.57,0,0,1,.15-.38c.43-.43.77-.23,4.63,2.6l0,0h0c-3-2.75-3.54-3.27-3.55-3.69a.57.57,0,0,1,.15-.38c.41-.41.73-.24,4.28,2.28-2.34-2.12-2.57-2.42-2.58-2.77a.55.55,0,0,1,.15-.38c.34-.34.63-.21,3.13,1.13a.54.54,0,0,1-.15-.36.51.51,0,0,1,.14-.36.48.48,0,0,1,.79.16c.14.16.59.57.9.85,1,.95,1.18,1.08,1.19,1.36a.51.51,0,0,1-.14.36c-.34.34-.63.21-3.15-1.14l-.28-.15,1.08,1c2.74,2.48,3,2.79,3,3.16a.55.55,0,0,1-.15.38c-.41.41-.74.24-4.38-2.36l-.16-.11.37.34c3,2.75,3.54,3.27,3.55,3.69a.57.57,0,0,1-.15.38c-.43.43-.77.23-4.63-2.6h0C88.52,88.39,89,88.9,89,89.32a.57.57,0,0,1-.15.38c-.4.4-.72.24-4.15-2.15C86.83,89.47,87,89.73,87,90.06a.55.55,0,0,1-.15.38A.48.48,0,0,1,86.55,90.58Z"/><path class="cls-10" d="M103.72,73.79a.48.48,0,0,1-.46-.35c-.21-.25-1-1-1.59-1.5-1.69-1.53-1.89-1.74-1.9-2.06a.52.52,0,0,1,.15-.37c.34-.34.62-.21,3.11,1.1l.11.06-.23-.21c-2.11-1.91-2.28-2.12-2.28-2.44a.53.53,0,0,1,.15-.37c.3-.3.51-.23,2.67.69-.34-.33-.39-.44-.4-.63a.5.5,0,0,1,.14-.36.48.48,0,0,1,.78.16c.13.15.54.52.82.77,1,.88,1.1,1,1.11,1.28a.5.5,0,0,1-.14.36c-.3.3-.51.23-2.68-.69l-.19-.08.67.61c2.11,1.91,2.28,2.12,2.28,2.44a.53.53,0,0,1-.15.37c-.34.34-.62.21-3.11-1.1h0c1.46,1.33,1.64,1.53,1.64,1.83a.52.52,0,0,1-.15.37A.48.48,0,0,1,103.72,73.79Z"/><path class="cls-10" d="M93.21,127.64a.48.48,0,0,1-.43-.27c-.09-.1-.33-.31-.5-.46-.63-.57-.76-.69-.77-.94a.5.5,0,0,1,.14-.36c.24-.24.45-.2,2.05.13l.18,0-.35-.32c-1.38-1.25-1.52-1.4-1.53-1.7a.51.51,0,0,1,.15-.36c.28-.28.48-.22,2.5.52l.09,0c-1.32-1.2-1.46-1.35-1.47-1.64a.51.51,0,0,1,.14-.36c.23-.23.43-.2,2,.08l.11,0a.55.55,0,0,1-.19-.4.49.49,0,0,1,.14-.36.48.48,0,0,1,.68,0,.47.47,0,0,1,.09.12l.44.41c.58.52.7.63.7.88a.49.49,0,0,1-.14.36c-.23.23-.44.2-2-.08l-.19,0,.38.35c1.37,1.24,1.51,1.4,1.52,1.69a.51.51,0,0,1-.14.36c-.28.28-.48.22-2.5-.52l-.09,0c1.33,1.21,1.47,1.37,1.48,1.65a.51.51,0,0,1-.15.36c-.24.24-.45.2-2.05-.13l-.1,0c.21.21.26.32.27.48a.5.5,0,0,1-.14.36A.48.48,0,0,1,93.21,127.64Zm-.34-.82a.47.47,0,0,0-.12.22A.48.48,0,0,1,92.87,126.82Z"/><path class="cls-10" d="M115.2,119.5c-.37,0-1.1-.43-3.22-1.78.74.7.85.87.85,1.11a.52.52,0,0,1-.15.37.48.48,0,0,1-.8-.21c-.21-.25-1-1-1.59-1.5-1.69-1.53-1.89-1.74-1.89-2.06a.52.52,0,0,1,.15-.37c.37-.37.62-.26,3.75,1.73l.28.18-.91-.83c-2.93-2.65-3.37-3.11-3.38-3.52a.56.56,0,0,1,.15-.38c.42-.42.71-.29,4.77,2.74l.15.12-.33-.3c-3.32-3-3.87-3.57-3.88-4a.58.58,0,0,1,.15-.39c.43-.43.73-.29,5,3-3.19-2.89-3.72-3.44-3.73-3.88a.58.58,0,0,1,.15-.39c.42-.42.77-.24,4.49,2.51-2.27-2.06-2.63-2.47-2.64-2.84a.56.56,0,0,1,.15-.38c.35-.35.66-.2,3.3,1.29a.51.51,0,0,1,0-.68.48.48,0,0,1,.79.17c.15.17.62.59.94.89,1.08,1,1.22,1.12,1.23,1.4a.51.51,0,0,1-.14.36c-.35.35-.66.2-3.31-1.3l-.3-.17,1.16,1.06c2.77,2.51,3.19,2.95,3.2,3.35a.56.56,0,0,1-.15.38c-.43.43-.78.23-4.66-2.63l-.18-.14.42.38c3.29,3,3.82,3.53,3.84,4a.58.58,0,0,1-.15.39c-.43.43-.74.29-5-3h0c3.29,3,3.83,3.54,3.84,4a.58.58,0,0,1-.15.39c-.41.41-.7.29-4.63-2.63,2.51,2.28,2.9,2.71,2.91,3.1a.56.56,0,0,1-.15.38A.46.46,0,0,1,115.2,119.5Z"/><path class="cls-10" d="M101.41,124.14a.48.48,0,0,1-.47-.4c-.27-.36-1.56-1.53-2.51-2.39-2.59-2.35-2.82-2.62-2.83-3a.55.55,0,0,1,.15-.38c.4-.4.72-.24,4.27,2.24l.18.13-.46-.41c-3-2.71-3.49-3.22-3.5-3.64a.57.57,0,0,1,.15-.38c.43-.43.77-.23,4.63,2.6l0,0h0c-3-2.75-3.54-3.27-3.55-3.69a.57.57,0,0,1,.15-.38c.41-.41.73-.24,4.28,2.28-2.34-2.12-2.57-2.42-2.58-2.77a.55.55,0,0,1,.15-.38c.34-.34.63-.21,3.13,1.13a.54.54,0,0,1-.15-.36.51.51,0,0,1,.14-.36.48.48,0,0,1,.79.16c.14.16.59.57.9.85,1,.95,1.18,1.08,1.19,1.36a.51.51,0,0,1-.14.36c-.34.34-.63.21-3.15-1.14l-.27-.15,1.08,1c2.74,2.48,3,2.79,3,3.16a.55.55,0,0,1-.15.38c-.41.41-.74.24-4.38-2.36l-.16-.11.37.34c3,2.75,3.54,3.27,3.55,3.69a.57.57,0,0,1-.15.38c-.43.43-.77.23-4.63-2.6h0c2.94,2.66,3.43,3.17,3.44,3.59a.57.57,0,0,1-.15.38c-.4.4-.72.24-4.15-2.16,2.11,1.92,2.31,2.18,2.32,2.52a.55.55,0,0,1-.15.38A.48.48,0,0,1,101.41,124.14Z"/><path class="cls-10" d="M118.58,107.35a.48.48,0,0,1-.46-.35c-.21-.25-1-1-1.59-1.5-1.69-1.53-1.89-1.74-1.9-2.06a.52.52,0,0,1,.15-.37c.34-.34.62-.21,3.11,1.1l.11.06-.23-.21c-2.11-1.91-2.28-2.12-2.28-2.44a.53.53,0,0,1,.15-.37c.3-.3.51-.22,2.67.69-.34-.33-.4-.45-.4-.63a.5.5,0,0,1,.14-.36.48.48,0,0,1,.78.16c.13.15.54.52.82.77,1,.88,1.1,1,1.11,1.28a.5.5,0,0,1-.14.36c-.3.3-.51.23-2.68-.69l-.19-.08.67.61c2.11,1.91,2.28,2.12,2.28,2.44a.53.53,0,0,1-.15.37c-.34.34-.62.21-3.11-1.1h0c1.46,1.33,1.64,1.53,1.64,1.83a.52.52,0,0,1-.15.37A.48.48,0,0,1,118.58,107.35Z"/><path class="cls-10" d="M99,111a.48.48,0,0,1-.45-.32c-.17-.2-.75-.72-1.14-1.08-1.31-1.18-1.43-1.32-1.44-1.61a.51.51,0,0,1,.14-.36c.31-.31.53-.23,2.78.79l.07,0c-1.55-1.4-1.71-1.58-1.72-1.89a.52.52,0,0,1,.15-.37c.29-.29.54-.2,2.47.49l0,0a.54.54,0,0,1-.16-.38.5.5,0,0,1,.14-.36.48.48,0,0,1,.77.14c.11.12.4.38.6.56.74.67.87.79.88,1.05a.5.5,0,0,1-.14.36c-.29.29-.53.2-2.47-.49l-.14-.05.27.24c1.59,1.44,1.76,1.62,1.77,1.93a.52.52,0,0,1-.15.37c-.31.31-.53.23-2.78-.79h0c.9.82,1,1,1,1.21a.51.51,0,0,1-.14.36A.48.48,0,0,1,99,111Z"/><path class="cls-10" d="M85.46,119a.48.48,0,0,1-.47-.4c-.28-.37-1.61-1.58-2.6-2.47-2.68-2.42-2.91-2.7-2.92-3.07a.55.55,0,0,1,.15-.38c.41-.41.74-.24,4.36,2.33l.15.11-.36-.33c-3-2.73-3.51-3.24-3.52-3.66a.57.57,0,0,1,.15-.38c.43-.43.78-.23,4.67,2.64h0c-3-2.7-3.47-3.21-3.48-3.63a.57.57,0,0,1,.15-.38c.41-.41.74-.24,4.28,2.29-2.25-2-2.48-2.34-2.49-2.68a.55.55,0,0,1,.15-.38c.34-.34.63-.21,3.16,1.16a.51.51,0,0,1-.12-.33.51.51,0,0,1,.14-.36.48.48,0,0,1,.79.16c.14.16.59.56.89.83,1,.94,1.17,1.07,1.17,1.35a.51.51,0,0,1-.14.36c-.34.34-.63.2-3.17-1.16l-.27-.14,1,.94c2.72,2.46,3,2.77,3,3.14A.55.55,0,0,1,90,115c-.41.41-.74.23-4.41-2.38l-.14-.1.32.29c3,2.75,3.53,3.26,3.54,3.68a.57.57,0,0,1-.15.38c-.43.43-.78.23-4.67-2.64,2.93,2.65,3.41,3.16,3.42,3.57a.57.57,0,0,1-.15.38c-.41.41-.73.24-4.23-2.24,2.19,2,2.39,2.26,2.4,2.6a.55.55,0,0,1-.15.38A.48.48,0,0,1,85.46,119Z"/><path class="cls-10" d="M98.9,103.5a.48.48,0,0,1-.46-.34c-.19-.22-.89-.85-1.36-1.28-1.49-1.35-1.65-1.52-1.66-1.82a.52.52,0,0,1,.15-.37c.31-.31.52-.23,2.73.74l.08,0c-1.59-1.44-1.75-1.62-1.76-1.93a.52.52,0,0,1,.15-.37c.27-.27.49-.2,2.26.31l.07,0a.58.58,0,0,1-.2-.42.5.5,0,0,1,.14-.36.48.48,0,0,1,.68,0,.49.49,0,0,1,.09.13c.1.11.36.34.54.51.67.61.81.73.81,1a.5.5,0,0,1-.14.36c-.27.27-.49.2-2.26-.31l-.18-.05.44.4c1.59,1.44,1.76,1.62,1.76,1.93a.52.52,0,0,1-.15.37c-.31.31-.52.23-2.73-.74l-.06,0c1.37,1.24,1.52,1.41,1.52,1.7a.52.52,0,0,1-.15.37A.48.48,0,0,1,98.9,103.5Zm.94-5.28a.48.48,0,0,1-.12.19A.47.47,0,0,0,99.85,98.22Z"/></g></g><polygon class="cls-6" points="61.99 37.44 60.48 28.08 63.31 28.08 61.99 37.44"/><rect class="cls-11" x="50.58" y="125.68" width="9.36" height="5.04"/><rect class="cls-11" x="64.55" y="125.68" width="9.36" height="5.04"/><rect class="cls-11" x="79.33" y="71.3" width="6.45" height="5.04"/><rect class="cls-11" x="37.91" y="71.3" width="6.45" height="5.04"/><g class="cls-12"><g class="cls-13"><polygon class="cls-5" points="38.34 30.09 38.49 71.3 38.05 71.3 38.05 76.34 39.21 76.34 39.2 84.06 43.34 84.06 43.34 76.34 44.5 76.34 44.5 71.3 44.2 71.3 45.52 30.09 38.34 30.09"/><path class="cls-5" d="M62,23.11a11.48,11.48,0,0,0,11.4-11.56,11.41,11.41,0,1,0-22.81,0A11.48,11.48,0,0,0,62,23.11Z"/><path class="cls-5" d="M71.2,28.08h-.45a3.12,3.12,0,0,0-3-2.17L63.56,26v2.07h-3V26.67a.66.66,0,0,0-.66-.66H56.47a3.29,3.29,0,0,0-3,2.06h-.35l-4.95,1V67.31l3.61,58.36h-1.1v5h1.29l.22,14H58l.44-14H60v-5H58.7l2.87-48.62h.9l3.6,48.63H64.62v5h1.82l.43,14h5.84l.22-14h1v-5h-.92l2.66-56.95.13,0-.12-39.61Z"/><polygon class="cls-5" points="85.36 71.3 85.64 29.96 78.47 29.96 79.64 71.3 79.33 71.3 79.33 76.34 79.78 76.34 80.53 76.34 80.53 84.33 84.57 84.33 84.57 76.34 85.33 76.34 85.78 76.34 85.78 71.3 85.36 71.3"/></g></g></g></g></g></svg>