<svg xmlns="http://www.w3.org/2000/svg" xmlns:xlink="http://www.w3.org/1999/xlink" viewBox="0 0 153.57 184.56"><defs><style>.cls-1,.cls-5{fill:none;}.cls-2{isolation:isolate;}.cls-3{fill:#999;fill-opacity:0.39;mix-blend-mode:multiply;}.cls-4{fill:#f7ed38;}.cls-5{stroke:#f7ed38;stroke-miterlimit:10;stroke-width:0.6px;}.cls-6{fill:#cd6632;}.cls-7{clip-path:url(#clip-path);}</style><clipPath id="clip-path"><path class="cls-1" d="M95.79,90.55l29.76.25,9.33-75.67h-7.31S124,92,95.79,90.55Z"/></clipPath></defs><title>Asset 54</title><g class="cls-2"><g id="Layer_2" data-name="Layer 2"><g id="Layer_1-2" data-name="Layer 1"><polygon class="cls-3" points="48.44 145.67 0 145.67 60.29 184.56 109.23 184.56 48.44 145.67"/><rect class="cls-4" x="102.45" y="133.18" width="6.56" height="51.38"/><rect class="cls-4" x="60.07" y="131.92" width="6.56" height="52.64"/><path class="cls-5" d="M56.45,112.5s-11.85,13.37-5,39.86"/><polygon class="cls-4" points="128.85 12.13 152.31 12.86 153.57 8.82 141.71 3.68 135.15 0 129.1 3.31 128.85 12.13"/><polygon class="cls-4" points="59.73 106.95 93.28 94.84 124.3 94.84 113.45 128.89 60.73 127.63 59.73 106.95"/><path class="cls-6" d="M122.92,99.88c.33-1.58.65-3.16,1-4.74a4.26,4.26,0,0,1,.18-.62h-5A9.51,9.51,0,0,0,116.4,101a10.23,10.23,0,0,0,6-.09Z"/><path class="cls-6" d="M113.8,109.72s.12-8.75-8.75-8.37c0,0-4.24.88-4.12,4.25a5,5,0,0,0,4.25,3.5C108.8,109.72,110.55,110.72,113.8,109.72Z"/><path class="cls-6" d="M146.3,12.06,146,12c-3.48-1.17-5.06-2.42-8.42-1.92a10.43,10.43,0,0,0-.06,2Z"/><path class="cls-6" d="M66.62,113.8a8,8,0,0,0-6.34,2.14c.05,2.21.21,4.42.35,6.63,1.79,0,3.4-.6,5.86-1a5,5,0,0,0,4.25-3.5C70.87,114.67,66.62,113.8,66.62,113.8Z"/><path class="cls-6" d="M83,128.21a4.71,4.71,0,0,0,2.21-2.77c.12-3.37-4.12-4.25-4.12-4.25-6.66-.28-9.47,4.25-9.85,6.69Z"/><path class="cls-6" d="M102.52,172.47v6.93a4.8,4.8,0,0,0,2.87-3.1A4.12,4.12,0,0,0,102.52,172.47Z"/><path class="cls-6" d="M96.24,94.69h0a39.69,39.69,0,0,0-5,.68c-1.33.53-2.65,1.07-4,1.52.75,2.74,3.36,5.43,5.54,5a6.29,6.29,0,0,0,5.1-4.65,4.83,4.83,0,0,0-.61-2.6Z"/><path class="cls-6" d="M79.67,99.48a4,4,0,0,1-.66.3c-4.78,1.67-9.58,3.27-14.23,5.25,1.26,4.16,5.67,8.26,9.33,7.63,7.31-1.26,8.58-7.06,8.58-7.06A7.18,7.18,0,0,0,79.67,99.48Z"/><path class="cls-6" d="M115,125.08a40.23,40.23,0,0,1,2-6.59,12.83,12.83,0,0,0-1.67-.5c-11-.47-11.34,6.07-8.23,10.85h6.75A31.73,31.73,0,0,0,115,125.08Z"/><path class="cls-6" d="M109,142.24a14.44,14.44,0,0,0-6.49,1V155c1.88,2,4.32,3.26,6.48,2.89h0Z"/><path class="cls-6" d="M60.14,159.56v10.6a9.24,9.24,0,0,0,3-4.54A7.17,7.17,0,0,0,60.14,159.56Z"/><path class="cls-6" d="M93.68,112.23s4.79,1.08,4.64,5.27a5.89,5.89,0,0,1-4.79,4.35C89.46,122.62,83.69,111.76,93.68,112.23Z"/><path class="cls-6" d="M66.76,137.77c-8.61.06-3.91,9.47,0,9.66Z"/><path class="cls-6" d="M131.83,1.86c1.07,1.31,2.49,2.18,3.75,1.94a6,6,0,0,0,3.72-2.19C136.8-.05,134.56.44,131.83,1.86Z"/><g class="cls-7"><path class="cls-4" d="M95.8,90.81l29.76.25,9.33-75.67h-7.31S124,92.31,95.8,90.81Z"/><path class="cls-6" d="M130.16,59c.21-2.27.42-4.55.66-6.81a4.85,4.85,0,0,1,.19-.92v0c-3.92,2.24-3.86,7.34-3.86,7.34A8.69,8.69,0,0,0,130.16,59Z"/><path class="cls-6" d="M127.46,20.53a68.55,68.55,0,0,1-.8,9,6.8,6.8,0,0,0,3.61-4.23A5.33,5.33,0,0,0,127.46,20.53Z"/><path class="cls-6" d="M114.86,75.6c-1.5,2.88-4,5-6.14,7.58a10.3,10.3,0,0,0-1.08,1.71c1.46,1.52,3.34,2.51,5,2.22,5.7-1,6.68-5.5,6.68-5.5C119.47,78.23,116.81,76.45,114.86,75.6Z"/><path class="cls-6" d="M127.27,79.52c.59-2.05,1.07-4.13,1.53-6.22.09-.82.17-1.64.26-2.46V66.52C121,68.07,123,75.58,127.27,79.52Z"/><path class="cls-6" d="M127.84,37.55s3.21.73,3.11,3.54A3.94,3.94,0,0,1,127.74,44C125,44.52,121.14,37.24,127.84,37.55Z"/></g></g></g></g></svg>