<svg xmlns="http://www.w3.org/2000/svg" viewBox="0 0 430.62 648.23"><defs><style>.cls-1{fill:#c55354;}.cls-2{fill:#f16667;}</style></defs><title>Asset 4</title><g id="Layer_2" data-name="Layer 2"><g id="Layer_1-2" data-name="Layer 1"><g id="bByyVg"><path class="cls-1" d="M241.3,0c12.56,2.49,4.41,4.38,16.79,7.58,35.11,9.1,65.15,27.29,90.44,53.07C377.3,90,395.68,125,403.15,165.51q12.58,68.25-18.92,130.11c-59.1,115.94-156.37,352.6-156.37,352.6H204s-2.5-4.14-3.42-5.93C141.23,526,80.74,410.27,23,293.17-14.94,216.08-5.45,141.32,47.72,74c34-43,80.17-66.6,134.87-72.86A44.62,44.62,0,0,0,187.49,0Z"/></g><g id="bByyVg-2" data-name="bByyVg"><path class="cls-2" d="M244.31,0C256.87,2.49,269.59,4.38,282,7.58c35.11,9.1,65.15,27.29,90.44,53.07C401.19,90,419.56,125,427,165.51q12.58,68.25-18.92,130.11Q319.47,469.54,230.64,643.36c-.73,1.42-1.59,2.78-2.79,4.87-1.41-2.43-2.5-4.14-3.42-5.93C165.11,526,104.62,410.27,46.93,293.17,8.94,216.08,18.43,141.32,71.6,74c34-43,80.17-66.6,134.87-72.86A44.62,44.62,0,0,0,211.37,0Z"/></g></g></g></svg>