<svg xmlns="http://www.w3.org/2000/svg" xmlns:xlink="http://www.w3.org/1999/xlink" viewBox="0 0 92.39 163.76"><defs><style>.cls-1,.cls-9{fill:none;}.cls-2{isolation:isolate;}.cls-12,.cls-3{fill:#969696;}.cls-3{fill-opacity:0.39;}.cls-10,.cls-3{mix-blend-mode:multiply;}.cls-4{fill:#70c1e8;}.cls-5{fill:#caeaf8;}.cls-6{fill:#2f52a1;}.cls-7{fill:#c874ad;}.cls-8{fill:#c99ac6;}.cls-9{stroke:#c31e64;stroke-miterlimit:10;stroke-width:0.2px;}.cls-11{clip-path:url(#clip-path);}.cls-12{opacity:0.4;}</style><clipPath id="clip-path"><path class="cls-1" d="M39.44,36.9l6.93,0-.14,56.91H39.3Zm46.11,0-.13,56.91h6.84l.14-56.91Zm-19.91-7A12.31,12.31,0,1,0,53.52,17.61,12.23,12.23,0,0,0,65.64,29.94ZM49.53,72.11h0v9.37H82.62V77.55h0l.08-44.31-33.1-.07ZM81.38,86.23H78.49l-26.88-.34L54.34,95h.12l0,24h-.07v9.49h.05l-.05,26.13h.13v0h7.17v-3.87l0-22.27h.09V119h-.07l0-17.16s0,0,0,0h9.45l0,17.12h-.07v9.49h.05l-.05,26.18,7.3,0v-.06h0V151l0-22.56h.09V119h-.07l.05-24Z"/></clipPath></defs><title>Asset 46</title><g class="cls-2"><g id="Layer_2" data-name="Layer 2"><g id="Layer_1-2" data-name="Layer 1"><polygon class="cls-3" points="23.58 120.66 0 120.66 54.53 155.77 78.57 155.77 23.58 120.66"/><rect class="cls-4" x="14.2" y="62.13" width="56.91" height="6.92" transform="translate(-23.03 108.09) rotate(-89.87)"/><rect class="cls-4" x="60.57" y="62.29" width="56.91" height="6.6" transform="translate(23.21 154.45) rotate(-89.86)"/><rect class="cls-5" x="23.69" y="117.01" width="68.38" height="7.3" transform="translate(-62.91 178.27) rotate(-89.87)"/><rect class="cls-5" x="41.29" y="117.93" width="66.67" height="7.3" transform="matrix(0, -1, 1, 0, -47.09, 195.97)"/><ellipse class="cls-5" cx="65.49" cy="17.87" rx="12.31" ry="12.15" transform="translate(47.48 83.32) rotate(-89.88)"/><rect class="cls-4" x="43.78" y="39.04" width="44.31" height="33.1" transform="translate(10.21 121.42) rotate(-89.88)"/><g id="_1nqEL8" data-name="1nqEL8"><path class="cls-6" d="M63.56,12.82c.25,1.46.9,2,2.1,1.92s1.81-.69,1.81-1.94a3.13,3.13,0,0,0,3.27-.6A3.24,3.24,0,0,0,71.59,9a4.44,4.44,0,0,1,1.29,2.82,16.3,16.3,0,0,0,.46,3.08,6.83,6.83,0,0,1,.12,2.34,2.86,2.86,0,0,1-3,2.31H70a8.69,8.69,0,0,1,.22,1.6,9.15,9.15,0,0,1-.36,1.62c1.37,1.09.77,3.79-.84,4.55a9,9,0,0,1-4.61.63,6.76,6.76,0,0,1-2.52-.69c-1.41-.68-2.09-3.44-.64-4.58a2.93,2.93,0,0,1-.11-3.08c-.35,0-.68-.06-1-.12q-3.13-.61-2.6-3.82c.25-1.53.52-3.06.79-4.59a4.05,4.05,0,0,1,1.14-2.11,3.19,3.19,0,0,0,.87,3.28A3,3,0,0,0,63.56,12.82Zm2.08,9.58a21.21,21.21,0,0,0,2.31-.46c.69-.21.86-.71.57-1.39a6.62,6.62,0,0,0-2-2.66,1.44,1.44,0,0,0-2,0,6.91,6.91,0,0,0-2,2.64c-.39.83-.22,1.26.67,1.49S64.78,22.27,65.64,22.4ZM62,17.66a2.09,2.09,0,0,0,2.2-1.51c.18-.51.08-.91-.42-1a28.59,28.59,0,0,0-3.57-.62c-.62-.06-1.17.61-1.25,1.27a1.21,1.21,0,0,0,.92,1.44C60.56,17.41,61.28,17.51,62,17.66Zm8.47-3.28c-1,.21-2,.39-3,.63-.39.1-.76.32-.69.86a2.09,2.09,0,0,0,1.52,1.61,5.58,5.58,0,0,0,3.08-.36A1.2,1.2,0,0,0,72,15.51,1.59,1.59,0,0,0,70.46,14.38ZM65.5,24v0C65,24,64.52,24,64,24a5,5,0,0,0-1.3.12.78.78,0,0,0-.43.58c0,.16.25.37.43.51a.8.8,0,0,0,.44.09c1.29,0,2.57.09,3.86.09a5.35,5.35,0,0,0,1.39-.23.59.59,0,0,0,.35-.44.83.83,0,0,0-.31-.53.88.88,0,0,0-.53-.15C67.13,24,66.32,24,65.5,24Z"/><path class="cls-4" d="M65.64,22.4c-.86-.13-1.64-.19-2.38-.39s-1.07-.66-.67-1.49a6.91,6.91,0,0,1,2-2.64,1.44,1.44,0,0,1,2,0,6.62,6.62,0,0,1,2,2.66c.29.68.11,1.18-.57,1.39A21.21,21.21,0,0,1,65.64,22.4Z"/><path class="cls-4" d="M62,17.66c-.71-.15-1.43-.25-2.12-.45A1.21,1.21,0,0,1,59,15.77c.08-.66.63-1.33,1.25-1.27a28.59,28.59,0,0,1,3.57.62c.5.12.6.52.42,1A2.09,2.09,0,0,1,62,17.66Z"/><path class="cls-4" d="M70.46,14.38A1.59,1.59,0,0,1,72,15.51a1.2,1.2,0,0,1-.66,1.62,5.58,5.58,0,0,1-3.08.36,2.09,2.09,0,0,1-1.52-1.61c-.08-.54.29-.76.69-.86C68.45,14.77,69.46,14.58,70.46,14.38Z"/><path class="cls-4" d="M65.5,24c.81,0,1.62,0,2.43,0a.88.88,0,0,1,.53.15.83.83,0,0,1,.31.53.59.59,0,0,1-.35.44,5.35,5.35,0,0,1-1.39.23c-1.29,0-2.57-.05-3.86-.09a.8.8,0,0,1-.44-.09c-.18-.14-.45-.35-.43-.51a.78.78,0,0,1,.43-.58A5,5,0,0,1,64,24c.49,0,1,0,1.47.07Z"/></g><rect class="cls-6" x="49.33" y="72.34" width="33.11" height="9.37"/><path class="cls-6" d="M81.21,86.46l-2.89,8.85c-3.68,0-7.28,2.19-7.29,6.81H61.57c0-5.48-2.64-6.85-7.41-6.85l-2.73-9.15,26.88.34"/><ellipse class="cls-7" cx="57.47" cy="44.95" rx="1.47" ry="1.49"/><ellipse class="cls-7" cx="74.63" cy="44.95" rx="1.47" ry="1.49"/><rect class="cls-6" x="54.17" y="119.23" width="7.44" height="9.49"/><rect class="cls-6" x="70.91" y="119.23" width="7.44" height="9.49"/><rect class="cls-8" x="54.3" y="147.09" width="7.17" height="7.77"/><rect class="cls-8" x="71.04" y="147.09" width="7.17" height="7.77"/><rect class="cls-6" x="70.91" y="138.21" width="7.44" height="17.51"/><rect class="cls-6" x="54.17" y="138.21" width="7.44" height="17.51"/><line class="cls-9" x1="56.04" y1="149.03" x2="59.73" y2="149.03"/><line class="cls-9" x1="56.04" y1="146.97" x2="59.73" y2="146.97"/><line class="cls-9" x1="56.04" y1="144.91" x2="59.73" y2="144.91"/><line class="cls-9" x1="56.04" y1="142.84" x2="59.73" y2="142.84"/><line class="cls-9" x1="56.04" y1="140.78" x2="59.73" y2="140.78"/><line class="cls-9" x1="72.78" y1="149.03" x2="76.48" y2="149.03"/><line class="cls-9" x1="72.78" y1="146.97" x2="76.48" y2="146.97"/><line class="cls-9" x1="72.78" y1="144.91" x2="76.48" y2="144.91"/><line class="cls-9" x1="72.78" y1="142.84" x2="76.48" y2="142.84"/><line class="cls-9" x1="72.78" y1="140.78" x2="76.48" y2="140.78"/><g class="cls-10"><g class="cls-11"><rect class="cls-12" x="7.37" width="58.16" height="163.76"/></g></g></g></g></g></svg>