<svg xmlns="http://www.w3.org/2000/svg" xmlns:xlink="http://www.w3.org/1999/xlink" viewBox="0 0 124.19 155.32"><defs><style>.cls-1{fill:none;}.cls-2{isolation:isolate;}.cls-3{fill:#999;fill-opacity:0.39;}.cls-12,.cls-3{mix-blend-mode:multiply;}.cls-4{fill:#2c2f31;}.cls-5{fill:#75c5a4;}.cls-6{fill:#e5dfdc;}.cls-7{clip-path:url(#clip-path);}.cls-8{fill:#4e5d75;}.cls-9{fill:#ee6667;}.cls-10{opacity:0.45;mix-blend-mode:color-burn;fill:url(#linear-gradient);}.cls-11{clip-path:url(#clip-path-2);}.cls-12{opacity:0.4;}.cls-13{fill:#969696;}</style><clipPath id="clip-path" transform="translate(0 -1.32)"><path class="cls-1" d="M79.86,110.68l-27.51.06L50.14,29.07,81.71,29Zm-32-78.89h-5l.87,42.13H47.9Zm41.38-.35h-4.8l.09,42.39h4.24Z"/></clipPath><linearGradient id="linear-gradient" x1="45.21" y1="48.12" x2="112.37" y2="111.45" gradientUnits="userSpaceOnUse"><stop offset="0" stop-color="#fff"/><stop offset="0.48" stop-color="#9f58a3"/><stop offset="1" stop-color="#fff"/></linearGradient><clipPath id="clip-path-2" transform="translate(0 -1.32)"><polygon class="cls-1" points="42.19 146.4 66.45 146.34 66.33 0.63 42.06 0 42.19 146.4"/></clipPath></defs><title>Asset 23</title><g class="cls-2"><g id="Layer_2" data-name="Layer 2"><g id="Layer_1-2" data-name="Layer 1"><polygon class="cls-3" points="20.72 109.31 0 109.31 55.45 145.08 76.63 145.08 20.72 109.31"/><polygon class="cls-4" points="55.48 134.75 53.23 109.42 62.54 109.4 61.67 134.74 55.48 134.75"/><polygon class="cls-4" points="70.45 134.69 68.98 109.15 78.47 109.13 76.61 134.71 70.45 134.69"/><rect class="cls-5" x="55.49" y="136.06" width="6.17" height="10.33" transform="translate(-0.3 -1.19) rotate(-0.12)"/><rect class="cls-5" x="70.46" y="136.03" width="6.16" height="10.32" transform="translate(-0.3 -1.16) rotate(-0.12)"/><ellipse class="cls-5" cx="66.35" cy="13.07" rx="11.6" ry="11.75" transform="translate(-0.03 -1.18) rotate(-0.12)"/><polygon class="cls-5" points="47.92 79.01 43.68 79.02 43.72 30.48 47.82 30.47 47.92 79.01"/><polygon class="cls-5" points="88.64 78.67 84.5 78.68 84.4 30.13 89.1 30.12 88.64 78.67"/><polygon class="cls-6" points="79.86 109.37 52.35 109.42 50.14 27.76 81.72 27.69 79.86 109.37"/><polygon class="cls-6" points="47.91 72.6 43.67 72.61 42.8 30.48 47.82 30.47 47.91 72.6"/><polygon class="cls-6" points="88.72 72.51 84.49 72.52 84.39 30.13 89.19 30.12 88.72 72.51"/><g class="cls-7"><polygon class="cls-8" points="91.72 109.72 39.92 109.83 40.7 25.03 92.49 24.92 91.72 109.72"/><rect class="cls-9" x="40.88" y="110.93" width="51.8" height="1.65" transform="matrix(1, 0, 0, 1, -0.24, -1.18)"/><path class="cls-10" d="M50.92,108.77a3.14,3.14,0,1,1-3.14-3.14A3.14,3.14,0,0,1,50.92,108.77Zm10-3.14A3.14,3.14,0,1,0,64,108.77,3.14,3.14,0,0,0,60.9,105.63Zm13.13,0a3.14,3.14,0,1,0,3.14,3.14A3.14,3.14,0,0,0,74,105.63Zm13.13,0a3.14,3.14,0,1,0,3.14,3.14A3.14,3.14,0,0,0,87.16,105.63Zm13.13,0a3.14,3.14,0,1,0,3.14,3.14A3.14,3.14,0,0,0,100.28,105.63Zm13.13,0a3.14,3.14,0,1,0,3.14,3.14A3.14,3.14,0,0,0,113.41,105.63Zm-72-6.35a3.14,3.14,0,1,0,3.14,3.14A3.14,3.14,0,0,0,41.43,99.28Zm13.13,0a3.14,3.14,0,1,0,3.14,3.14A3.14,3.14,0,0,0,54.56,99.28Zm13.13,0a3.14,3.14,0,1,0,3.14,3.14A3.14,3.14,0,0,0,67.68,99.28Zm13.13,0A3.14,3.14,0,1,0,84,102.43,3.14,3.14,0,0,0,80.81,99.28Zm13.13,0a3.14,3.14,0,1,0,3.14,3.14A3.14,3.14,0,0,0,93.93,99.28Zm13.13,0a3.14,3.14,0,1,0,3.14,3.14A3.14,3.14,0,0,0,107.06,99.28Zm13.13,0a3.14,3.14,0,1,0,3.14,3.14A3.14,3.14,0,0,0,120.18,99.28Zm-85.1-6.35a3.14,3.14,0,1,0,3.14,3.14A3.14,3.14,0,0,0,35.09,92.94Zm13.13,0a3.14,3.14,0,1,0,3.14,3.14A3.14,3.14,0,0,0,48.21,92.94Zm13.13,0a3.14,3.14,0,1,0,3.14,3.14A3.14,3.14,0,0,0,61.34,92.94Zm13.13,0a3.14,3.14,0,1,0,3.14,3.14A3.14,3.14,0,0,0,74.46,92.94Zm13.13,0a3.14,3.14,0,1,0,3.14,3.14A3.14,3.14,0,0,0,87.59,92.94Zm13.13,0a3.14,3.14,0,1,0,3.14,3.14A3.14,3.14,0,0,0,100.71,92.94Zm13.13,0A3.14,3.14,0,1,0,117,96.08,3.14,3.14,0,0,0,113.84,92.94Zm-85.1-6.35a3.14,3.14,0,1,0,3.14,3.14A3.14,3.14,0,0,0,28.74,86.59Zm13.13,0A3.14,3.14,0,1,0,45,89.73,3.14,3.14,0,0,0,41.87,86.59Zm13.13,0a3.14,3.14,0,1,0,3.14,3.14A3.14,3.14,0,0,0,55,86.59Zm13.13,0a3.14,3.14,0,1,0,3.14,3.14A3.14,3.14,0,0,0,68.12,86.59Zm13.13,0a3.14,3.14,0,1,0,3.14,3.14A3.14,3.14,0,0,0,81.24,86.59Zm13.13,0a3.14,3.14,0,1,0,3.14,3.14A3.14,3.14,0,0,0,94.37,86.59Zm13.13,0a3.14,3.14,0,1,0,3.14,3.14A3.14,3.14,0,0,0,107.49,86.59Zm13.13,0a3.14,3.14,0,1,0,3.14,3.14A3.14,3.14,0,0,0,120.62,86.59ZM22.39,80.24a3.14,3.14,0,1,0,3.14,3.14A3.14,3.14,0,0,0,22.39,80.24Zm13.13,0a3.14,3.14,0,1,0,3.14,3.14A3.14,3.14,0,0,0,35.52,80.24Zm13.13,0a3.14,3.14,0,1,0,3.14,3.14A3.14,3.14,0,0,0,48.64,80.24Zm13.13,0a3.14,3.14,0,1,0,3.14,3.14A3.14,3.14,0,0,0,61.77,80.24Zm13.13,0A3.14,3.14,0,1,0,78,83.39,3.14,3.14,0,0,0,74.89,80.24Zm13.13,0a3.14,3.14,0,1,0,3.14,3.14A3.14,3.14,0,0,0,88,80.24Zm13.13,0a3.14,3.14,0,1,0,3.14,3.14A3.14,3.14,0,0,0,101.15,80.24Zm13.13,0a3.14,3.14,0,1,0,3.14,3.14A3.14,3.14,0,0,0,114.27,80.24ZM29.17,73.9A3.14,3.14,0,1,0,32.32,77,3.14,3.14,0,0,0,29.17,73.9Zm13.13,0A3.14,3.14,0,1,0,45.44,77,3.14,3.14,0,0,0,42.3,73.9Zm13.13,0A3.14,3.14,0,1,0,58.57,77,3.14,3.14,0,0,0,55.42,73.9Zm13.13,0A3.14,3.14,0,1,0,71.69,77,3.14,3.14,0,0,0,68.55,73.9Zm13.13,0A3.14,3.14,0,1,0,84.82,77,3.14,3.14,0,0,0,81.67,73.9Zm13.13,0A3.14,3.14,0,1,0,97.94,77,3.14,3.14,0,0,0,94.8,73.9Zm13.13,0A3.14,3.14,0,1,0,111.07,77,3.14,3.14,0,0,0,107.92,73.9Zm13.13,0A3.14,3.14,0,1,0,124.19,77,3.14,3.14,0,0,0,121,73.9ZM22.83,67.55A3.14,3.14,0,1,0,26,70.7,3.14,3.14,0,0,0,22.83,67.55Zm13.13,0A3.14,3.14,0,1,0,39.1,70.7,3.14,3.14,0,0,0,36,67.55Zm13.13,0a3.14,3.14,0,1,0,3.14,3.14A3.14,3.14,0,0,0,49.08,67.55Zm13.13,0a3.14,3.14,0,1,0,3.14,3.14A3.14,3.14,0,0,0,62.2,67.55Zm13.13,0a3.14,3.14,0,1,0,3.14,3.14A3.14,3.14,0,0,0,75.33,67.55Zm13.13,0A3.14,3.14,0,1,0,91.6,70.7,3.14,3.14,0,0,0,88.45,67.55Zm13.13,0a3.14,3.14,0,1,0,3.14,3.14A3.14,3.14,0,0,0,101.58,67.55Zm13.13,0a3.14,3.14,0,1,0,3.14,3.14A3.14,3.14,0,0,0,114.7,67.55ZM29.6,61.2a3.14,3.14,0,1,0,3.14,3.14A3.14,3.14,0,0,0,29.6,61.2Zm13.13,0a3.14,3.14,0,1,0,3.14,3.14A3.14,3.14,0,0,0,42.73,61.2Zm13.13,0A3.14,3.14,0,1,0,59,64.35,3.14,3.14,0,0,0,55.86,61.2ZM69,61.2a3.14,3.14,0,1,0,3.14,3.14A3.14,3.14,0,0,0,69,61.2Zm13.13,0a3.14,3.14,0,1,0,3.14,3.14A3.14,3.14,0,0,0,82.11,61.2Zm13.13,0a3.14,3.14,0,1,0,3.14,3.14A3.14,3.14,0,0,0,95.23,61.2Zm13.13,0a3.14,3.14,0,1,0,3.14,3.14A3.14,3.14,0,0,0,108.36,61.2Zm-85.1-6.35A3.14,3.14,0,1,0,26.4,58,3.14,3.14,0,0,0,23.26,54.86Zm13.13,0A3.14,3.14,0,1,0,39.53,58,3.14,3.14,0,0,0,36.38,54.86Zm13.13,0A3.14,3.14,0,1,0,52.65,58,3.14,3.14,0,0,0,49.51,54.86Zm13.13,0A3.14,3.14,0,1,0,65.78,58,3.14,3.14,0,0,0,62.63,54.86Zm13.13,0A3.14,3.14,0,1,0,78.9,58,3.14,3.14,0,0,0,75.76,54.86Zm13.13,0A3.14,3.14,0,1,0,92,58,3.14,3.14,0,0,0,88.88,54.86Zm13.13,0A3.14,3.14,0,1,0,105.15,58,3.14,3.14,0,0,0,102,54.86Zm13.13,0A3.14,3.14,0,1,0,118.28,58,3.14,3.14,0,0,0,115.13,54.86ZM16.91,48.51a3.14,3.14,0,1,0,3.14,3.14A3.14,3.14,0,0,0,16.91,48.51Zm13.13,0a3.14,3.14,0,1,0,3.14,3.14A3.14,3.14,0,0,0,30,48.51Zm13.13,0a3.14,3.14,0,1,0,3.14,3.14A3.14,3.14,0,0,0,43.16,48.51Zm13.13,0a3.14,3.14,0,1,0,3.14,3.14A3.14,3.14,0,0,0,56.29,48.51Zm13.13,0a3.14,3.14,0,1,0,3.14,3.14A3.14,3.14,0,0,0,69.41,48.51Zm13.13,0a3.14,3.14,0,1,0,3.14,3.14A3.14,3.14,0,0,0,82.54,48.51Zm13.13,0a3.14,3.14,0,1,0,3.14,3.14A3.14,3.14,0,0,0,95.66,48.51Zm13.13,0a3.14,3.14,0,1,0,3.14,3.14A3.14,3.14,0,0,0,108.79,48.51Zm-85.1-6.35a3.14,3.14,0,1,0,3.14,3.14A3.14,3.14,0,0,0,23.69,42.17Zm13.13,0A3.14,3.14,0,1,0,40,45.31,3.14,3.14,0,0,0,36.82,42.17Zm13.13,0a3.14,3.14,0,1,0,3.14,3.14A3.14,3.14,0,0,0,49.94,42.17Zm13.13,0a3.14,3.14,0,1,0,3.14,3.14A3.14,3.14,0,0,0,63.07,42.17Zm13.13,0a3.14,3.14,0,1,0,3.14,3.14A3.14,3.14,0,0,0,76.19,42.17Zm13.13,0a3.14,3.14,0,1,0,3.14,3.14A3.14,3.14,0,0,0,89.32,42.17Zm13.13,0a3.14,3.14,0,1,0,3.14,3.14A3.14,3.14,0,0,0,102.44,42.17Zm-85.1-6.35A3.14,3.14,0,1,0,20.49,39,3.14,3.14,0,0,0,17.34,35.82Zm13.13,0A3.14,3.14,0,1,0,33.61,39,3.14,3.14,0,0,0,30.47,35.82Zm13.13,0A3.14,3.14,0,1,0,46.74,39,3.14,3.14,0,0,0,43.59,35.82Zm13.13,0A3.14,3.14,0,1,0,59.86,39,3.14,3.14,0,0,0,56.72,35.82Zm13.13,0A3.14,3.14,0,1,0,73,39,3.14,3.14,0,0,0,69.85,35.82Zm13.13,0A3.14,3.14,0,1,0,86.11,39,3.14,3.14,0,0,0,83,35.82Zm13.13,0A3.14,3.14,0,1,0,99.24,39,3.14,3.14,0,0,0,96.1,35.82Zm-72-6.35a3.14,3.14,0,1,0,3.14,3.14A3.14,3.14,0,0,0,24.12,29.47Zm13.13,0a3.14,3.14,0,1,0,3.14,3.14A3.14,3.14,0,0,0,37.25,29.47Zm13.13,0a3.14,3.14,0,1,0,3.14,3.14A3.14,3.14,0,0,0,50.37,29.47Zm13.13,0a3.14,3.14,0,1,0,3.14,3.14A3.14,3.14,0,0,0,63.5,29.47Zm13.13,0a3.14,3.14,0,1,0,3.14,3.14A3.14,3.14,0,0,0,76.62,29.47Zm13.13,0a3.14,3.14,0,1,0,3.14,3.14A3.14,3.14,0,0,0,89.75,29.47Zm-72-6.35a3.14,3.14,0,1,0,3.14,3.14A3.14,3.14,0,0,0,17.78,23.13Zm13.13,0A3.14,3.14,0,1,0,34,26.27,3.14,3.14,0,0,0,30.9,23.13Zm13.13,0a3.14,3.14,0,1,0,3.14,3.14A3.14,3.14,0,0,0,44,23.13Zm13.13,0a3.14,3.14,0,1,0,3.14,3.14A3.14,3.14,0,0,0,57.15,23.13Zm13.13,0a3.14,3.14,0,1,0,3.14,3.14A3.14,3.14,0,0,0,70.28,23.13Zm13.13,0a3.14,3.14,0,1,0,3.14,3.14A3.14,3.14,0,0,0,83.4,23.13ZM24.56,16.78a3.14,3.14,0,1,0,3.14,3.14A3.14,3.14,0,0,0,24.56,16.78Zm13.13,0a3.14,3.14,0,1,0,3.14,3.14A3.14,3.14,0,0,0,37.68,16.78Zm13.13,0a3.14,3.14,0,1,0,3.14,3.14A3.14,3.14,0,0,0,50.81,16.78Zm13.13,0a3.14,3.14,0,1,0,3.14,3.14A3.14,3.14,0,0,0,63.93,16.78Zm13.13,0a3.14,3.14,0,1,0,3.14,3.14A3.14,3.14,0,0,0,77.06,16.78Z" transform="translate(0 -1.32)"/></g><path class="cls-5" d="M72.51,29a6.58,6.58,0,1,1-13.16,0Z" transform="translate(0 -1.32)"/><g class="cls-11"><g class="cls-12"><rect class="cls-13" x="70.38" y="146.3" width="6.16" height="10.33" transform="translate(-0.32 -1.16) rotate(-0.12)"/><ellipse class="cls-13" cx="66.35" cy="13.02" rx="11.47" ry="11.62" transform="translate(-0.03 -1.18) rotate(-0.12)"/><polygon class="cls-13" points="88.55 30.12 84.31 30.13 84.31 30.13 84.36 54.66 84.4 72.52 84.4 72.52 84.41 78.68 88.65 78.67 88.64 72.51 88.64 72.51 88.64 72.51 88.55 30.12 88.55 30.12"/><polygon class="cls-13" points="50.87 54.74 50.87 54.74 52.35 109.42 53.23 109.42 55.48 134.75 55.48 134.75 55.5 145.08 61.67 145.06 61.65 134.74 61.67 134.74 62.54 109.4 68.99 109.39 70.46 144.89 76.63 144.88 78.45 109.37 79.86 109.37 81.72 27.69 50.14 27.76 50.87 54.74"/><polygon class="cls-13" points="47.82 30.47 42.8 30.48 43.67 72.61 43.68 79.02 47.92 79.01 47.91 72.6 47.87 54.74 47.87 54.74 47.82 30.47"/></g></g></g></g></g></svg>