<svg xmlns="http://www.w3.org/2000/svg" xmlns:xlink="http://www.w3.org/1999/xlink" viewBox="0 0 93.17 150.24"><defs><style>.cls-1{fill:#fff;}.cls-10,.cls-2{fill:none;}.cls-3{isolation:isolate;}.cls-13,.cls-4{fill:#999;}.cls-4{fill-opacity:0.39;}.cls-12,.cls-4{mix-blend-mode:multiply;}.cls-5{fill:#74c7a5;}.cls-6{fill:#c33;}.cls-7{fill:#41434e;}.cls-8{fill:#53ade1;}.cls-9{clip-path:url(#clip-path);}.cls-10{stroke:#4170b7;stroke-miterlimit:10;stroke-width:0.25px;}.cls-11{clip-path:url(#clip-path-2);}.cls-12{opacity:0.4;}</style><clipPath id="clip-path"><polyline class="cls-1" points="61.47 29.04 63.44 52.89 62.8 72.69 51.48 72.67 51.35 75.97 79.36 76.01 79.36 72.72 68.55 72.72 67.07 52.89 69.05 29.2"/></clipPath><clipPath id="clip-path-2"><rect class="cls-2" x="38.59" width="26.66" height="150.24"/></clipPath></defs><title>Asset 13</title><g class="cls-3"><g id="Layer_2" data-name="Layer 2"><g id="Layer_1-2" data-name="Layer 1"><polygon class="cls-4" points="19.65 113.43 0 113.43 57.05 150.24 77.18 150.24 19.65 113.43"/><rect class="cls-5" x="60.05" y="57.07" width="55.6" height="5.74" transform="translate(27.7 147.65) rotate(-89.86)"/><rect class="cls-5" x="15.83" y="56.65" width="55.43" height="5.74" transform="translate(-16.07 102.92) rotate(-89.86)"/><rect class="cls-5" x="24.54" y="113.32" width="66.61" height="7.11" transform="translate(-59.16 174.45) rotate(-89.87)"/><rect class="cls-5" x="40.66" y="113.18" width="67" height="7.11" transform="translate(-42.72 190.66) rotate(-89.89)"/><ellipse class="cls-5" cx="65.25" cy="11.99" rx="11.99" ry="11.83" transform="translate(53.12 77.21) rotate(-89.88)"/><rect class="cls-6" x="43.93" y="34.82" width="43.5" height="32.24" transform="translate(14.6 116.51) rotate(-89.88)"/><polygon class="cls-6" points="47.32 79.19 40.04 79.17 40.14 31.22 47.42 31.23 47.32 79.19"/><rect class="cls-6" x="64.01" y="52.32" width="47.96" height="7.04" transform="translate(32.01 143.74) rotate(-89.91)"/><polygon class="cls-7" points="52.84 78.85 78.48 79.16 77.96 124.66 70.28 125.52 62.26 124.88 53.81 125.12 52.84 78.85"/><polygon class="cls-8" points="79.36 76.01 79.36 72.72 68.55 72.72 67.07 52.89 69.05 29.2 61.48 29.35 63.44 52.89 62.8 72.69 51.48 72.67 51.35 75.97 79.36 76.01"/><polyline class="cls-1" points="61.47 29.04 63.44 52.89 62.8 72.69 51.48 72.67 51.35 75.97 79.36 76.01 79.36 72.72 68.55 72.72 67.07 52.89 69.05 29.2"/><g class="cls-9"><line class="cls-10" x1="44.07" y1="27.34" x2="86.65" y2="27.34"/><path class="cls-10" d="M86.65,74.51"/><path class="cls-10" d="M44.07,74.51"/><line class="cls-10" x1="44.07" y1="76.32" x2="86.65" y2="76.32"/><line class="cls-10" x1="44.07" y1="78.13" x2="86.65" y2="78.13"/><line class="cls-10" x1="44.07" y1="79.95" x2="86.65" y2="79.95"/></g><rect class="cls-6" x="56.06" y="27.8" width="5.43" height="2.71"/><g class="cls-11"><g class="cls-12"><ellipse class="cls-13" cx="65.25" cy="11.99" rx="11.99" ry="11.83" transform="translate(53.13 77.21) rotate(-89.88)"/><polygon class="cls-13" points="93.17 31.86 86.14 31.86 86.03 79.82 86.25 79.82 86.25 80.26 86.55 80.26 86.54 87.73 92.28 87.75 92.29 80.26 92.69 80.26 92.69 79.83 93.07 79.83 93.17 31.86"/><polygon class="cls-13" points="78.48 79.26 52.84 78.85 54.22 150.16 61.33 150.18 61.34 145.24 62.26 124.88 70.28 125.52 70.13 142.89 69.78 142.89 69.78 145.24 70.54 145.24 70.53 150.22 77.64 150.24 77.65 145.24 78.53 145.24 78.53 142.89 77.92 142.89 78.48 79.26"/><path class="cls-13" d="M61.48,29.18V27.8H56.06v1.37H49.6l-.09,43.5h2L51.35,76l28,0V72.72h2.39l.09-43.5L69,29.2h0L61.47,29Zm7.07,43.54v0l10.8,0Z"/><polygon class="cls-13" points="46.49 79.19 47.32 79.19 47.42 31.23 40.14 31.22 40.04 79.17 40.63 79.19 40.63 80.26 40.62 87.23 46.35 87.24 46.37 80.26 46.49 79.19"/></g></g><rect class="cls-6" x="69.01" y="27.8" width="5.43" height="2.71"/></g></g></g></svg>