<svg xmlns="http://www.w3.org/2000/svg" xmlns:xlink="http://www.w3.org/1999/xlink" viewBox="0 0 88.47 151.08"><defs><style>.cls-1{fill:none;}.cls-2{isolation:isolate;}.cls-3,.cls-9{fill:#999;}.cls-3{fill-opacity:0.39;}.cls-3,.cls-8{mix-blend-mode:multiply;}.cls-4{fill:#74c7a5;}.cls-5{fill:#394758;}.cls-6{fill:#ffd043;}.cls-7{clip-path:url(#clip-path);}.cls-8{opacity:0.3;}</style><clipPath id="clip-path"><rect class="cls-1" x="44.65" width="22.12" height="151.08"/></clipPath></defs><title>Asset 19</title><g class="cls-2"><g id="Layer_2" data-name="Layer 2"><g id="Layer_1-2" data-name="Layer 1"><polygon class="cls-3" points="23.05 113.68 0 113.68 55.5 151.05 79.01 151.05 23.05 113.68"/><rect class="cls-4" x="45.65" y="30.97" width="4.35" height="53.25"/><rect class="cls-4" x="83.4" y="30.97" width="4.35" height="53.25"/><rect class="cls-4" x="55.77" y="83.46" width="6.91" height="67.6"/><rect class="cls-4" x="71.62" y="83.09" width="6.91" height="67.99"/><ellipse class="cls-4" cx="66.74" cy="12.17" rx="11.5" ry="12.17"/><polygon class="cls-5" points="54.29 78.69 79.2 79.05 78.53 144.44 71.65 144.44 68.03 89.8 64.78 89.8 62.68 144.39 55.77 144.35 54.29 78.69"/><polygon class="cls-6" points="85.15 101.93 48.15 101.93 54.29 68.08 52.63 29.14 60.81 28.18 72.47 28.23 80.79 29.27 79.01 68.33 85.15 101.93"/><polygon class="cls-4" points="72.47 28.27 66.64 36.87 60.81 28.27 72.47 28.27"/><g class="cls-7"><g class="cls-8"><rect class="cls-9" x="45.74" y="30.97" width="4.35" height="53.25"/><rect class="cls-9" x="84.11" y="30.97" width="4.35" height="56.25"/><ellipse class="cls-9" cx="66.77" cy="12.17" rx="11.5" ry="12.17"/><polygon class="cls-9" points="72.06 28.27 60.4 28.27 52.63 29.14 54.29 68.08 48.15 101.93 54.77 102.06 55.79 144.18 55.79 151.05 62.7 151.05 62.7 144.39 64.26 101.81 68.76 101.93 71.64 143.97 71.64 151.08 78.55 151.08 78.55 144.44 78.89 112.11 82.39 112.11 80.75 64.81 81.44 64.81 81.44 62.45 80.77 62.45 82.39 28.27 72.06 28.27"/></g></g></g></g></g></svg>