<svg xmlns="http://www.w3.org/2000/svg" xmlns:xlink="http://www.w3.org/1999/xlink" viewBox="0 0 84.95 144.74"><defs><style>.cls-1,.cls-11{fill:none;}.cls-2{isolation:isolate;}.cls-3{fill:#999;fill-opacity:0.39;}.cls-13,.cls-3,.cls-7{mix-blend-mode:multiply;}.cls-4{fill:#73c8ef;}.cls-5{fill:#2b2e31;}.cls-6{clip-path:url(#clip-path);}.cls-7{opacity:0.3;}.cls-8{fill:#9e9e9e;}.cls-9{fill:#415778;}.cls-10{fill:#ffd043;}.cls-11{stroke:#e0e1e2;stroke-miterlimit:10;stroke-width:2px;}.cls-12{fill:#fff;}.cls-14{clip-path:url(#clip-path-2);}.cls-15{opacity:0.4;}</style><clipPath id="clip-path"><rect class="cls-1" x="36.41" y="0.02" width="23.79" height="144.69"/></clipPath><clipPath id="clip-path-2"><rect class="cls-1" x="35.2" width="25.04" height="144.74"/></clipPath></defs><title>Asset 35</title><g class="cls-2"><g id="Layer_2" data-name="Layer 2"><g id="Layer_1-2" data-name="Layer 1"><polygon class="cls-3" points="20.59 111.16 0 111.16 51.8 144.58 72.81 144.58 20.59 111.16"/><polygon class="cls-4" points="50.3 144.71 56.15 144.71 58.15 80.52 49.3 80.52 50.3 144.71"/><polygon class="cls-4" points="65.02 144.74 70.87 144.74 71.87 80.16 63.02 80.16 65.02 144.74"/><polygon class="cls-5" points="72.67 59.65 47.72 59.65 50.2 130.73 56.36 130.73 59.72 77.07 60.62 77.06 64.81 130.73 70.97 130.73 72.67 59.65"/><g class="cls-6"><g class="cls-7"><polygon class="cls-8" points="83.86 29.98 76.68 29.98 77.99 76.36 78.75 76.36 78.74 84.35 82.78 84.35 82.78 76.36 83.54 76.36 83.86 29.98"/></g></g><rect class="cls-9" x="45.71" y="30.57" width="29.42" height="55.22"/><rect class="cls-10" x="45.71" y="47.26" width="29.42" height="15.77"/><path class="cls-4" d="M65.81,30.57c0,3.79-5.39,6.87-5.39,6.87S55,34.36,55,30.57Z"/><rect class="cls-4" x="78.87" y="30.76" width="4.04" height="53.59"/><rect class="cls-4" x="37.28" y="31.52" width="4.13" height="52.56"/><rect class="cls-9" x="35.39" y="30.76" width="8.13" height="18.22"/><rect class="cls-9" x="76.83" y="30.76" width="8.13" height="18.22"/><line class="cls-9" x1="45.71" y1="49.16" x2="75.14" y2="49.16"/><polyline class="cls-9" points="45.71 49.66 45.71 48.66 75.14 48.66 75.14 49.66"/><line class="cls-9" x1="45.71" y1="61.11" x2="75.14" y2="61.11"/><rect class="cls-9" x="45.71" y="60.61" width="29.42" height="1"/><polygon class="cls-10" points="50.04 84.92 45.71 84.92 45.71 36.15 50.2 39.44 50.04 84.92"/><polygon class="cls-10" points="71.59 84.92 75.14 84.92 75.14 35.81 71.59 39.44 71.59 84.92"/><polygon class="cls-10" points="43.51 46.48 35.39 38.62 35.39 30.76 43.51 30.76 43.51 46.48"/><polygon class="cls-10" points="76.83 46.48 84.95 38.62 84.95 30.76 76.83 30.76 76.83 46.48"/><path class="cls-11" d="M56.17,34s-1.88-2.35-1.88-3.43V29l-1.67,1.52Z"/><path class="cls-11" d="M64,34s1.88-2.35,1.88-3.43V29l1.67,1.52Z"/><rect class="cls-12" x="63.95" y="42.96" width="3.75" height="1.83"/><path class="cls-4" d="M71.79,11.51a11.36,11.36,0,1,0-22.72,0,11.36,11.36,0,1,0,22.72,0Z"/><polygon class="cls-9" points="43.51 35.48 37.61 30.76 43.51 30.76 43.51 35.48"/><polygon class="cls-9" points="76.83 35.48 82.73 30.76 76.83 30.76 76.83 35.48"/><g class="cls-13"><g class="cls-14"><g class="cls-15"><polygon class="cls-8" points="35.2 30.76 35.2 38.62 35.2 48.98 37.1 48.98 37.09 84.08 41.22 84.08 41.23 48.98 43.33 48.98 43.33 46.48 43.33 35.48 43.33 30.76 37.42 30.76 35.2 30.76"/><polygon class="cls-8" points="83.67 30.76 83.67 29.98 76.49 29.98 76.64 35.34 76.64 35.48 76.64 46.48 76.64 48.98 77.03 48.98 77.81 76.36 78.56 76.36 78.56 84.35 78.68 84.35 78.68 84.35 82.72 84.35 82.72 76.36 83.35 76.36 83.54 48.98 84.77 48.98 84.77 38.62 84.77 30.76 83.67 30.76"/><path class="cls-8" d="M67.52,29v1.52H55.23l.08-3.74L51,30.57H45.53v18.1h0v1h0V60.61h0v1h0V85.79h2.92l1.36,38.95.31,20H56l.66-21.31L59,85.79h2.13l3.14,40.16.58,18.79h5.84l.43-27.58.75-31.37H75V30.57H69.18Z"/><ellipse class="cls-8" cx="60.24" cy="11.51" rx="11.36" ry="11.51"/></g></g></g></g></g></g></svg>