<svg xmlns="http://www.w3.org/2000/svg" xmlns:xlink="http://www.w3.org/1999/xlink" viewBox="0 0 96.06 150.24"><defs><style>.cls-1{fill:none;}.cls-2{isolation:isolate;}.cls-3{fill:#999;fill-opacity:0.39;}.cls-12,.cls-3{mix-blend-mode:multiply;}.cls-4{fill:#75c5a4;}.cls-5{fill:#6fbe44;}.cls-6{fill:#ffd043;}.cls-7{fill:#f16667;}.cls-8{fill:#000016;}.cls-9{fill:#fff;}.cls-10{fill:#231f20;}.cls-11{clip-path:url(#clip-path);}.cls-12{opacity:0.39;}.cls-13{fill:#969696;}</style><clipPath id="clip-path"><rect class="cls-1" x="41.6" width="26.58" height="150.24"/></clipPath></defs><title>Asset 52</title><g class="cls-2"><g id="Layer_2" data-name="Layer 2"><g id="Layer_1-2" data-name="Layer 1"><polygon class="cls-3" points="23.16 113.49 0 113.49 56.96 150.24 80.59 150.24 23.16 113.49"/><rect class="cls-4" x="89.35" y="32.42" width="5.72" height="55.47"/><rect class="cls-4" x="42.09" y="32.18" width="5.72" height="55.71"/><rect class="cls-4" x="57.23" y="83.78" width="7.1" height="66.45"/><rect class="cls-4" x="73.5" y="83.42" width="7.09" height="66.81"/><ellipse class="cls-4" cx="67.95" cy="12.37" rx="11.81" ry="11.96"/><rect class="cls-5" x="52.37" y="29.53" width="32.16" height="45.39"/><rect class="cls-6" x="41.6" y="31.61" width="7.01" height="12.8"/><rect class="cls-6" x="88.81" y="31.89" width="7.01" height="12.76"/><polygon class="cls-7" points="55.71 79.1 81.28 79.45 81.58 99.47 70.12 99.46 70.17 90.02 66.83 90.02 66.71 99.47 55.62 99.47 55.71 79.1"/><path class="cls-6" d="M52.37,34.53v-5h5S57.37,34.53,52.37,34.53Z"/><path class="cls-6" d="M84.53,34.53v-5h-5S79.53,34.53,84.53,34.53Z"/><path class="cls-6" d="M74.07,29.53a5.56,5.56,0,1,1-11.12,0Z"/><rect class="cls-8" x="56.42" y="53.02" width="24.08" height="2.82"/><rect class="cls-8" x="56.42" y="63.48" width="24.08" height="2.82"/><rect class="cls-9" x="56.42" y="55.84" width="24.08" height="11.97"/><rect class="cls-10" x="61.03" y="59.3" width="14.97" height="5.04"/><rect class="cls-9" x="64.2" y="41.88" width="7.48" height="5.04"/><g class="cls-11"><g class="cls-12"><ellipse class="cls-13" cx="68.18" cy="11.96" rx="11.81" ry="11.96"/><polygon class="cls-13" points="74.3 29.42 63.18 29.42 57.38 29.42 52.38 29.42 52.37 34.01 52.37 74.81 84.77 74.81 84.77 34.01 84.77 29.01 79.77 29.01 74.3 29.42"/><polygon class="cls-13" points="41.6 44.41 42.08 44.41 42.08 87.78 47.8 87.78 47.8 44.41 48.61 44.41 48.61 31.5 41.6 31.5 41.6 44.41"/><polygon class="cls-13" points="96.06 31.48 89.05 31.48 89.05 57 89.58 57 89.58 87.48 95.3 87.48 95.31 57 96.06 57 96.06 31.48"/><polygon class="cls-13" points="81.31 79.41 55.74 79.06 55.62 99.47 57.21 99.47 57.25 111.65 57.26 111.65 57.26 150.24 64.35 150.24 64.35 113.81 64.35 113.79 64.33 99.52 66.71 99.47 66.86 90.02 70.19 90.02 73.53 100.76 73.53 119.39 80.62 119.39 80.62 100.08 81.33 99.97 81.31 79.41"/></g></g></g></g></g></svg>