<svg xmlns="http://www.w3.org/2000/svg" xmlns:xlink="http://www.w3.org/1999/xlink" viewBox="0 0 93.26 150.38"><defs><style>.cls-1,.cls-10{fill:none;}.cls-2{isolation:isolate;}.cls-13,.cls-3{fill:#999;}.cls-3{fill-opacity:0.39;}.cls-12,.cls-3{mix-blend-mode:multiply;}.cls-4{fill:#74c7a5;}.cls-5{fill:#4d5d74;}.cls-6{fill:#5590cc;}.cls-7{fill:#8eacc6;}.cls-8{fill:#a0bfe4;}.cls-9{clip-path:url(#clip-path);}.cls-10{stroke:#4170b7;stroke-miterlimit:10;stroke-width:0.25px;}.cls-11{clip-path:url(#clip-path-2);}.cls-12{opacity:0.4;}</style><clipPath id="clip-path"><polygon class="cls-1" points="79.44 75.72 79.44 72.79 68.61 72.79 67.14 52.94 69.11 29.23 61.52 29.07 63.5 52.94 62.86 72.75 51.52 72.73 51.4 75.69 79.44 75.72"/></clipPath><clipPath id="clip-path-2"><rect class="cls-1" x="38.63" width="26.69" height="150.38"/></clipPath></defs><title>Asset 7</title><g class="cls-2"><g id="Layer_2" data-name="Layer 2"><g id="Layer_1-2" data-name="Layer 1"><polygon class="cls-3" points="19.67 113.54 0 113.54 57.11 150.38 77.25 150.38 19.67 113.54"/><rect class="cls-4" x="60.11" y="57.13" width="55.65" height="5.74" transform="translate(27.73 147.79) rotate(-89.86)"/><rect class="cls-4" x="15.85" y="56.7" width="55.49" height="5.75" transform="matrix(0, -1, 1, 0, -16.09, 103.02)"/><rect class="cls-4" x="24.56" y="113.42" width="66.67" height="7.11" transform="translate(-59.21 174.61) rotate(-89.87)"/><rect class="cls-4" x="40.69" y="113.29" width="67.06" height="7.12" transform="translate(-42.76 190.84) rotate(-89.89)"/><ellipse class="cls-4" cx="65.31" cy="12" rx="12" ry="11.84" transform="matrix(0, -1, 1, 0, 53.17, 77.29)"/><rect class="cls-5" x="43.97" y="34.86" width="43.55" height="32.27" transform="matrix(0, -1, 1, 0, 14.61, 116.63)"/><polygon class="cls-5" points="47.37 79.27 40.08 79.24 40.18 31.25 47.47 31.26 47.37 79.27"/><rect class="cls-5" x="64.07" y="52.37" width="48.01" height="7.04" transform="translate(32.04 143.88) rotate(-89.91)"/><polygon class="cls-6" points="52.89 78.93 78.56 79.33 77.99 143.67 70.3 144.89 67.03 89.91 63.69 89.91 62.28 143.99 53.82 144.34 52.89 78.93"/><rect class="cls-7" x="53.52" y="143.03" width="8.77" height="2.35"/><rect class="cls-7" x="69.84" y="143.03" width="8.77" height="2.35"/><polygon class="cls-8" points="79.44 76.08 79.44 72.79 68.61 72.79 67.14 52.94 69.11 29.23 61.52 29.07 63.5 52.94 62.86 72.75 51.52 72.73 51.4 76.04 79.44 76.08"/><g class="cls-9"><line class="cls-10" x1="44.11" y1="27.37" x2="86.73" y2="27.37"/><line class="cls-10" x1="44.11" y1="29.18" x2="86.73" y2="29.18"/><line class="cls-10" x1="44.11" y1="31" x2="86.73" y2="31"/><line class="cls-10" x1="44.11" y1="32.82" x2="86.73" y2="32.82"/><line class="cls-10" x1="44.11" y1="34.63" x2="86.73" y2="34.63"/><line class="cls-10" x1="44.11" y1="36.45" x2="86.73" y2="36.45"/><line class="cls-10" x1="44.11" y1="38.26" x2="86.73" y2="38.26"/><line class="cls-10" x1="44.11" y1="40.08" x2="86.73" y2="40.08"/><line class="cls-10" x1="44.11" y1="41.89" x2="86.73" y2="41.89"/><line class="cls-10" x1="44.11" y1="43.71" x2="86.73" y2="43.71"/><line class="cls-10" x1="44.11" y1="45.53" x2="86.73" y2="45.53"/><line class="cls-10" x1="44.11" y1="47.34" x2="86.73" y2="47.34"/><line class="cls-10" x1="44.11" y1="49.16" x2="86.73" y2="49.16"/><line class="cls-10" x1="44.11" y1="50.97" x2="86.73" y2="50.97"/><line class="cls-10" x1="44.11" y1="52.79" x2="86.73" y2="52.79"/><line class="cls-10" x1="44.11" y1="54.6" x2="86.73" y2="54.6"/><line class="cls-10" x1="44.11" y1="56.42" x2="86.73" y2="56.42"/><line class="cls-10" x1="44.11" y1="58.24" x2="86.73" y2="58.24"/><line class="cls-10" x1="44.11" y1="60.05" x2="86.73" y2="60.05"/><line class="cls-10" x1="44.11" y1="61.87" x2="86.73" y2="61.87"/><line class="cls-10" x1="44.11" y1="63.68" x2="86.73" y2="63.68"/><line class="cls-10" x1="44.11" y1="65.5" x2="86.73" y2="65.5"/><line class="cls-10" x1="44.11" y1="67.31" x2="86.73" y2="67.31"/><line class="cls-10" x1="44.11" y1="69.13" x2="86.73" y2="69.13"/><line class="cls-10" x1="44.11" y1="70.95" x2="86.73" y2="70.95"/><line class="cls-10" x1="44.11" y1="72.76" x2="86.73" y2="72.76"/><line class="cls-10" x1="44.11" y1="74.58" x2="86.73" y2="74.58"/><line class="cls-10" x1="44.11" y1="76.39" x2="86.73" y2="76.39"/><line class="cls-10" x1="44.11" y1="78.21" x2="86.73" y2="78.21"/><line class="cls-10" x1="44.11" y1="80.02" x2="86.73" y2="80.02"/></g><rect class="cls-8" x="40.08" y="79.24" width="6.45" height="1.09"/><rect class="cls-8" x="84.71" y="79.24" width="6.45" height="1.09"/><rect class="cls-5" x="56.11" y="27.83" width="5.44" height="2.71"/><g class="cls-11"><g class="cls-12"><ellipse class="cls-13" cx="65.31" cy="12" rx="12" ry="11.84" transform="matrix(0, -1, 1, 0, 53.18, 77.29)"/><polygon class="cls-13" points="93.26 31.89 86.22 31.89 86.12 79.89 86.33 79.89 86.33 80.34 86.64 80.34 86.62 87.82 92.36 87.83 92.38 80.34 92.78 80.34 92.78 79.91 93.16 79.91 93.26 31.89"/><polygon class="cls-13" points="78.55 79.34 52.89 78.93 53.8 143.03 53.52 143.03 53.52 145.38 54.28 145.38 54.27 150.31 61.39 150.32 61.4 145.38 62.28 145.38 62.28 143.99 63.69 89.91 67.03 89.92 70.19 143.03 69.84 143.03 69.84 145.38 70.61 145.38 70.6 150.37 77.71 150.38 77.72 145.38 78.61 145.38 78.61 143.03 78 143.03 78.55 79.34"/><path class="cls-13" d="M61.54,29.21V27.83H56.11V29.2H49.65l-.09,43.55h2l-.12,3,28,0V72.79h2.39l.09-43.54-12.81,0h0l-7.59-.16Zm7.08,43.58v0l10.81,0Z"/><polygon class="cls-13" points="46.53 79.27 47.37 79.27 47.47 31.26 40.18 31.25 40.08 79.24 40.08 80.34 40.67 80.34 40.65 87.31 46.4 87.32 46.41 80.34 46.53 80.34 46.53 79.27"/></g></g><rect class="cls-5" x="69.08" y="27.83" width="5.44" height="2.71"/></g></g></g></svg>