<svg xmlns="http://www.w3.org/2000/svg" xmlns:xlink="http://www.w3.org/1999/xlink" viewBox="0 0 155.71 167.4"><defs><style>.cls-1,.cls-14{fill:none;}.cls-2{isolation:isolate;}.cls-3{fill:#f04e48;}.cls-10,.cls-4{fill:#999;}.cls-4{fill-opacity:0.39;}.cls-4,.cls-8{mix-blend-mode:multiply;}.cls-5{fill:#73c8ef;}.cls-6{fill:#1f2024;}.cls-7{fill:#fff;}.cls-9{clip-path:url(#clip-path);}.cls-10{opacity:0.4;}.cls-11{fill:#ca99c6;}.cls-12{fill:#00ab6f;}.cls-13{fill:#2b2f36;}.cls-14{stroke:#dfca61;stroke-miterlimit:10;stroke-width:0.5px;}.cls-15{clip-path:url(#clip-path-2);}</style><clipPath id="clip-path"><path class="cls-1" d="M94.89,39.44V87H93.42v7.81H87.79V87H86.33V39.44ZM39.82,82.05v5h1.46v7.41h5.63V87h1.47V39.44H39.82Zm40,4.46v-.34H54.69v4.92h.08l1,59.23.45,0v5.87h7V150l.87,0,1.26-53h3.28l3.32,53.91.3,0v5.41h7v-6.54l.27,0,.38-58.52h0V86.51ZM76.59,26.93h-.13A11.77,11.77,0,0,0,78,17.69h0l0-.06A11.76,11.76,0,0,0,76,13.49L72.2,5.3H60.57L49.63,25.94a2.59,2.59,0,0,0-1.25-.33,2.67,2.67,0,1,0,1.91.83l4.89-4.72A11.78,11.78,0,0,0,57,26.95V37.39H51.41V82.05H83.05V37.39H76.59Z"/></clipPath><clipPath id="clip-path-2"><path class="cls-1" d="M134.16,79.07A6.64,6.64,0,0,1,136,74.47h0l1.21-2.09,1.13-2.2h.15l2.22-3.83,2.46,3.83h0l1.39,2.16h0l1.37,2.13h-.51a6.59,6.59,0,1,1-11.23,4.61Zm-7.8,34.54v3h.25v4.74h3.17v-4.74h.48v-3l0-23.33h-3.89Zm29.25-.19,0-23.34h-3.89l-.05,23.33H152v.43h-.34v2.74H152V121h3.18v-4.44h.39v-2.74h-.38v-.42Zm-8.14-24.83-1.82-1.49L144.1,88.6h-6l-1.54-1.51-1.82,1.49H132l0,17.24h0v4h0v4l17.84,0,0-25.25h-2.43Zm-6.33,27.62h-.46v-.11H133v15a3.71,3.71,0,0,0,1-.16l.3,21.33h.26v3.31h3.93v-3.48l.49,0,.78-29.9h1.85l1.81,30.4.17,0v3.05h3.93v-3.68l.15,0,.18-20.94a3.65,3.65,0,0,0,.9.14v-15h-7.67Z"/></clipPath></defs><title>Asset 51</title><g class="cls-2"><g id="Layer_2" data-name="Layer 2"><g id="Layer_1-2" data-name="Layer 1"><polyline class="cls-3" points="60.7 5.3 48.51 28.29 72.32 5.3"/><polygon class="cls-4" points="23.28 120.01 0 120.01 56.04 156.17 79.79 156.17 23.28 120.01"/><rect class="cls-5" x="87.92" y="40.24" width="5.63" height="54.58"/><rect class="cls-5" x="41.41" y="40.01" width="5.63" height="54.41"/><rect class="cls-5" x="56.31" y="90.78" width="6.98" height="65.39"/><rect class="cls-5" x="72.32" y="90.42" width="6.98" height="65.77"/><rect class="cls-3" x="51.53" y="37.39" width="31.65" height="44.66"/><rect class="cls-3" x="86.45" y="39.44" width="8.56" height="43.43"/><rect class="cls-3" x="39.95" y="39.44" width="8.56" height="44.25"/><polygon class="cls-3" points="54.82 86.17 79.98 86.51 79.56 149.61 72.03 150.83 68.7 96.92 65.42 96.92 64.16 149.95 55.86 150.31 54.82 86.17"/><ellipse class="cls-5" cx="66.85" cy="20.51" rx="11.62" ry="11.77"/><rect class="cls-6" x="54.82" y="86.07" width="25.15" height="2.66"/><rect class="cls-7" x="57.14" y="26.93" width="19.58" height="24.45"/><polygon class="cls-3" points="78.13 17.69 55.24 17.69 60.7 5.3 72.32 5.3 78.13 17.69"/><ellipse class="cls-7" cx="48.51" cy="28.29" rx="2.64" ry="2.68"/><rect class="cls-7" x="39.95" y="82.05" width="8.56" height="4.95"/><rect class="cls-7" x="86.45" y="82.05" width="8.56" height="4.95"/><polyline class="cls-7" points="70.89 76.35 70.89 49.04 62.81 49.04 62.81 83.69 70.89 83.69 70.89 76.35"/><polygon class="cls-7" points="76.72 14.56 57.14 14.56 55.24 17.69 78.13 17.69 76.72 14.56"/><g class="cls-8"><g class="cls-9"><rect class="cls-10" x="7.21" width="59.46" height="167.4"/></g></g><polygon class="cls-4" points="118.06 136.64 105.17 136.54 134.56 155.46 147.7 155.56 118.06 136.64"/><rect class="cls-11" x="138.26" y="104.04" width="30.77" height="3.17" transform="translate(47.65 259.01) rotate(-89.86)"/><rect class="cls-11" x="112.92" y="104.39" width="30.68" height="3.18" transform="translate(21.98 233.98) rotate(-89.86)"/><rect class="cls-11" x="118.23" y="135.16" width="36.86" height="3.93" transform="translate(-0.77 273.48) rotate(-89.87)"/><rect class="cls-11" x="127.15" y="135.08" width="37.07" height="3.93" transform="translate(8.35 282.47) rotate(-89.89)"/><ellipse class="cls-11" cx="140.76" cy="79.09" rx="6.63" ry="6.55" transform="translate(61.37 219.68) rotate(-89.88)"/><rect class="cls-12" x="128.38" y="92.31" width="25.25" height="17.84" transform="translate(39.47 242.02) rotate(-89.88)"/><rect class="cls-12" x="116.72" y="100.01" width="23.33" height="3.89" transform="translate(25.99 229.99) rotate(-89.8)"/><rect class="cls-12" x="142.07" y="99.8" width="23.33" height="3.89" transform="translate(51.74 255.32) rotate(-89.91)"/><polygon class="cls-3" points="133.9 116.09 148.09 116.31 147.77 151.88 143.52 152.56 141.71 122.16 139.87 122.16 139.09 152.06 134.41 152.25 133.9 116.09"/><path class="cls-7" d="M136.22,93.08a5.62,5.62,0,0,1-1.37-4.49l1.82-1.49,4.72,4.62S139.19,96.14,136.22,93.08Z"/><path class="cls-7" d="M146.15,93.08a5.62,5.62,0,0,0,1.37-4.49l-1.82-1.49L141,91.71S143.17,96.14,146.15,93.08Z"/><rect class="cls-13" x="132.06" y="105.83" width="17.85" height="4"/><polyline class="cls-14" points="142.41 107.83 142.41 110.55 139.55 110.55 139.55 105.12 142.41 105.12 142.41 107.83"/><polygon class="cls-11" points="137.73 88.6 140.98 91.71 144.59 88.6 137.73 88.6"/><path class="cls-12" d="M140.74,116.09s-1.45,15-7.67,15v-15Z"/><path class="cls-12" d="M141.18,116.09s1.45,15,7.67,15v-15Z"/><rect class="cls-7" x="126.31" y="113.63" width="3.9" height="2.99"/><rect class="cls-7" x="151.69" y="113.48" width="3.9" height="2.74"/><polygon class="cls-12" points="145.96 74.47 136.04 74.47 140.74 66.35 145.96 74.47"/><polygon class="cls-3" points="144.59 72.33 137.25 72.38 138.37 70.18 143.2 70.18 144.59 72.33"/><g class="cls-8"><g class="cls-15"><rect class="cls-10" x="109.65" y="67.22" width="31.35" height="88.27"/></g></g></g></g></g></svg>