<svg xmlns="http://www.w3.org/2000/svg" xmlns:xlink="http://www.w3.org/1999/xlink" viewBox="0 0 104.08 150.24"><defs><style>.cls-1,.cls-11,.cls-12,.cls-5{fill:none;}.cls-2{isolation:isolate;}.cls-19,.cls-3{fill:#999;}.cls-3{fill-opacity:0.39;}.cls-18,.cls-3{mix-blend-mode:multiply;}.cls-4{fill:#73c8ef;}.cls-5{stroke:#000;}.cls-10,.cls-11,.cls-12,.cls-13,.cls-14,.cls-15,.cls-16,.cls-5{stroke-miterlimit:10;}.cls-13,.cls-16,.cls-5{stroke-width:2.83px;}.cls-6{fill:#c0c2c4;}.cls-7{fill:#fff;}.cls-8{fill:#221233;}.cls-9{clip-path:url(#clip-path);}.cls-10,.cls-16{fill:#cca492;stroke:#faaa68;}.cls-10{stroke-width:0.71px;}.cls-11,.cls-12,.cls-14{stroke:#702f6a;}.cls-11,.cls-12,.cls-15{stroke-width:1.42px;}.cls-12{stroke-dasharray:2.75 2.75;}.cls-13,.cls-15{fill:#b3b570;stroke:#d0d180;}.cls-14{fill:#702f6a;stroke-width:4.25px;}.cls-16{stroke-dasharray:0.28 2.83;}.cls-17{clip-path:url(#clip-path-2);}.cls-18{opacity:0.4;}</style><clipPath id="clip-path"><polygon class="cls-1" points="84.22 70.43 58.1 70.43 51.54 103.82 90.54 103.82 84.22 70.43"/></clipPath><clipPath id="clip-path-2"><rect class="cls-1" x="48.22" y="0.04" width="23.78" height="150.15"/></clipPath></defs><title>Asset 14</title><g class="cls-2"><g id="Layer_2" data-name="Layer 2"><g id="Layer_1-2" data-name="Layer 1"><polygon class="cls-3" points="20.94 111.02 0 111.02 60.8 150.24 82.24 150.24 20.94 111.02"/><polygon points="61.74 139.46 60.12 103.95 69.76 103.95 69.34 139.46 61.74 139.46"/><polygon points="73.43 139.43 72.39 103.7 82.21 103.7 80.8 139.43 73.43 139.43"/><rect class="cls-4" x="62.39" y="139.46" width="6.39" height="10.69"/><rect class="cls-4" x="73.85" y="139.46" width="6.37" height="10.69"/><ellipse class="cls-4" cx="71.9" cy="12.17" rx="12.01" ry="12.17"/><polygon class="cls-4" points="53.68 81.75 49.29 81.75 49.44 31.5 53.68 31.5 53.68 81.75"/><polygon class="cls-4" points="93.91 81.48 89.53 81.48 89.53 31.23 94.49 31.23 93.91 81.48"/><rect x="56.22" y="28.69" width="30.41" height="38.31"/><polygon points="54.79 56.62 48.65 56.62 47.51 31.39 54.79 31.39 54.79 56.62"/><polygon points="95.28 56.62 88.23 56.62 88.23 31.23 96.22 31.23 95.28 56.62"/><line class="cls-5" x1="89.53" y1="75.3" x2="93.91" y2="75.3"/><path class="cls-6" d="M75.65,28.69a3.8,3.8,0,1,1-7.6,0Z"/><path class="cls-4" d="M76.18,28.72c0,1-1.92,1.78-4.28,1.78s-4.28-.8-4.28-1.78Z"/><polyline class="cls-7" points="64.61 27.18 64.61 38.33 71.85 30.5"/><polyline class="cls-7" points="79.14 27.18 79.14 38.33 71.9 30.5"/><rect class="cls-7" x="49.06" y="56.67" width="5.12" height="4.11"/><rect class="cls-7" x="89.45" y="56.62" width="5.12" height="4.16"/><rect class="cls-8" x="58.1" y="70.43" width="26.13" height="9.75"/><polygon class="cls-8" points="90.54 103.82 51.54 103.82 58.1 70.43 84.22 70.43 90.54 103.82"/><g class="cls-9"><line class="cls-10" x1="38" y1="74.22" x2="104.08" y2="74.22"/><line class="cls-11" x1="38" y1="78.01" x2="39.41" y2="78.01"/><line class="cls-12" x1="42.16" y1="78.01" x2="101.29" y2="78.01"/><line class="cls-11" x1="102.66" y1="78.01" x2="104.08" y2="78.01"/><line class="cls-13" x1="38" y1="82.06" x2="104.08" y2="82.06"/><line class="cls-14" x1="38" y1="87.13" x2="104.08" y2="87.13"/><line class="cls-15" x1="38" y1="92.19" x2="104.08" y2="92.19"/><line class="cls-16" x1="38" y1="97" x2="104.08" y2="97"/></g><g class="cls-17"><g class="cls-18"><polygon class="cls-19" points="61.84 139.5 62.5 139.5 62.5 150.19 68.88 150.19 68.88 139.5 69.44 139.5 69.87 103.99 60.22 103.99 61.84 139.5"/><rect class="cls-19" x="73.96" y="139.5" width="6.37" height="10.69"/><ellipse class="cls-19" cx="72.01" cy="12.21" rx="12.01" ry="12.17"/><polygon class="cls-19" points="86.74 28.74 79.25 28.74 79.25 27.23 75.95 28.74 75.76 28.74 68.16 28.74 68.02 28.74 64.72 27.23 64.72 28.74 56.33 28.74 56.33 67.04 86.74 67.04 86.74 28.74"/><polygon class="cls-19" points="48.7 60.84 48.99 60.84 48.93 81.8 53.32 81.8 53.32 60.84 53.83 60.84 53.83 56.67 54.55 56.63 53.83 31.44 47.76 31.44 48.41 56.63 48.7 56.67 48.7 60.84"/><polygon class="cls-19" points="89.56 60.83 89.64 60.83 89.64 81.53 94.02 81.53 94.26 60.83 94.68 60.83 94.68 56.4 94.56 56.4 95.23 31.27 94.6 31.27 89.64 31.27 89.43 31.27 89.43 56.66 89.56 56.66 89.56 60.83"/><polygon class="cls-19" points="84.33 70.47 58.21 70.47 55.63 83.58 51.65 103.87 72.5 103.87 73.54 139.48 80.91 139.48 82.31 103.87 90.64 103.87 90.64 103.87 90.64 103.87 84.33 70.47"/></g></g></g></g></g></svg>