<svg xmlns="http://www.w3.org/2000/svg" xmlns:xlink="http://www.w3.org/1999/xlink" viewBox="0 0 162.85 157.42"><defs><style>.cls-1,.cls-21,.cls-25{fill:none;}.cls-2{isolation:isolate;}.cls-10,.cls-22,.cls-3{mix-blend-mode:multiply;}.cls-22,.cls-4{opacity:0.39;}.cls-5{fill:#9e9e9e;}.cls-6{fill:#73c8ef;}.cls-7{fill:#6d62ab;}.cls-8{fill:#2b2e31;}.cls-9{fill:#adadad;}.cls-10{opacity:0.4;}.cls-11{clip-path:url(#clip-path);}.cls-12{fill:#999;}.cls-13{opacity:0.52;mix-blend-mode:lighten;}.cls-14{clip-path:url(#clip-path-2);}.cls-15{fill:#74c7a5;}.cls-16{fill:#f16667;}.cls-17{fill:#73c7f0;}.cls-18{fill:#ffd043;}.cls-19{fill:#ffd146;}.cls-20{clip-path:url(#clip-path-3);}.cls-21{stroke:#ffd043;stroke-width:2px;}.cls-21,.cls-25{stroke-miterlimit:10;}.cls-23{clip-path:url(#clip-path-4);}.cls-24{opacity:0.65;}.cls-25{stroke:#fff;stroke-width:0.75px;opacity:0.5;}</style><clipPath id="clip-path"><rect class="cls-1" x="81" y="2.23" width="25.77" height="154.96"/></clipPath><clipPath id="clip-path-2"><path class="cls-1" d="M101.66,38.3h1.54V90H93.25V86.55H90.76v-46h8.48V38.3Zm13.53,0h-4V90h9.48V86.55h3v-46h-8.48ZM88.79,42.58H81.31V85.19h1.14l0,3.26H88l.05-3.26h1.41V42.58h-.7Zm44.5,0h-8.18V85.19h1.28l0,3.77H132l.06-3.77h1.26Z"/></clipPath><clipPath id="clip-path-3"><rect class="cls-1" x="103.19" y="44.93" width="8.03" height="11.17"/></clipPath><clipPath id="clip-path-4"><rect class="cls-1" x="81.18" y="1.45" width="25.57" height="155.96"/></clipPath></defs><title>Asset 33</title><g class="cls-2"><g id="Layer_2" data-name="Layer 2"><g id="Layer_1-2" data-name="Layer 1"><g class="cls-3"><g class="cls-4"><polygon class="cls-5" points="66.63 124.15 45.8 124.15 97.36 157.42 118.62 157.42 66.63 124.15"/></g></g><rect class="cls-6" x="126.51" y="43.36" width="5.53" height="53.59"/><rect class="cls-6" x="82.56" y="43.13" width="5.53" height="53.43"/><polygon class="cls-6" points="96.41 157.18 103.26 157.18 105.26 92.99 96.41 92.99 96.41 157.18"/><polygon class="cls-6" points="112.13 157.21 118.97 157.21 118.97 92.63 110.13 92.63 112.13 157.21"/><path class="cls-6" d="M118.16,24a11.41,11.41,0,1,0-11.4,11.56A11.48,11.48,0,0,0,118.16,24Z"/><polygon class="cls-7" points="120.77 97.31 93.93 97.31 93.84 46.94 120.68 46.94 120.77 97.31"/><polygon class="cls-7" points="120.47 85.19 94.24 85.19 94.14 44.59 120.37 44.59 120.47 85.19"/><polygon class="cls-7" points="88.09 88.45 82.55 88.45 82.08 42.58 88.86 42.58 88.09 88.45"/><polygon class="cls-7" points="132.04 88.96 126.5 88.96 125.99 43.08 132.76 43.08 132.04 88.96"/><polygon class="cls-7" points="103.26 38.3 101.72 38.3 99.3 38.3 99.3 41.82 103.26 41.82 103.26 38.3"/><polygon class="cls-7" points="115.25 38.3 113.71 38.3 111.29 38.3 111.29 41.82 115.25 41.82 115.25 38.3"/><polygon class="cls-7" points="88.09 86.22 82.54 86.22 81.77 42.58 89.17 42.58 88.09 86.22"/><polygon class="cls-7" points="132.09 86.22 126.47 86.22 125.57 42.58 132.97 42.58 132.09 86.22"/><polygon class="cls-7" points="121.2 90.04 93.51 90.04 93.41 40.57 121.1 40.57 121.2 90.04"/><polygon class="cls-8" points="120.77 113.55 93.93 113.55 93.84 40.57 120.68 40.57 120.77 113.55"/><rect class="cls-7" x="90.82" y="40.57" width="12.44" height="45.99"/><rect class="cls-7" x="111.29" y="40.57" width="12.44" height="45.99"/><path class="cls-9" d="M95.12,20.55v-5.4A2.23,2.23,0,0,1,97.43,13H116.1a2.23,2.23,0,0,1,2.31,2.14v5.4Z"/><g class="cls-10"><g class="cls-11"><polygon class="cls-12" points="41.02 40.57 40.96 40.57 32.17 40.57 32.17 36.68 18.74 36.68 18.74 40.57 9.95 40.57 9.95 43.22 9.95 43.22 10.01 64.89 9.78 64.89 9.78 72.54 10.03 72.54 10.06 82.42 12.46 82.42 12.47 85.19 14.77 85.19 36.14 85.19 38.7 85.19 38.69 82.42 41.13 82.42 41.1 72.54 41.13 72.54 41.13 64.89 41.08 64.89 41.02 40.57"/><polygon class="cls-12" points="38.22 88.45 13.17 88.45 14.64 147.97 14.64 147.94 14.64 151.72 14.64 157.18 21.49 157.18 21.49 151.72 21.49 151.72 21.49 147.83 21.49 147.8 24.59 99.01 26.81 99.01 29.2 147.47 30.36 147.47 30.36 151.72 30.36 151.72 30.36 157.21 37.21 157.21 37.21 151.72 37.21 151.72 37.21 147.47 38.37 147.47 38.22 88.45"/><polygon class="cls-12" points="0.32 42.58 0 42.58 0 45.83 0.78 86.22 0.76 86.22 0.78 88.45 0.78 88.45 0.78 96.56 6.31 96.56 6.31 88.45 6.33 88.45 6.36 86.22 6.33 86.22 7.41 45.03 7.41 42.58 7.09 42.58 0.32 42.58"/><polygon class="cls-12" points="126.51 42.58 126.51 45.03 126.51 86.22 127.41 86.22 127.44 88.96 127.44 88.96 127.44 96.95 132.97 96.95 132.97 88.96 132.98 88.96 133.03 86.22 133.91 86.22 133.91 45.83 133.91 42.58 126.51 42.58"/><path class="cls-12" d="M13.36,19.53h1.11A11.65,11.65,0,0,0,13.58,24a11.41,11.41,0,1,0,22.81,0,11.64,11.64,0,0,0-.88-4.46h1.13V15.06c0-.73-.83-1.34-1.91-1.46v0l-.11-1.9A12.07,12.07,0,0,0,25.54.46C13.29-2.92,15.07,13.58,15.07,13.58s0,0,0,.05c-1,.17-1.73.74-1.73,1.43h0Z"/></g></g><rect class="cls-7" x="93.31" y="84.8" width="9.95" height="5.24"/><rect class="cls-7" x="111.29" y="84.8" width="9.48" height="5.24"/><rect class="cls-7" x="81.38" y="42.58" width="8.18" height="42.61"/><rect class="cls-7" x="125.18" y="42.58" width="8.18" height="42.61"/><g class="cls-13"><g class="cls-14"><polygon class="cls-15" points="90.59 82.11 89.83 81.79 90.6 79.93 88.01 79.79 89 77.39 86.41 77.24 87.4 74.84 84.81 74.7 86.02 71.76 86.78 72.08 86.01 73.94 88.61 74.08 87.61 76.48 90.21 76.63 89.22 79.03 91.81 79.17 90.59 82.11"/><polygon class="cls-16" points="101.43 79.41 100.95 78.74 102.6 77.57 100.48 76.07 102.6 74.56 100.47 73.06 102.59 71.56 100.47 70.06 103.06 68.22 103.54 68.89 101.9 70.06 104.02 71.56 101.9 73.06 104.02 74.56 101.9 76.07 104.02 77.57 101.43 79.41"/><path class="cls-15" d="M101,83.06a2.78,2.78,0,0,1,.49-2.1,2.7,2.7,0,0,1,1.83-1.05c.73-.17,1-1.06.93-1.86l1.05-.12a2.59,2.59,0,0,1-1.78,3h0a1.64,1.64,0,0,0-1.14.64,1.72,1.72,0,0,0-.29,1.3Z"/><path class="cls-17" d="M85.67,81.78a2.78,2.78,0,0,1-1.34-1.69A2.7,2.7,0,0,1,84.63,78c.32-.68-.19-1.46-.87-1.89l.56-.9a2.59,2.59,0,0,1,1.25,3.27l0,0a1.64,1.64,0,0,0-.21,1.29,1.72,1.72,0,0,0,.83,1Z"/><path class="cls-18" d="M93.58,81.11a2.78,2.78,0,0,1-1.2-1.79,2.7,2.7,0,0,1,.48-2.05c.38-.65-.07-1.47-.72-2l.63-.85a2.59,2.59,0,0,1,1,3.36l0,0a1.64,1.64,0,0,0-.31,1.27,1.72,1.72,0,0,0,.75,1.1Z"/><path class="cls-17" d="M90.51,75.41h0a.79.79,0,0,1-.79-.8v-.8h1.58v.07c0,.22,0,.5,0,.64h0v.08A.79.79,0,0,1,90.51,75.41Z"/><circle class="cls-16" cx="98.65" cy="74.4" r="0.89"/><circle class="cls-15" cx="95.75" cy="78.67" r="0.89"/><polygon class="cls-16" points="90.45 72.03 89.03 73.14 88.4 72.33 88.64 71.52 90.06 70.42 89.82 71.22 90.45 72.03"/><path class="cls-17" d="M106.46,73.11h0a.79.79,0,0,1-.79-.8v-.8h1.58v.07c0,.22,0,.5,0,.64h0v.08A.79.79,0,0,1,106.46,73.11Z"/><polygon class="cls-16" points="106.41 69.73 104.99 70.83 104.36 70.02 104.59 69.22 106.01 68.12 105.78 68.92 106.41 69.73"/><polygon class="cls-19" points="95.6 76.61 97.34 76.14 97.06 75.14 96.28 74.86 94.55 75.33 95.33 75.62 95.6 76.61"/><polygon class="cls-17" points="99.32 79.16 96.33 80.97 99.03 77.58 99.32 79.16"/><polygon class="cls-17" points="93 67.67 90.01 69.47 92.71 66.09 93 67.67"/><polygon class="cls-19" points="95.06 71.99 94.22 73.6 92.95 71.74 95.06 71.99"/><polygon class="cls-15" points="88.5 82.2 89.05 82.82 87.54 84.16 89.82 85.42 87.88 87.15 90.15 88.41 88.21 90.14 90.49 91.39 88.12 93.51 87.57 92.89 89.08 91.55 86.8 90.29 88.74 88.56 86.46 87.31 88.4 85.58 86.13 84.32 88.5 82.2"/><polygon class="cls-16" points="77.41 82.35 77.55 83.16 75.56 83.5 76.82 85.77 74.25 86.2 75.51 88.48 72.95 88.91 74.21 91.19 71.07 91.72 70.94 90.91 72.92 90.57 71.67 88.29 74.23 87.86 72.97 85.58 75.53 85.15 74.27 82.88 77.41 82.35"/><path class="cls-15" d="M78.83,77.45a2.78,2.78,0,0,1-.88,2,2.7,2.7,0,0,1-2,.68c-.75,0-1.21.84-1.27,1.64l-1.06-.08A2.59,2.59,0,0,1,76,79h0a1.64,1.64,0,0,0,1.24-.41,1.72,1.72,0,0,0,.54-1.22Z"/><path class="cls-17" d="M92.63,81.89A2.78,2.78,0,0,1,93.11,84a2.7,2.7,0,0,1-1.19,1.74,1.6,1.6,0,0,0,0,2.08l-.9.56a2.59,2.59,0,0,1,.3-3.49l0,0a1.64,1.64,0,0,0,.75-1.07,1.72,1.72,0,0,0-.3-1.3Z"/><path class="cls-18" d="M84.45,82.24a2.78,2.78,0,0,1,.31,2.14A2.7,2.7,0,0,1,83.44,86a1.6,1.6,0,0,0-.2,2.07l-.94.49a2.59,2.59,0,0,1,.57-3.46l0,0a1.64,1.64,0,0,0,.83-1,1.72,1.72,0,0,0-.2-1.32Z"/><path class="cls-17" d="M84.83,88h0a.79.79,0,0,1,.36,1.06l-.35.72-1.42-.69,0-.07.28-.58h0l0-.07A.79.79,0,0,1,84.83,88Z"/><circle class="cls-16" cx="77.07" cy="88.06" r="0.89" transform="translate(-35.74 119.18) rotate(-64.23)"/><circle class="cls-16" cx="93.62" cy="69.62" r="0.89" transform="translate(-9.78 123.65) rotate(-64.23)"/><circle class="cls-15" cx="81.52" cy="82.8" r="0.89" transform="translate(-28.49 120.21) rotate(-64.23)"/><polygon class="cls-16" points="83.41 91.09 85.16 90.71 85.38 91.72 84.82 92.34 83.06 92.71 83.62 92.09 83.41 91.09"/><polygon class="cls-19" points="80.76 84.73 78.99 84.4 78.8 85.41 79.38 86.01 81.15 86.34 80.57 85.74 80.76 84.73"/><polygon class="cls-17" points="78.52 80.81 81.99 80.49 78.09 82.36 78.52 80.81"/><polygon class="cls-19" points="79.23 89.12 80.69 88.04 81.02 90.27 79.23 89.12"/><path class="cls-18" d="M95.94,51.64a2.78,2.78,0,0,1,.31,2.14,2.7,2.7,0,0,1-1.32,1.64,1.6,1.6,0,0,0-.2,2.07l-.94.49a2.59,2.59,0,0,1,.57-3.46l0,0a1.64,1.64,0,0,0,.83-1,1.72,1.72,0,0,0-.2-1.32Z"/><path class="cls-17" d="M97.12,56.6h0a.79.79,0,0,1,.36,1.06l-.35.72-1.42-.69,0-.07.28-.58h0l0-.07A.79.79,0,0,1,97.12,56.6Z"/><polygon class="cls-16" points="97.96 53.87 99.71 53.5 99.93 54.5 99.37 55.12 97.61 55.5 98.17 54.88 97.96 53.87"/><polygon class="cls-19" points="90.94 57.7 92.39 56.62 92.73 58.84 90.94 57.7"/><polygon class="cls-16" points="101.94 41.16 102.08 41.98 100.09 42.31 101.34 44.59 98.78 45.02 100.04 47.29 97.48 47.73 98.74 50 95.6 50.53 95.46 49.72 97.45 49.38 96.19 47.11 98.76 46.67 97.5 44.4 100.06 43.97 98.8 41.69 101.94 41.16"/><path class="cls-15" d="M103.35,36.26a2.78,2.78,0,0,1-.88,2,2.7,2.7,0,0,1-2,.68c-.75,0-1.21.84-1.27,1.64l-1.06-.08a2.59,2.59,0,0,1,2.33-2.62h0a1.64,1.64,0,0,0,1.24-.41,1.72,1.72,0,0,0,.54-1.22Z"/><circle class="cls-16" cx="101.6" cy="46.88" r="0.89" transform="translate(15.21 117.99) rotate(-64.23)"/><polygon class="cls-19" points="105.29 43.54 103.52 43.22 103.33 44.23 103.91 44.83 105.68 45.16 105.1 44.55 105.29 43.54"/><polygon class="cls-17" points="103.05 39.63 106.52 39.3 102.62 41.18 103.05 39.63"/><polygon class="cls-19" points="88.58 57.64 90.03 56.56 90.37 58.78 88.58 57.64"/><polygon class="cls-15" points="110.19 86.12 110.84 86.62 109.6 88.22 112.06 89.04 110.47 91.09 112.93 91.92 111.33 93.97 113.8 94.8 111.84 97.31 111.19 96.8 112.43 95.21 109.97 94.38 111.57 92.33 109.1 91.5 110.7 89.45 108.23 88.63 110.19 86.12"/><polygon class="cls-16" points="97.65 82 97.93 82.77 96.03 83.46 97.68 85.47 95.24 86.36 96.88 88.37 94.44 89.25 96.09 91.27 93.1 92.35 92.82 91.58 94.71 90.89 93.07 88.88 95.51 87.99 93.86 85.98 96.31 85.09 94.66 83.08 97.65 82"/><path class="cls-17" d="M114.59,85.11a2.78,2.78,0,0,1,.85,2,2.7,2.7,0,0,1-.85,1.93,1.6,1.6,0,0,0,.34,2.05l-.78.72a2.59,2.59,0,0,1-.34-3.49l0,0a1.64,1.64,0,0,0,.54-1.18,1.72,1.72,0,0,0-.53-1.22Z"/><path class="cls-18" d="M104.56,81.69a2.78,2.78,0,0,1,.68,2,2.7,2.7,0,0,1-1,1.85,1.6,1.6,0,0,0,.18,2.07l-.83.65a2.59,2.59,0,0,1-.06-3.5l0,0a1.64,1.64,0,0,0,.64-1.14,1.72,1.72,0,0,0-.43-1.26Z"/><path class="cls-17" d="M106.11,87.89h0a.79.79,0,0,1,.55,1l-.21.77-1.52-.42,0-.07.17-.62h0l0-.08A.79.79,0,0,1,106.11,87.89Z"/><circle class="cls-16" cx="98.34" cy="88.75" r="0.89" transform="translate(-13.36 159.95) rotate(-74.58)"/><polygon class="cls-16" points="105.26 91.16 106.92 90.47 107.32 91.42 106.87 92.14 105.21 92.82 105.65 92.11 105.26 91.16"/><polygon class="cls-19" points="101.14 84.38 99.34 84.37 99.34 85.4 100.02 85.89 101.81 85.89 101.14 85.41 101.14 84.38"/><polygon class="cls-19" points="115.51 90.3 116.75 88.97 117.48 91.1 115.51 90.3"/><polygon class="cls-15" points="80.16 61.73 80.9 61.38 81.78 63.19 83.61 61.35 84.74 63.69 86.57 61.85 87.7 64.19 89.54 62.34 90.92 65.21 90.18 65.57 89.3 63.75 87.47 65.59 86.34 63.25 84.5 65.09 83.38 62.76 81.54 64.6 80.16 61.73"/><polygon class="cls-16" points="75.22 70.07 76.04 70.16 75.82 72.17 78.35 71.58 78.06 74.16 80.59 73.58 80.31 76.16 82.84 75.58 82.49 78.74 81.67 78.65 81.89 76.64 79.36 77.22 79.65 74.64 77.11 75.23 77.4 72.64 74.87 73.23 75.22 70.07"/><path class="cls-15" d="M70.9,67.36a2.78,2.78,0,0,1,1.65,1.39,2.7,2.7,0,0,1,.11,2.1c-.18.73.48,1.39,1.23,1.68l-.37,1a2.59,2.59,0,0,1-1.88-3v0a1.64,1.64,0,0,0-.05-1.3,1.72,1.72,0,0,0-1-.85Z"/><path class="cls-17" d="M83.68,58.28a2.78,2.78,0,0,1,2.15.12A2.7,2.7,0,0,1,87.19,60c.29.69,1.22.83,2,.6l.3,1a2.59,2.59,0,0,1-3.28-1.24v0a1.64,1.64,0,0,0-.82-1A1.72,1.72,0,0,0,84,59.28Z"/><path class="cls-18" d="M78.92,64.64a2.78,2.78,0,0,1,2.14.29,2.7,2.7,0,0,1,1.22,1.72c.23.71,1.15.92,1.94.76l.21,1a2.59,2.59,0,0,1-3.17-1.5v0a1.64,1.64,0,0,0-.74-1.07,1.72,1.72,0,0,0-1.32-.17Z"/><path class="cls-17" d="M85.21,66.12h0a.79.79,0,0,1,1.12-.06l.6.53-1,1.18-.05,0-.48-.43h0l-.06-.06A.79.79,0,0,1,85.21,66.12Z"/><circle class="cls-16" cx="82.42" cy="73.39" r="0.89" transform="translate(-27.21 86.09) rotate(-48.29)"/><circle class="cls-15" cx="79.29" cy="67.87" r="0.89" transform="translate(-24.14 81.91) rotate(-48.29)"/><circle class="cls-15" cx="105.21" cy="74.85" r="0.89" transform="translate(-20.67 103.6) rotate(-48.29)"/><polygon class="cls-16" points="87.77 68.33 87.89 66.54 88.92 66.61 89.36 67.32 89.24 69.11 88.8 68.4 87.77 68.33"/><polygon class="cls-19" points="80.93 69.13 80.13 70.74 81.05 71.2 81.79 70.81 82.59 69.2 81.85 69.59 80.93 69.13"/><polygon class="cls-17" points="74.76 68.78 75.4 65.36 76.13 69.62 74.76 68.78"/><polygon class="cls-19" points="84.74 71.8 84.1 70.11 86.33 70.4 84.74 71.8"/><polygon class="cls-15" points="81.48 60.11 80.66 60.11 80.65 58.09 78.2 58.95 78.2 56.36 75.75 57.22 75.75 54.62 73.3 55.48 73.29 52.3 74.12 52.3 74.12 54.32 76.57 53.46 76.57 56.06 79.03 55.19 79.03 57.79 81.48 56.93 81.48 60.11"/><polygon class="cls-16" points="88.75 51.73 88.05 51.3 89.13 49.59 86.59 49.02 87.97 46.81 85.44 46.24 86.82 44.04 84.28 43.46 85.97 40.77 86.67 41.21 85.6 42.92 88.13 43.49 86.75 45.69 89.29 46.27 87.91 48.47 90.44 49.04 88.75 51.73"/><path class="cls-15" d="M91.47,56.05a2.78,2.78,0,0,1-.88-2,2.7,2.7,0,0,1,.82-1.94,1.6,1.6,0,0,0-.38-2l.77-.73a2.59,2.59,0,0,1,.4,3.48l0,0a1.64,1.64,0,0,0-.52,1.19,1.72,1.72,0,0,0,.55,1.21Z"/><path class="cls-17" d="M77.31,65.24a2.78,2.78,0,0,1-1.43-1.62,2.7,2.7,0,0,1,.2-2.1c.29-.69-.27-1.45-1-1.84l.51-.93A2.59,2.59,0,0,1,77,62l0,0a1.64,1.64,0,0,0-.14,1.3,1.72,1.72,0,0,0,.89,1Z"/><path class="cls-18" d="M84.14,57.06a2.78,2.78,0,0,1-1.8-1.19A2.7,2.7,0,0,1,82,53.79c.1-.74-.63-1.33-1.41-1.53l.26-1A2.59,2.59,0,0,1,83,54v0a1.64,1.64,0,0,0,.2,1.29,1.72,1.72,0,0,0,1.11.73Z"/><path class="cls-17" d="M79.58,53.5h0a.79.79,0,0,1-1-.44l-.31-.74,1.46-.6,0,.07.25.59h0l0,.08A.79.79,0,0,1,79.58,53.5Z"/><circle class="cls-16" cx="84.71" cy="47.68" r="0.89" transform="translate(-11.8 36.08) rotate(-22.52)"/><circle class="cls-15" cx="85.68" cy="54.5" r="0.89" transform="translate(-14.34 36.97) rotate(-22.52)"/><polygon class="cls-16" points="76.44 48.97 75.55 50.53 74.66 50.02 74.57 49.19 75.46 47.63 75.55 48.46 76.44 48.97"/><polygon class="cls-19" points="84.75 52.65 86.17 51.55 85.54 50.74 84.7 50.77 83.28 51.87 84.12 51.84 84.75 52.65"/><polygon class="cls-19" points="106.71 52.69 108.13 51.59 107.5 50.78 106.66 50.81 105.24 51.91 106.08 51.88 106.71 52.69"/><polygon class="cls-17" points="89.16 53.59 87.09 56.39 88.28 52.23 89.16 53.59"/><polygon class="cls-19" points="82.48 48.59 82.32 50.4 80.44 49.16 82.48 48.59"/><polygon class="cls-15" points="67.33 73.51 66.52 73.66 66.16 71.68 63.9 72.97 63.43 70.41 61.17 71.7 60.71 69.14 58.45 70.43 57.88 67.3 58.69 67.15 59.05 69.14 61.31 67.85 61.78 70.41 64.03 69.12 64.5 71.67 66.76 70.39 67.33 73.51"/><polygon class="cls-16" points="73.75 65.65 72.99 65.34 73.74 63.47 71.14 63.36 72.1 60.95 69.51 60.84 70.47 58.43 67.87 58.32 69.05 55.36 69.82 55.67 69.07 57.54 71.67 57.65 70.7 60.07 73.3 60.17 72.34 62.59 74.93 62.7 73.75 65.65"/><path class="cls-17" d="M63,75.91a2.78,2.78,0,0,1-2-.69,2.7,2.7,0,0,1-.87-1.92c-.09-.75-1-1.12-1.76-1.11l0-1.06a2.59,2.59,0,0,1,2.83,2.07v0a1.64,1.64,0,0,0,.52,1.19,1.72,1.72,0,0,0,1.26.42Z"/><path class="cls-18" d="M69.38,71a2.78,2.78,0,0,1-2-.85,2.7,2.7,0,0,1-.71-2c0-.75-.86-1.2-1.66-1.25l.07-1.06a2.59,2.59,0,0,1,2.65,2.29v0a1.64,1.64,0,0,0,.43,1.23A1.72,1.72,0,0,0,69.4,70Z"/><path class="cls-17" d="M64.25,68.32h0a.79.79,0,0,1-1.1-.24l-.44-.67L64,66.55l0,.06.35.54h0l0,.07A.79.79,0,0,1,64.25,68.32Z"/><circle class="cls-16" cx="68.25" cy="61.68" r="0.89" transform="translate(-22.55 46.92) rotate(-32.87)"/><polygon class="cls-16" points="62.37 65.51 61.78 67.21 60.81 66.87 60.57 66.07 61.17 64.37 61.4 65.17 62.37 65.51"/><polygon class="cls-19" points="74.76 77.14 75.96 75.8 75.2 75.11 74.38 75.29 73.18 76.63 74 76.45 74.76 77.14"/><polygon class="cls-19" points="66.22 62.97 66.39 64.78 64.31 63.91 66.22 62.97"/><polygon class="cls-16" points="111.73 77.68 111.87 78.49 109.88 78.83 111.14 81.1 108.58 81.53 109.83 83.81 107.27 84.24 108.53 86.52 105.39 87.05 105.26 86.24 107.25 85.9 105.99 83.62 108.55 83.19 107.29 80.92 109.86 80.48 108.6 78.21 111.73 77.68"/><path class="cls-15" d="M112.46,72.15a2.78,2.78,0,0,1-.88,2,2.7,2.7,0,0,1-2,.68c-.75,0-1.21.84-1.27,1.64l-1.06-.08a2.59,2.59,0,0,1,2.33-2.62h0a1.64,1.64,0,0,0,1.24-.41,1.72,1.72,0,0,0,.54-1.22Z"/><polygon class="cls-17" points="112.15 75.51 115.62 75.19 111.72 77.06 112.15 75.51"/><polygon class="cls-17" points="118.94 72.45 122.42 72.13 118.52 74 118.94 72.45"/><polygon class="cls-17" points="91.79 45.39 95.26 45.07 91.36 46.94 91.79 45.39"/><polygon class="cls-16" points="108.85 64.77 109.67 64.86 109.44 66.86 111.98 66.28 111.69 68.86 114.22 68.28 113.94 70.86 116.47 70.27 116.12 73.43 115.3 73.34 115.52 71.34 112.99 71.92 113.28 69.34 110.74 69.92 111.03 67.34 108.5 67.93 108.85 64.77"/><path class="cls-15" d="M104.53,62.06a2.78,2.78,0,0,1,1.65,1.39,2.7,2.7,0,0,1,.11,2.1c-.18.73.48,1.39,1.23,1.68l-.37,1a2.59,2.59,0,0,1-1.88-3v0a1.64,1.64,0,0,0-.05-1.3,1.72,1.72,0,0,0-1-.85Z"/><path class="cls-18" d="M112.5,60.28a2.78,2.78,0,0,1,2.14.29,2.7,2.7,0,0,1,1.22,1.72c.23.71,1.15.92,1.94.76l.21,1a2.59,2.59,0,0,1-3.17-1.5v0a1.64,1.64,0,0,0-.74-1.07,1.72,1.72,0,0,0-1.32-.17Z"/><circle class="cls-15" cx="114.16" cy="63.88" r="0.89" transform="translate(-9.49 106.6) rotate(-48.29)"/><polygon class="cls-17" points="108.39 63.48 109.03 60.05 109.76 64.32 108.39 63.48"/><polygon class="cls-15" points="114.22 53.82 113.4 53.82 113.4 51.8 110.95 52.67 110.94 50.07 108.49 50.93 108.49 48.33 106.04 49.19 106.04 46.01 106.86 46.01 106.86 48.03 109.31 47.17 109.32 49.77 111.77 48.91 111.77 51.5 114.22 50.64 114.22 53.82"/><path class="cls-17" d="M110.94,59.94a2.78,2.78,0,0,1-1.43-1.62,2.7,2.7,0,0,1,.2-2.1c.29-.69-.27-1.45-1-1.84l.51-.93a2.59,2.59,0,0,1,1.42,3.2l0,0a1.64,1.64,0,0,0-.14,1.3,1.72,1.72,0,0,0,.89,1Z"/><path class="cls-17" d="M115,50.3h0a.79.79,0,0,1-1-.44l-.31-.74,1.46-.6,0,.07.25.59h0l0,.08A.79.79,0,0,1,115,50.3Z"/><path class="cls-17" d="M101.09,51.26h0a.79.79,0,0,1-1-.44l-.31-.74,1.46-.6,0,.07.25.59h0l0,.08A.79.79,0,0,1,101.09,51.26Z"/><polygon class="cls-16" points="110.07 43.67 109.18 45.23 108.29 44.72 108.2 43.89 109.09 42.33 109.18 43.16 110.07 43.67"/><polygon class="cls-15" points="100.96 68.21 100.15 68.36 99.79 66.37 97.53 67.66 97.06 65.11 94.81 66.4 94.34 63.84 92.08 65.13 91.51 62 92.32 61.85 92.68 63.84 94.94 62.55 95.41 65.11 97.66 63.81 98.13 66.37 100.39 65.08 100.96 68.21"/><polygon class="cls-16" points="107.38 60.35 106.62 60.04 107.37 58.17 104.77 58.06 105.73 55.65 103.14 55.54 104.1 53.12 101.5 53.02 102.68 50.06 103.45 50.37 102.7 52.24 105.3 52.35 104.33 54.76 106.93 54.87 105.97 57.29 108.56 57.39 107.38 60.35"/><path class="cls-17" d="M99.64,72a2.78,2.78,0,0,1-2-.69,2.7,2.7,0,0,1-.87-1.92c-.09-.75-1-1.12-1.76-1.11l0-1.06a2.59,2.59,0,0,1,2.83,2.07v0a1.64,1.64,0,0,0,.52,1.19,1.72,1.72,0,0,0,1.26.42Z"/><path class="cls-18" d="M103,65.71a2.78,2.78,0,0,1-2-.85,2.7,2.7,0,0,1-.71-2c0-.75-.86-1.2-1.66-1.25l.07-1.06a2.59,2.59,0,0,1,2.65,2.29v0a1.64,1.64,0,0,0,.43,1.23,1.72,1.72,0,0,0,1.23.52Z"/><path class="cls-17" d="M97.88,63h0a.79.79,0,0,1-1.1-.24l-.44-.67,1.32-.86,0,.06.35.54h0l0,.07A.79.79,0,0,1,97.88,63Z"/><circle class="cls-16" cx="101.88" cy="56.38" r="0.89" transform="matrix(0.84, -0.54, 0.54, 0.84, -14.29, 64.32)"/><polygon class="cls-16" points="96 60.21 95.41 61.91 94.44 61.57 94.2 60.77 94.8 59.07 95.03 59.87 96 60.21"/><polygon class="cls-19" points="103.29 61.37 104.48 60.03 103.72 59.34 102.9 59.53 101.7 60.87 102.52 60.68 103.29 61.37"/><polygon class="cls-19" points="99.85 57.67 100.02 59.48 97.94 58.6 99.85 57.67"/><polygon class="cls-15" points="135.39 67.1 134.63 66.78 135.4 64.92 132.81 64.78 133.8 62.38 131.21 62.23 132.2 59.83 129.61 59.69 130.82 56.75 131.58 57.06 130.81 58.93 133.41 59.07 132.41 61.48 135.01 61.62 134.01 64.02 136.61 64.16 135.39 67.1"/><polygon class="cls-16" points="146.23 64.4 145.75 63.73 147.4 62.56 145.28 61.06 147.4 59.55 145.28 58.05 147.39 56.55 145.27 55.05 147.87 53.2 148.34 53.88 146.7 55.05 148.82 56.55 146.7 58.05 148.82 59.55 146.7 61.06 148.82 62.56 146.23 64.4"/><path class="cls-15" d="M145.75,68a2.78,2.78,0,0,1,.49-2.1,2.7,2.7,0,0,1,1.83-1.05c.73-.17,1-1.06.93-1.86l1.05-.12a2.59,2.59,0,0,1-1.78,3h0a1.64,1.64,0,0,0-1.14.64,1.72,1.72,0,0,0-.29,1.3Z"/><path class="cls-17" d="M130.47,66.77a2.78,2.78,0,0,1-1.34-1.69,2.7,2.7,0,0,1,.31-2.08c.32-.68-.19-1.46-.87-1.89l.56-.9a2.59,2.59,0,0,1,1.25,3.27l0,0a1.64,1.64,0,0,0-.21,1.29,1.72,1.72,0,0,0,.83,1Z"/><path class="cls-18" d="M138.39,66.1a2.78,2.78,0,0,1-1.2-1.79,2.7,2.7,0,0,1,.48-2.05c.38-.65-.07-1.47-.72-2l.63-.85a2.59,2.59,0,0,1,1,3.36l0,0a1.64,1.64,0,0,0-.31,1.27,1.72,1.72,0,0,0,.75,1.1Z"/><path class="cls-17" d="M135.31,60.4h0a.79.79,0,0,1-.79-.8v-.8h1.58v.07c0,.22,0,.5,0,.64h0v.08A.79.79,0,0,1,135.31,60.4Z"/><circle class="cls-16" cx="143.45" cy="59.39" r="0.89"/><circle class="cls-15" cx="140.55" cy="63.66" r="0.89"/><polygon class="cls-16" points="135.25 57.02 133.83 58.13 133.2 57.31 133.44 56.51 134.86 55.41 134.62 56.21 135.25 57.02"/><path class="cls-17" d="M151.26,58.1h0a.79.79,0,0,1-.79-.8v-.8H152v.07c0,.22,0,.5,0,.64h0v.08A.79.79,0,0,1,151.26,58.1Z"/><polygon class="cls-16" points="151.21 54.72 149.79 55.82 149.16 55.01 149.4 54.21 150.81 53.11 150.58 53.91 151.21 54.72"/><polygon class="cls-19" points="140.4 61.6 142.14 61.13 141.87 60.13 141.08 59.84 139.35 60.32 140.13 60.61 140.4 61.6"/><polygon class="cls-17" points="144.12 64.15 141.13 65.95 143.83 62.57 144.12 64.15"/><polygon class="cls-17" points="137.8 52.66 134.81 54.46 137.51 51.08 137.8 52.66"/><polygon class="cls-19" points="139.86 56.98 139.02 58.59 137.75 56.73 139.86 56.98"/><polygon class="cls-15" points="133.55 70.16 134.1 70.77 132.59 72.11 134.87 73.37 132.93 75.1 135.21 76.36 133.27 78.08 135.54 79.34 133.17 81.46 132.62 80.84 134.13 79.5 131.85 78.24 133.79 76.51 131.51 75.26 133.45 73.53 131.18 72.27 133.55 70.16"/><polygon class="cls-16" points="125.85 70.16 125.99 70.97 124 71.3 125.26 73.58 122.69 74.01 123.95 76.28 121.39 76.72 122.65 78.99 119.51 79.52 119.38 78.71 121.37 78.37 120.11 76.1 122.67 75.67 121.41 73.39 123.97 72.96 122.72 70.69 125.85 70.16"/><path class="cls-15" d="M123.63,62.44a2.78,2.78,0,0,1-.88,2,2.7,2.7,0,0,1-2,.68c-.75,0-1.21.84-1.27,1.64l-1.06-.08A2.59,2.59,0,0,1,120.75,64h0a1.64,1.64,0,0,0,1.24-.41,1.72,1.72,0,0,0,.54-1.22Z"/><path class="cls-17" d="M137.43,66.88a2.78,2.78,0,0,1,.48,2.11,2.7,2.7,0,0,1-1.19,1.74,1.6,1.6,0,0,0,0,2.08l-.9.56a2.59,2.59,0,0,1,.3-3.49l0,0a1.64,1.64,0,0,0,.75-1.07,1.72,1.72,0,0,0-.3-1.3Z"/><path class="cls-18" d="M129.25,67.23a2.78,2.78,0,0,1,.31,2.14A2.7,2.7,0,0,1,128.24,71a1.6,1.6,0,0,0-.2,2.07l-.94.49a2.59,2.59,0,0,1,.57-3.46l0,0a1.64,1.64,0,0,0,.83-1,1.72,1.72,0,0,0-.2-1.32Z"/><path class="cls-17" d="M129.63,73h0a.79.79,0,0,1,.36,1.06l-.35.72-1.42-.69,0-.07.28-.58h0l0-.07A.79.79,0,0,1,129.63,73Z"/><circle class="cls-16" cx="116.03" cy="66.91" r="0.89" transform="translate(5.33 142.31) rotate(-64.23)"/><circle class="cls-16" cx="138.42" cy="54.61" r="0.89" transform="translate(29.05 155.51) rotate(-64.23)"/><circle class="cls-15" cx="126.32" cy="67.79" r="0.89" transform="translate(10.34 152.07) rotate(-64.23)"/><polygon class="cls-16" points="128.21 76.08 129.97 75.7 130.18 76.71 129.62 77.33 127.86 77.7 128.42 77.08 128.21 76.08"/><polygon class="cls-19" points="121.98 68.54 120.21 68.21 120.02 69.23 120.6 69.83 122.37 70.16 121.79 69.55 121.98 68.54"/><polygon class="cls-17" points="123.32 65.8 126.79 65.48 122.89 67.35 123.32 65.8"/><polygon class="cls-19" points="117.27 70.12 118.72 69.04 119.06 71.27 117.27 70.12"/><path class="cls-18" d="M140.74,36.63a2.78,2.78,0,0,1,.31,2.14,2.7,2.7,0,0,1-1.32,1.64,1.6,1.6,0,0,0-.2,2.07l-.94.49a2.59,2.59,0,0,1,.57-3.46l0,0a1.64,1.64,0,0,0,.83-1,1.72,1.72,0,0,0-.2-1.32Z"/><path class="cls-17" d="M141.92,41.59h0a.79.79,0,0,1,.36,1.06l-.35.72-1.42-.69,0-.07.28-.58h0l0-.07A.79.79,0,0,1,141.92,41.59Z"/><polygon class="cls-16" points="142.76 38.86 144.51 38.49 144.73 39.49 144.17 40.11 142.41 40.49 142.97 39.87 142.76 38.86"/><polygon class="cls-19" points="135.74 42.69 137.19 41.6 137.53 43.83 135.74 42.69"/><polygon class="cls-16" points="146.74 26.15 146.88 26.96 144.89 27.3 146.15 29.57 143.58 30.01 144.84 32.28 142.28 32.72 143.54 34.99 140.4 35.52 140.26 34.71 142.25 34.37 141 32.1 143.56 31.66 142.3 29.39 144.86 28.96 143.6 26.68 146.74 26.15"/><path class="cls-15" d="M148.15,21.25a2.78,2.78,0,0,1-.88,2,2.7,2.7,0,0,1-2,.68c-.75,0-1.21.84-1.27,1.64L143,25.47a2.59,2.59,0,0,1,2.33-2.62h0a1.64,1.64,0,0,0,1.24-.41,1.72,1.72,0,0,0,.54-1.22Z"/><circle class="cls-16" cx="146.4" cy="31.87" r="0.89" transform="translate(54.05 149.85) rotate(-64.23)"/><polygon class="cls-19" points="150.09 28.53 148.32 28.2 148.13 29.22 148.71 29.82 150.48 30.15 149.9 29.54 150.09 28.53"/><polygon class="cls-17" points="147.85 24.62 151.32 24.29 147.42 26.17 147.85 24.62"/><polygon class="cls-19" points="133.38 42.63 134.84 41.55 135.17 43.77 133.38 42.63"/><polygon class="cls-15" points="154.99 71.11 155.64 71.61 154.4 73.2 156.86 74.03 155.27 76.08 157.73 76.91 156.13 78.96 158.6 79.79 156.64 82.3 155.99 81.79 157.23 80.2 154.77 79.37 156.37 77.32 153.9 76.49 155.5 74.44 153.03 73.62 154.99 71.11"/><polygon class="cls-16" points="142.45 66.99 142.73 67.76 140.83 68.45 142.48 70.46 140.04 71.34 141.68 73.36 139.24 74.24 140.89 76.25 137.9 77.34 137.62 76.57 139.51 75.88 137.87 73.87 140.31 72.98 138.66 70.97 141.11 70.08 139.46 68.07 142.45 66.99"/><path class="cls-17" d="M158.84,68.65a2.78,2.78,0,0,1,.85,2,2.7,2.7,0,0,1-.85,1.93,1.6,1.6,0,0,0,.34,2.05l-.78.72a2.59,2.59,0,0,1-.34-3.49l0,0a1.64,1.64,0,0,0,.54-1.18,1.72,1.72,0,0,0-.53-1.22Z"/><path class="cls-18" d="M149.36,66.68a2.78,2.78,0,0,1,.68,2,2.7,2.7,0,0,1-1,1.85,1.6,1.6,0,0,0,.18,2.07l-.83.65a2.59,2.59,0,0,1-.06-3.5l0,0a1.64,1.64,0,0,0,.64-1.14,1.72,1.72,0,0,0-.43-1.26Z"/><path class="cls-17" d="M150.91,72.88h0a.79.79,0,0,1,.55,1l-.21.77-1.52-.42,0-.07.17-.62h0l0-.08A.79.79,0,0,1,150.91,72.88Z"/><circle class="cls-16" cx="143.15" cy="73.74" r="0.89" transform="translate(34 192.12) rotate(-74.58)"/><polygon class="cls-16" points="150.06 76.15 151.72 75.46 152.12 76.42 151.67 77.12 150.01 77.81 150.46 77.1 150.06 76.15"/><polygon class="cls-19" points="145.94 69.36 144.14 69.36 144.14 70.39 144.82 70.88 146.62 70.88 145.94 70.39 145.94 69.36"/><polygon class="cls-19" points="145.46 74.39 146.7 73.06 147.43 75.19 145.46 74.39"/><polygon class="cls-15" points="124.96 46.73 125.7 46.37 126.58 48.18 128.41 46.34 129.54 48.68 131.38 46.84 132.51 49.18 134.34 47.33 135.72 50.2 134.98 50.56 134.1 48.74 132.27 50.58 131.14 48.24 129.31 50.09 128.18 47.74 126.34 49.59 124.96 46.73"/><polygon class="cls-16" points="120.02 55.06 120.84 55.15 120.62 57.16 123.15 56.57 122.86 59.15 125.39 58.57 125.11 61.15 127.64 60.56 127.29 63.73 126.47 63.63 126.69 61.63 124.16 62.21 124.45 59.63 121.91 60.22 122.2 57.63 119.67 58.22 120.02 55.06"/><path class="cls-15" d="M115.7,52.35a2.78,2.78,0,0,1,1.65,1.39,2.7,2.7,0,0,1,.11,2.1c-.18.73.48,1.39,1.23,1.68l-.37,1a2.59,2.59,0,0,1-1.88-3v0a1.64,1.64,0,0,0-.05-1.3,1.72,1.72,0,0,0-1-.85Z"/><path class="cls-17" d="M128.48,43.27a2.78,2.78,0,0,1,2.15.12A2.7,2.7,0,0,1,132,45c.29.69,1.22.83,2,.6l.3,1A2.59,2.59,0,0,1,131,45.38v0a1.64,1.64,0,0,0-.82-1,1.72,1.72,0,0,0-1.33-.07Z"/><path class="cls-17" d="M91.25,40.15a2.78,2.78,0,0,1,2.15.12,2.7,2.7,0,0,1,1.35,1.62c.29.69,1.22.83,2,.6l.3,1a2.59,2.59,0,0,1-3.28-1.24v0a1.64,1.64,0,0,0-.82-1,1.72,1.72,0,0,0-1.33-.07Z"/><path class="cls-18" d="M123.72,49.63a2.78,2.78,0,0,1,2.14.29,2.7,2.7,0,0,1,1.22,1.72c.23.71,1.15.92,1.94.76l.21,1a2.59,2.59,0,0,1-3.17-1.5v0a1.64,1.64,0,0,0-.74-1.07,1.72,1.72,0,0,0-1.32-.17Z"/><path class="cls-17" d="M130,51.11h0a.79.79,0,0,1,1.12-.06l.6.53-1,1.18-.05,0-.48-.43h0l-.06-.06A.79.79,0,0,1,130,51.11Z"/><circle class="cls-16" cx="127.22" cy="58.38" r="0.89" transform="translate(-1.01 114.51) rotate(-48.29)"/><circle class="cls-15" cx="124.09" cy="52.86" r="0.89" transform="translate(2.06 110.33) rotate(-48.29)"/><circle class="cls-15" cx="150.01" cy="59.84" r="0.89" transform="translate(5.53 132.02) rotate(-48.29)"/><polygon class="cls-16" points="132.57 53.32 132.69 51.53 133.72 51.6 134.16 52.31 134.04 54.1 133.6 53.39 132.57 53.32"/><polygon class="cls-19" points="125.73 54.12 124.93 55.73 125.85 56.19 126.59 55.8 127.39 54.19 126.65 54.58 125.73 54.12"/><polygon class="cls-17" points="119.56 53.77 120.2 50.34 120.93 54.61 119.56 53.77"/><polygon class="cls-19" points="129.54 56.79 128.9 55.1 131.13 55.39 129.54 56.79"/><polygon class="cls-15" points="126.28 45.1 125.45 45.1 125.45 43.08 123 43.94 123 41.34 120.55 42.21 120.55 39.61 118.1 40.47 118.09 37.29 118.92 37.29 118.92 39.31 121.37 38.45 121.37 41.05 123.83 40.18 123.83 42.78 126.28 41.92 126.28 45.1"/><polygon class="cls-16" points="133.55 36.72 132.85 36.29 133.93 34.58 131.39 34 132.77 31.8 130.24 31.23 131.62 29.03 129.08 28.45 130.77 25.76 131.47 26.2 130.4 27.91 132.93 28.48 131.55 30.68 134.09 31.26 132.71 33.46 135.24 34.03 133.55 36.72"/><path class="cls-15" d="M136.27,41a2.78,2.78,0,0,1-.88-2,2.7,2.7,0,0,1,.82-1.94,1.6,1.6,0,0,0-.38-2l.77-.73a2.59,2.59,0,0,1,.4,3.48l0,0a1.64,1.64,0,0,0-.52,1.19,1.72,1.72,0,0,0,.55,1.21Z"/><path class="cls-17" d="M122.11,50.23a2.78,2.78,0,0,1-1.43-1.62,2.7,2.7,0,0,1,.2-2.1c.29-.69-.27-1.45-1-1.84l.51-.93a2.59,2.59,0,0,1,1.42,3.2l0,0a1.64,1.64,0,0,0-.14,1.3,1.72,1.72,0,0,0,.89,1Z"/><path class="cls-18" d="M128.95,42.05a2.78,2.78,0,0,1-1.8-1.19,2.7,2.7,0,0,1-.35-2.08c.1-.74-.63-1.33-1.41-1.53l.26-1a2.59,2.59,0,0,1,2.2,2.73v0a1.64,1.64,0,0,0,.2,1.29,1.72,1.72,0,0,0,1.11.73Z"/><path class="cls-17" d="M124.38,38.49h0a.79.79,0,0,1-1-.44l-.31-.74,1.46-.6,0,.07.25.59h0l0,.08A.79.79,0,0,1,124.38,38.49Z"/><circle class="cls-16" cx="129.51" cy="32.67" r="0.89" transform="translate(-2.64 52.09) rotate(-22.52)"/><circle class="cls-15" cx="130.48" cy="39.49" r="0.89" transform="translate(-5.17 52.98) rotate(-22.52)"/><polygon class="cls-16" points="121.24 33.96 120.36 35.52 119.46 35.01 119.37 34.18 120.26 32.62 120.35 33.45 121.24 33.96"/><polygon class="cls-19" points="129.55 37.64 130.97 36.54 130.34 35.73 129.5 35.76 128.08 36.86 128.92 36.83 129.55 37.64"/><polygon class="cls-19" points="151.51 37.68 152.93 36.58 152.3 35.77 151.46 35.8 150.04 36.9 150.88 36.87 151.51 37.68"/><polygon class="cls-17" points="133.96 38.58 131.89 41.38 133.09 37.22 133.96 38.58"/><polygon class="cls-19" points="127.28 33.58 127.12 35.38 125.24 34.15 127.28 33.58"/><polygon class="cls-15" points="112.03 64.74 111.22 64.89 110.86 62.9 108.6 64.19 108.13 61.64 105.88 62.92 105.41 60.37 103.15 61.66 102.58 58.53 103.39 58.38 103.75 60.37 106.01 59.08 106.48 61.63 108.73 60.34 109.2 62.9 111.46 61.61 112.03 64.74"/><polygon class="cls-16" points="118.55 50.64 117.79 50.34 118.54 48.46 115.94 48.35 116.91 45.94 114.31 45.83 115.27 43.42 112.67 43.31 113.85 40.35 114.62 40.66 113.87 42.53 116.47 42.64 115.5 45.06 118.1 45.16 117.14 47.58 119.73 47.69 118.55 50.64"/><path class="cls-17" d="M107.81,60.9a2.78,2.78,0,0,1-2-.69,2.7,2.7,0,0,1-.87-1.92c-.09-.75-1-1.12-1.76-1.11l0-1.06A2.59,2.59,0,0,1,106,58.19v0a1.64,1.64,0,0,0,.52,1.19,1.72,1.72,0,0,0,1.26.42Z"/><path class="cls-18" d="M115.44,58.91a2.78,2.78,0,0,1-2-.85,2.7,2.7,0,0,1-.71-2c0-.75-.86-1.2-1.66-1.25l.07-1.06a2.59,2.59,0,0,1,2.65,2.29v0a1.64,1.64,0,0,0,.43,1.23,1.72,1.72,0,0,0,1.23.52Z"/><path class="cls-17" d="M109.05,53.31h0a.79.79,0,0,1-1.1-.24l-.44-.67,1.32-.86,0,.06.35.54h0l0,.07A.79.79,0,0,1,109.05,53.31Z"/><circle class="cls-16" cx="113.05" cy="46.67" r="0.89" transform="translate(-7.23 68.83) rotate(-32.87)"/><polygon class="cls-16" points="107.17 50.5 106.58 52.2 105.61 51.86 105.37 51.06 105.97 49.36 106.2 50.16 107.17 50.5"/><polygon class="cls-19" points="119.56 62.13 120.76 60.79 120 60.1 119.18 60.28 117.98 61.62 118.8 61.44 119.56 62.13"/><polygon class="cls-19" points="111.02 47.96 111.19 49.77 109.12 48.9 111.02 47.96"/><polygon class="cls-16" points="156.53 62.67 156.67 63.48 154.68 63.82 155.94 66.09 153.38 66.52 154.63 68.8 152.07 69.23 153.33 71.51 150.19 72.04 150.06 71.23 152.05 70.89 150.79 68.61 153.35 68.18 152.09 65.91 154.66 65.47 153.4 63.2 156.53 62.67"/><path class="cls-15" d="M157.26,57.13a2.78,2.78,0,0,1-.88,2,2.7,2.7,0,0,1-2,.68c-.75,0-1.21.84-1.27,1.64l-1.06-.08a2.59,2.59,0,0,1,2.33-2.62h0a1.64,1.64,0,0,0,1.24-.41,1.72,1.72,0,0,0,.54-1.22Z"/><polygon class="cls-17" points="156.95 60.5 160.42 60.17 156.52 62.05 156.95 60.5"/><polygon class="cls-16" points="153.65 49.76 154.47 49.85 154.25 51.85 156.78 51.27 156.49 53.85 159.02 53.26 158.74 55.85 161.27 55.26 160.92 58.42 160.1 58.33 160.32 56.33 157.79 56.91 158.08 54.33 155.54 54.91 155.83 52.33 153.3 52.92 153.65 49.76"/><path class="cls-15" d="M149.33,47A2.78,2.78,0,0,1,151,48.44a2.7,2.7,0,0,1,.11,2.1c-.18.73.48,1.39,1.23,1.68l-.37,1a2.59,2.59,0,0,1-1.88-3v0a1.64,1.64,0,0,0-.05-1.3,1.72,1.72,0,0,0-1-.85Z"/><path class="cls-18" d="M157.35,44.32a2.78,2.78,0,0,1,2.14.29,2.7,2.7,0,0,1,1.22,1.72c.23.71,1.15.92,1.94.76l.21,1a2.59,2.59,0,0,1-3.17-1.5v0a1.64,1.64,0,0,0-.74-1.07,1.72,1.72,0,0,0-1.32-.17Z"/><circle class="cls-15" cx="157.72" cy="47.56" r="0.89" transform="translate(17.28 133.66) rotate(-48.29)"/><polygon class="cls-17" points="153.19 48.47 153.83 45.04 154.56 49.31 153.19 48.47"/><polygon class="cls-15" points="159.91 39.8 159.09 39.8 159.08 37.78 156.63 38.64 156.63 36.04 154.18 36.91 154.18 34.31 151.73 35.17 151.72 31.99 152.55 31.99 152.55 34.01 155 33.14 155 35.74 157.46 34.88 157.46 37.48 159.91 36.62 159.91 39.8"/><path class="cls-17" d="M155.74,44.93a2.78,2.78,0,0,1-1.43-1.62,2.7,2.7,0,0,1,.2-2.1c.29-.69-.27-1.45-1-1.84l.51-.93a2.59,2.59,0,0,1,1.42,3.2l0,0a1.64,1.64,0,0,0-.14,1.3,1.72,1.72,0,0,0,.89,1Z"/><path class="cls-17" d="M158,33.18h0a.79.79,0,0,1-1-.44l-.31-.74,1.46-.6,0,.07.25.59h0l0,.08A.79.79,0,0,1,158,33.18Z"/><path class="cls-17" d="M145.89,36.25h0a.79.79,0,0,1-1-.44l-.31-.74,1.46-.6,0,.07.25.59h0l0,.08A.79.79,0,0,1,145.89,36.25Z"/><polygon class="cls-16" points="154.87 28.66 153.98 30.22 153.09 29.71 153 28.88 153.89 27.32 153.98 28.15 154.87 28.66"/><polygon class="cls-15" points="145.76 53.2 144.95 53.35 144.59 51.36 142.33 52.65 141.86 50.1 139.6 51.38 139.14 48.83 136.88 50.12 136.31 46.99 137.12 46.84 137.48 48.83 139.74 47.54 140.21 50.09 142.46 48.8 142.93 51.36 145.19 50.07 145.76 53.2"/><polygon class="cls-16" points="152.18 45.34 151.42 45.03 152.17 43.16 149.57 43.05 150.53 40.64 147.94 40.53 148.9 38.11 146.3 38 147.48 35.05 148.25 35.35 147.5 37.23 150.1 37.34 149.13 39.75 151.73 39.86 150.77 42.28 153.36 42.38 152.18 45.34"/><path class="cls-17" d="M144.44,57a2.78,2.78,0,0,1-2-.69,2.7,2.7,0,0,1-.87-1.92c-.09-.75-1-1.12-1.76-1.11l0-1.06a2.59,2.59,0,0,1,2.83,2.07v0a1.64,1.64,0,0,0,.52,1.19,1.72,1.72,0,0,0,1.26.42Z"/><path class="cls-18" d="M147.81,50.7a2.78,2.78,0,0,1-2-.85,2.7,2.7,0,0,1-.71-2c0-.75-.86-1.2-1.66-1.25l.07-1.06a2.59,2.59,0,0,1,2.65,2.29v0a1.64,1.64,0,0,0,.43,1.23,1.72,1.72,0,0,0,1.23.52Z"/><path class="cls-17" d="M142.68,48h0a.79.79,0,0,1-1.1-.24l-.44-.67,1.32-.86,0,.06.35.54h0l0,.07A.79.79,0,0,1,142.68,48Z"/><circle class="cls-16" cx="146.68" cy="41.37" r="0.89" transform="matrix(0.84, -0.54, 0.54, 0.84, 1.03, 86.23)"/><polygon class="cls-16" points="140.8 45.2 140.21 46.9 139.24 46.56 139 45.75 139.6 44.06 139.83 44.86 140.8 45.2"/><polygon class="cls-19" points="148.09 46.36 149.28 45.02 148.52 44.33 147.7 44.52 146.5 45.85 147.32 45.67 148.09 46.36"/><polygon class="cls-19" points="144.65 42.66 144.82 44.47 142.75 43.59 144.65 42.66"/><polygon class="cls-15" points="123.09 110.76 122.33 110.45 123.11 108.58 120.51 108.44 121.51 106.04 118.91 105.9 119.91 103.5 117.31 103.36 118.53 100.42 119.29 100.73 118.51 102.6 121.11 102.74 120.12 105.14 122.71 105.28 121.72 107.68 124.31 107.82 123.09 110.76"/><polygon class="cls-16" points="133.93 108.06 133.46 107.39 135.1 106.22 132.98 104.72 135.1 103.22 132.98 101.72 135.1 100.21 132.97 98.71 135.57 96.87 136.04 97.54 134.4 98.71 136.52 100.21 134.4 101.72 136.52 103.22 134.4 104.72 136.53 106.22 133.93 108.06"/><path class="cls-15" d="M133.45,111.71a2.78,2.78,0,0,1,.49-2.1,2.7,2.7,0,0,1,1.83-1.05c.73-.17,1-1.06.93-1.86l1.05-.12a2.59,2.59,0,0,1-1.78,3h0a1.64,1.64,0,0,0-1.14.64,1.72,1.72,0,0,0-.29,1.3Z"/><path class="cls-17" d="M118.17,110.43a2.78,2.78,0,0,1-1.34-1.69,2.7,2.7,0,0,1,.31-2.08c.32-.68-.19-1.46-.87-1.89l.56-.9a2.59,2.59,0,0,1,1.25,3.27l0,0a1.64,1.64,0,0,0-.21,1.29,1.72,1.72,0,0,0,.83,1Z"/><path class="cls-18" d="M126.09,109.76a2.78,2.78,0,0,1-1.2-1.79,2.7,2.7,0,0,1,.48-2.05c.38-.65-.07-1.47-.72-2l.63-.85a2.59,2.59,0,0,1,1,3.36l0,0a1.64,1.64,0,0,0-.31,1.27,1.72,1.72,0,0,0,.75,1.1Z"/><path class="cls-17" d="M123,104.07h0a.79.79,0,0,1-.79-.8v-.8h1.58v.07c0,.22,0,.5,0,.64h0v.08A.79.79,0,0,1,123,104.07Z"/><circle class="cls-16" cx="131.15" cy="103.06" r="0.89"/><circle class="cls-15" cx="128.26" cy="107.33" r="0.89"/><polygon class="cls-16" points="122.95 100.69 121.53 101.79 120.9 100.98 121.14 100.18 122.56 99.08 122.32 99.88 122.95 100.69"/><path class="cls-17" d="M139,101.76h0a.79.79,0,0,1-.79-.8v-.8h1.58v.07c0,.22,0,.5,0,.64h0V101A.79.79,0,0,1,139,101.76Z"/><polygon class="cls-16" points="138.91 98.39 137.49 99.49 136.86 98.68 137.1 97.88 138.52 96.77 138.28 97.57 138.91 98.39"/><polygon class="cls-19" points="128.1 105.27 129.84 104.79 129.57 103.8 128.78 103.51 127.05 103.98 127.83 104.27 128.1 105.27"/><polygon class="cls-17" points="131.82 107.82 128.84 109.62 131.53 106.23 131.82 107.82"/><polygon class="cls-17" points="125.5 96.33 122.52 98.13 125.21 94.74 125.5 96.33"/><polygon class="cls-19" points="127.56 100.65 126.72 102.25 125.46 100.39 127.56 100.65"/><polygon class="cls-15" points="121 110.86 121.55 111.47 120.05 112.82 122.32 114.07 120.38 115.8 122.66 117.06 120.72 118.79 122.99 120.05 120.62 122.16 120.07 121.55 121.58 120.21 119.3 118.95 121.24 117.22 118.97 115.96 120.91 114.23 118.63 112.98 121 110.86"/><polygon class="cls-16" points="109.91 111 110.05 111.81 108.06 112.15 109.32 114.42 106.76 114.86 108.02 117.13 105.45 117.56 106.71 119.84 103.58 120.37 103.44 119.56 105.43 119.22 104.17 116.95 106.73 116.51 105.47 114.24 108.03 113.81 106.78 111.53 109.91 111"/><path class="cls-15" d="M111.33,106.1a2.78,2.78,0,0,1-.88,2,2.7,2.7,0,0,1-2,.68c-.75,0-1.21.84-1.27,1.64l-1.06-.08a2.59,2.59,0,0,1,2.33-2.62h0a1.64,1.64,0,0,0,1.24-.41,1.72,1.72,0,0,0,.54-1.22Z"/><path class="cls-17" d="M125.14,110.54a2.78,2.78,0,0,1,.48,2.11,2.7,2.7,0,0,1-1.19,1.74,1.6,1.6,0,0,0,0,2.08l-.9.56a2.59,2.59,0,0,1,.3-3.49l0,0a1.64,1.64,0,0,0,.75-1.07,1.72,1.72,0,0,0-.3-1.3Z"/><path class="cls-18" d="M117,110.9a2.78,2.78,0,0,1,.31,2.14,2.7,2.7,0,0,1-1.32,1.64,1.6,1.6,0,0,0-.2,2.07l-.94.49a2.59,2.59,0,0,1,.57-3.46l0,0a1.64,1.64,0,0,0,.83-1,1.72,1.72,0,0,0-.2-1.32Z"/><path class="cls-17" d="M117.33,116.68h0a.79.79,0,0,1,.36,1.06l-.35.72-1.42-.69,0-.07.28-.58h0l0-.07A.79.79,0,0,1,117.33,116.68Z"/><circle class="cls-16" cx="109.58" cy="116.72" r="0.89" transform="translate(-43.18 164.64) rotate(-64.23)"/><circle class="cls-16" cx="126.12" cy="98.28" r="0.89" transform="translate(-17.22 169.12) rotate(-64.23)"/><circle class="cls-15" cx="114.02" cy="111.46" r="0.89" transform="translate(-35.93 165.67) rotate(-64.23)"/><polygon class="cls-16" points="115.91 119.74 117.67 119.37 117.88 120.37 117.32 120.99 115.56 121.37 116.12 120.75 115.91 119.74"/><polygon class="cls-19" points="113.26 113.38 111.49 113.06 111.31 114.07 111.89 114.67 113.65 115 113.07 114.39 113.26 113.38"/><polygon class="cls-17" points="111.02 109.47 114.49 109.14 110.59 111.02 111.02 109.47"/><polygon class="cls-19" points="111.74 117.78 113.19 116.7 113.53 118.92 111.74 117.78"/><path class="cls-18" d="M128.44,80.29a2.78,2.78,0,0,1,.31,2.14,2.7,2.7,0,0,1-1.32,1.64,1.6,1.6,0,0,0-.2,2.07l-.94.49a2.59,2.59,0,0,1,.57-3.46l0,0a1.64,1.64,0,0,0,.83-1,1.72,1.72,0,0,0-.2-1.32Z"/><path class="cls-17" d="M129.62,85.25h0a.79.79,0,0,1,.36,1.06l-.35.72-1.42-.69,0-.07.28-.58h0l0-.07A.79.79,0,0,1,129.62,85.25Z"/><polygon class="cls-16" points="130.46 82.53 132.22 82.15 132.43 83.16 131.87 83.78 130.11 84.15 130.67 83.53 130.46 82.53"/><polygon class="cls-19" points="123.44 86.35 124.89 85.27 125.23 87.5 123.44 86.35"/><polygon class="cls-16" points="146.69 67.44 146.82 68.25 144.84 68.59 146.09 70.86 143.53 71.3 144.79 73.57 142.23 74 143.49 76.28 140.35 76.81 140.21 76 142.2 75.66 140.94 73.39 143.51 72.95 142.25 70.68 144.81 70.24 143.55 67.97 146.69 67.44"/><path class="cls-15" d="M135.86,64.92a2.78,2.78,0,0,1-.88,2,2.7,2.7,0,0,1-2,.68c-.75,0-1.21.84-1.27,1.64l-1.06-.08A2.59,2.59,0,0,1,133,66.51h0a1.64,1.64,0,0,0,1.24-.41,1.72,1.72,0,0,0,.54-1.22Z"/><circle class="cls-16" cx="134.1" cy="75.53" r="0.89" transform="translate(7.77 163.46) rotate(-64.23)"/><polygon class="cls-19" points="137.79 72.2 136.02 71.87 135.83 72.88 136.41 73.48 138.18 73.81 137.6 73.21 137.79 72.2"/><polygon class="cls-17" points="135.55 68.28 139.02 67.96 135.12 69.83 135.55 68.28"/><polygon class="cls-19" points="121.08 86.29 122.54 85.21 122.87 87.44 121.08 86.29"/><polygon class="cls-15" points="142.69 114.77 143.34 115.28 142.1 116.87 144.56 117.7 142.97 119.75 145.43 120.57 143.83 122.62 146.3 123.45 144.34 125.96 143.69 125.46 144.94 123.86 142.47 123.03 144.07 120.98 141.6 120.16 143.2 118.11 140.74 117.28 142.69 114.77"/><polygon class="cls-16" points="130.15 110.65 130.43 111.42 128.53 112.11 130.18 114.12 127.74 115.01 129.38 117.02 126.94 117.91 128.59 119.92 125.6 121.01 125.32 120.23 127.22 119.54 125.57 117.53 128.01 116.64 126.36 114.63 128.81 113.75 127.16 111.74 130.15 110.65"/><path class="cls-17" d="M146.55,112.32a2.78,2.78,0,0,1,.85,2,2.7,2.7,0,0,1-.85,1.93,1.6,1.6,0,0,0,.34,2.05l-.78.72a2.59,2.59,0,0,1-.34-3.49l0,0a1.64,1.64,0,0,0,.54-1.18,1.72,1.72,0,0,0-.53-1.22Z"/><path class="cls-18" d="M137.06,110.35a2.78,2.78,0,0,1,.68,2,2.7,2.7,0,0,1-1,1.85,1.6,1.6,0,0,0,.18,2.07l-.83.65a2.59,2.59,0,0,1-.06-3.5l0,0a1.64,1.64,0,0,0,.64-1.14,1.72,1.72,0,0,0-.43-1.26Z"/><path class="cls-17" d="M138.61,116.54h0a.79.79,0,0,1,.55,1l-.21.77-1.52-.42,0-.07.17-.62h0l0-.08A.79.79,0,0,1,138.61,116.54Z"/><circle class="cls-16" cx="130.85" cy="117.4" r="0.89" transform="translate(-17.12 212.32) rotate(-74.58)"/><polygon class="cls-16" points="137.76 119.81 139.43 119.13 139.82 120.08 139.38 120.79 137.71 121.48 138.16 120.77 137.76 119.81"/><polygon class="cls-19" points="133.64 113.03 131.84 113.03 131.84 114.06 132.52 114.54 134.32 114.55 133.64 114.06 133.64 113.03"/><polygon class="cls-19" points="133.16 118.05 134.4 116.73 135.13 118.86 133.16 118.05"/><polygon class="cls-15" points="112.66 90.39 113.4 90.03 114.28 91.85 116.11 90 117.24 92.34 119.08 90.5 120.21 92.84 122.04 91 123.42 93.86 122.68 94.22 121.81 92.4 119.97 94.25 118.84 91.91 117.01 93.75 115.88 91.41 114.05 93.25 112.66 90.39"/><polygon class="cls-16" points="107.72 98.72 108.54 98.81 108.32 100.82 110.85 100.23 110.56 102.82 113.09 102.23 112.81 104.81 115.34 104.23 114.99 107.39 114.17 107.3 114.39 105.29 111.86 105.88 112.15 103.3 109.62 103.88 109.9 101.3 107.37 101.89 107.72 98.72"/><path class="cls-15" d="M103.4,96a2.78,2.78,0,0,1,1.65,1.39,2.7,2.7,0,0,1,.11,2.1c-.18.73.48,1.39,1.23,1.68l-.37,1a2.59,2.59,0,0,1-1.88-3v0a1.64,1.64,0,0,0-.05-1.3,1.72,1.72,0,0,0-1-.85Z"/><path class="cls-17" d="M116.19,86.93a2.78,2.78,0,0,1,2.15.12,2.7,2.7,0,0,1,1.35,1.62c.29.69,1.22.83,2,.6l.3,1A2.59,2.59,0,0,1,118.7,89v0a1.64,1.64,0,0,0-.82-1,1.72,1.72,0,0,0-1.33-.07Z"/><path class="cls-18" d="M111.42,93.29a2.78,2.78,0,0,1,2.14.29,2.7,2.7,0,0,1,1.22,1.72c.23.71,1.15.92,1.94.76l.21,1a2.59,2.59,0,0,1-3.17-1.5v0a1.64,1.64,0,0,0-.74-1.07,1.72,1.72,0,0,0-1.32-.17Z"/><path class="cls-17" d="M117.72,94.78h0a.79.79,0,0,1,1.12-.06l.6.53-1,1.18-.05,0-.48-.43h0l-.06-.06A.79.79,0,0,1,117.72,94.78Z"/><circle class="cls-16" cx="114.92" cy="102.04" r="0.89" transform="translate(-37.72 119.94) rotate(-48.29)"/><circle class="cls-15" cx="111.79" cy="96.53" r="0.89" transform="translate(-34.65 115.76) rotate(-48.29)"/><circle class="cls-15" cx="137.71" cy="103.51" r="0.89" transform="translate(-31.19 137.45) rotate(-48.29)"/><polygon class="cls-16" points="120.28 96.99 120.4 95.19 121.42 95.26 121.86 95.97 121.74 97.77 121.3 97.06 120.28 96.99"/><polygon class="cls-19" points="113.43 97.79 112.63 99.4 113.55 99.85 114.29 99.46 115.09 97.85 114.35 98.24 113.43 97.79"/><polygon class="cls-17" points="107.26 97.44 107.9 94.01 108.63 98.28 107.26 97.44"/><polygon class="cls-19" points="117.24 100.46 116.6 98.76 118.83 99.05 117.24 100.46"/><polygon class="cls-15" points="124.86 100.44 124.04 100.44 124.04 98.42 121.59 99.29 121.59 96.69 119.14 97.55 119.14 94.95 116.68 95.81 116.68 92.63 117.5 92.63 117.51 94.65 119.96 93.79 119.96 96.39 122.41 95.53 122.41 98.12 124.86 97.26 124.86 100.44"/><path class="cls-15" d="M124,84.71a2.78,2.78,0,0,1-.88-2,2.7,2.7,0,0,1,.82-1.94,1.6,1.6,0,0,0-.38-2l.77-.73a2.59,2.59,0,0,1,.4,3.48l0,0a1.64,1.64,0,0,0-.52,1.19,1.72,1.72,0,0,0,.55,1.21Z"/><path class="cls-17" d="M109.81,93.9a2.78,2.78,0,0,1-1.43-1.62,2.7,2.7,0,0,1,.2-2.1c.29-.69-.27-1.45-1-1.84l.51-.93a2.59,2.59,0,0,1,1.42,3.2l0,0a1.64,1.64,0,0,0-.14,1.3,1.72,1.72,0,0,0,.89,1Z"/><path class="cls-18" d="M116.65,85.72a2.78,2.78,0,0,1-1.8-1.19,2.7,2.7,0,0,1-.35-2.08c.1-.74-.63-1.33-1.41-1.53l.26-1a2.59,2.59,0,0,1,2.2,2.73v0a1.64,1.64,0,0,0,.2,1.29,1.72,1.72,0,0,0,1.11.73Z"/><path class="cls-17" d="M112.08,82.15h0a.79.79,0,0,1-1-.44l-.31-.74,1.46-.6,0,.07.25.59h0l0,.08A.79.79,0,0,1,112.08,82.15Z"/><circle class="cls-16" cx="117.21" cy="76.34" r="0.89" transform="translate(-20.3 50.71) rotate(-22.52)"/><circle class="cls-15" cx="118.18" cy="83.15" r="0.89" transform="translate(-22.84 51.6) rotate(-22.52)"/><polygon class="cls-16" points="108.94 77.62 108.06 79.19 107.16 78.68 107.07 77.85 107.96 76.28 108.05 77.11 108.94 77.62"/><polygon class="cls-19" points="117.25 81.31 118.67 80.2 118.04 79.39 117.2 79.42 115.78 80.53 116.62 80.49 117.25 81.31"/><polygon class="cls-19" points="139.21 81.35 140.63 80.24 140 79.43 139.16 79.46 137.74 80.57 138.58 80.53 139.21 81.35"/><polygon class="cls-17" points="121.66 82.24 119.59 85.05 120.79 80.89 121.66 82.24"/><polygon class="cls-19" points="114.98 77.25 114.82 79.05 112.94 77.82 114.98 77.25"/><polygon class="cls-15" points="99.83 102.17 99.02 102.32 98.66 100.33 96.4 101.62 95.93 99.06 93.68 100.35 93.21 97.8 90.95 99.08 90.38 95.96 91.19 95.81 91.55 97.79 93.81 96.5 94.28 99.06 96.53 97.77 97 100.33 99.26 99.04 99.83 102.17"/><polygon class="cls-16" points="116.9 104.31 116.14 104 116.89 102.13 114.29 102.02 115.25 99.6 112.66 99.5 113.62 97.08 111.02 96.97 112.2 94.02 112.97 94.32 112.22 96.2 114.81 96.31 113.85 98.72 116.45 98.83 115.48 101.24 118.08 101.35 116.9 104.31"/><path class="cls-17" d="M95.51,104.56a2.78,2.78,0,0,1-2-.69A2.7,2.7,0,0,1,92.6,102c-.09-.75-1-1.12-1.76-1.11l0-1.06a2.59,2.59,0,0,1,2.83,2.07v0a1.64,1.64,0,0,0,.52,1.19,1.72,1.72,0,0,0,1.26.42Z"/><path class="cls-18" d="M101.89,99.66a2.78,2.78,0,0,1-2-.85,2.7,2.7,0,0,1-.71-2c0-.75-.86-1.2-1.66-1.25l.07-1.06a2.59,2.59,0,0,1,2.65,2.29v0a1.64,1.64,0,0,0,.43,1.23,1.72,1.72,0,0,0,1.23.52Z"/><path class="cls-17" d="M96.75,97h0a.79.79,0,0,1-1.1-.24l-.44-.67,1.32-.86,0,.06.35.54h0l0,.07A.79.79,0,0,1,96.75,97Z"/><circle class="cls-16" cx="100.83" cy="88.96" r="0.89" transform="translate(-32.14 68.97) rotate(-32.87)"/><polygon class="cls-16" points="94.88 94.17 94.28 95.86 93.31 95.52 93.08 94.72 93.67 93.03 93.9 93.83 94.88 94.17"/><polygon class="cls-19" points="107.27 105.79 108.47 104.45 107.7 103.77 106.88 103.95 105.68 105.29 106.5 105.11 107.27 105.79"/><polygon class="cls-19" points="98.73 91.63 98.89 93.43 96.82 92.56 98.73 91.63"/><polygon class="cls-16" points="144.23 106.33 144.37 107.15 142.38 107.48 143.64 109.76 141.08 110.19 142.34 112.46 139.77 112.9 141.03 115.17 137.9 115.7 137.76 114.89 139.75 114.55 138.49 112.28 141.05 111.84 139.79 109.57 142.36 109.14 141.1 106.86 144.23 106.33"/><path class="cls-15" d="M145,100.8a2.78,2.78,0,0,1-.88,2,2.7,2.7,0,0,1-2,.68c-.75,0-1.21.84-1.27,1.64l-1.06-.08a2.59,2.59,0,0,1,2.33-2.62h0a1.64,1.64,0,0,0,1.24-.41,1.72,1.72,0,0,0,.54-1.22Z"/><polygon class="cls-17" points="144.65 104.16 148.12 103.84 144.22 105.72 144.65 104.16"/><polygon class="cls-16" points="141.35 93.42 142.17 93.51 141.95 95.52 144.48 94.93 144.19 97.52 146.72 96.93 146.44 99.51 148.97 98.93 148.62 102.09 147.8 102 148.02 99.99 145.49 100.58 145.78 97.99 143.25 98.58 143.53 96 141 96.58 141.35 93.42"/><path class="cls-15" d="M137,90.71a2.78,2.78,0,0,1,1.65,1.39,2.7,2.7,0,0,1,.11,2.1c-.18.73.48,1.39,1.23,1.68l-.37,1a2.59,2.59,0,0,1-1.88-3v0a1.64,1.64,0,0,0-.05-1.3,1.72,1.72,0,0,0-1-.85Z"/><path class="cls-18" d="M145,88a2.78,2.78,0,0,1,2.14.29A2.7,2.7,0,0,1,148.4,90c.23.71,1.15.92,1.94.76l.21,1a2.59,2.59,0,0,1-3.17-1.5v0a1.64,1.64,0,0,0-.74-1.07,1.72,1.72,0,0,0-1.32-.17Z"/><circle class="cls-15" cx="145.42" cy="91.23" r="0.89" transform="translate(-19.44 139.09) rotate(-48.29)"/><polygon class="cls-17" points="140.89 92.13 141.53 88.71 142.26 92.97 140.89 92.13"/><polygon class="cls-15" points="147.61 83.46 146.79 83.46 146.78 81.44 144.33 82.31 144.33 79.71 141.88 80.57 141.88 77.97 139.43 78.83 139.43 75.65 140.25 75.65 140.25 77.67 142.7 76.81 142.7 79.41 145.16 78.55 145.16 81.14 147.61 80.28 147.61 83.46"/><path class="cls-17" d="M143.44,88.6A2.78,2.78,0,0,1,142,87a2.7,2.7,0,0,1,.2-2.1c.29-.69-.27-1.45-1-1.84l.51-.93a2.59,2.59,0,0,1,1.42,3.2l0,0a1.64,1.64,0,0,0-.14,1.3,1.72,1.72,0,0,0,.89,1Z"/><path class="cls-17" d="M145.71,76.85h0a.79.79,0,0,1-1-.44l-.31-.74,1.46-.6,0,.07.25.59h0l0,.08A.79.79,0,0,1,145.71,76.85Z"/><path class="cls-17" d="M130.61,80.68h0a.79.79,0,0,1-1-.44l-.31-.74,1.46-.6,0,.07.25.59h0l0,.08A.79.79,0,0,1,130.61,80.68Z"/><polygon class="cls-16" points="142.57 72.32 141.69 73.88 140.79 73.38 140.7 72.54 141.59 70.98 141.68 71.81 142.57 72.32"/><polygon class="cls-15" points="133.46 96.86 132.65 97.01 132.29 95.03 130.03 96.32 129.56 93.76 127.31 95.05 126.84 92.49 124.58 93.78 124.01 90.66 124.82 90.51 125.18 92.49 127.44 91.2 127.91 93.76 130.16 92.47 130.63 95.03 132.89 93.74 133.46 96.86"/><polygon class="cls-16" points="139.88 89 139.12 88.7 139.87 86.82 137.27 86.72 138.24 84.3 135.64 84.19 136.6 81.78 134 81.67 135.18 78.72 135.95 79.02 135.2 80.9 137.8 81 136.83 83.42 139.43 83.53 138.47 85.94 141.06 86.05 139.88 89"/><path class="cls-17" d="M132.14,100.66a2.78,2.78,0,0,1-2-.69,2.7,2.7,0,0,1-.87-1.92c-.09-.75-1-1.12-1.76-1.11l0-1.06A2.59,2.59,0,0,1,130.28,98v0a1.64,1.64,0,0,0,.52,1.19,1.72,1.72,0,0,0,1.26.42Z"/><path class="cls-18" d="M135.51,94.36a2.78,2.78,0,0,1-2-.85,2.7,2.7,0,0,1-.71-2c0-.75-.86-1.2-1.66-1.25l.07-1.06a2.59,2.59,0,0,1,2.65,2.29v0a1.64,1.64,0,0,0,.43,1.23,1.72,1.72,0,0,0,1.23.52Z"/><path class="cls-17" d="M130.38,91.67h0a.79.79,0,0,1-1.1-.24l-.44-.67,1.32-.86,0,.06.35.54h0l0,.07A.79.79,0,0,1,130.38,91.67Z"/><circle class="cls-16" cx="134.38" cy="85.03" r="0.89" transform="translate(-24.64 86.54) rotate(-32.87)"/><polygon class="cls-16" points="128.5 88.86 127.91 90.56 126.94 90.22 126.7 89.42 127.3 87.72 127.53 88.53 128.5 88.86"/><polygon class="cls-19" points="135.79 90.02 136.99 88.68 136.22 88 135.4 88.18 134.21 89.52 135.02 89.34 135.79 90.02"/><polygon class="cls-19" points="132.35 86.33 132.52 88.13 130.45 87.26 132.35 86.33"/></g></g><path class="cls-9" d="M115.82,12.43c0-5-1.29-8.74-9.56-9.56s-8.6,4.6-8.55,9.56,4,7.36,9,7.36S115.82,17.43,115.82,12.43Z"/><g class="cls-20"><circle class="cls-21" cx="107.46" cy="40.57" r="10.33"/></g><g class="cls-22"><g class="cls-23"><path class="cls-5" d="M95.34,24a11.41,11.41,0,1,0,22.81,0,11.68,11.68,0,0,0-.51-3.43h.76v-5.4A2.2,2.2,0,0,0,116.34,13,11.78,11.78,0,0,0,106.26,2.87C95.59,1.75,98,13.34,97.71,13a5.65,5.65,0,0,0-1,.11,2.16,2.16,0,0,0-1.62,2v5.4h.74A11.69,11.69,0,0,0,95.34,24Z"/><polygon class="cls-5" points="120.48 40.57 115.05 40.57 115.05 38.3 113.52 38.3 111.09 38.3 111.09 40.57 103.06 40.57 103.06 38.3 101.53 38.3 99.1 38.3 99.1 40.57 93.64 40.57 93.21 40.57 90.62 40.57 90.62 86.55 93.11 86.55 93.11 90.04 93.31 90.04 93.7 90.04 93.73 113.55 96.21 113.55 96.21 157.18 103.06 157.18 104.42 113.55 110.58 113.55 111.93 157.21 118.78 157.21 118.78 113.55 120.57 113.55 120.55 97.31 120.57 97.31 120.56 90.04 120.57 90.04 121 90.04 120.99 86.55 123.53 86.55 123.53 40.57 120.9 40.57 120.48 40.57"/><polygon class="cls-5" points="88.66 42.58 81.88 42.58 81.57 42.58 81.18 42.58 81.18 85.19 82.32 85.19 82.35 88.44 82.35 96.56 87.88 96.56 87.88 88.45 87.89 88.45 87.95 85.19 89.36 85.19 89.36 42.58 88.98 42.58 88.66 42.58"/><polygon class="cls-5" points="133.16 42.58 132.78 42.58 125.37 42.58 124.98 42.58 124.98 85.19 126.25 85.19 126.27 86.22 126.3 88.96 126.3 88.96 126.3 96.95 131.83 96.95 131.83 88.96 131.84 88.96 131.89 86.22 131.89 86.22 131.91 85.19 133.16 85.19 133.16 42.58"/></g></g><g class="cls-24"><line class="cls-25" x1="96.26" y1="20.52" x2="96.26" y2="13.77"/><line class="cls-25" x1="97.76" y1="20.52" x2="97.76" y2="13.77"/><line class="cls-25" x1="99.26" y1="20.52" x2="99.26" y2="13.77"/><line class="cls-25" x1="100.76" y1="20.52" x2="100.76" y2="13.77"/><line class="cls-25" x1="102.26" y1="20.52" x2="102.26" y2="13.77"/><line class="cls-25" x1="103.76" y1="20.52" x2="103.76" y2="13.77"/><line class="cls-25" x1="105.26" y1="20.52" x2="105.26" y2="13.77"/><line class="cls-25" x1="106.76" y1="20.52" x2="106.76" y2="13.77"/><line class="cls-25" x1="108.26" y1="20.52" x2="108.26" y2="13.77"/><line class="cls-25" x1="109.76" y1="20.52" x2="109.76" y2="13.77"/><line class="cls-25" x1="111.26" y1="20.52" x2="111.26" y2="13.77"/><line class="cls-25" x1="112.76" y1="20.52" x2="112.76" y2="13.77"/><line class="cls-25" x1="114.26" y1="20.52" x2="114.26" y2="13.77"/><line class="cls-25" x1="115.76" y1="20.52" x2="115.76" y2="13.77"/><line class="cls-25" x1="117.26" y1="20.52" x2="117.26" y2="13.77"/></g></g></g></g></svg>