<svg xmlns="http://www.w3.org/2000/svg" xmlns:xlink="http://www.w3.org/1999/xlink" viewBox="0 0 92.58 145.06"><defs><style>.cls-1{fill:none;}.cls-2{isolation:isolate;}.cls-10,.cls-3{mix-blend-mode:multiply;}.cls-4{opacity:0.39;}.cls-5{fill:#999;}.cls-6{fill:#74c7a5;}.cls-7{fill:#487b66;}.cls-8{fill:#333;}.cls-9{clip-path:url(#clip-path);}.cls-10{opacity:0.4;}</style><clipPath id="clip-path"><polygon class="cls-1" points="39.51 148.87 66.06 145.94 66.06 0.32 39.51 3.25 39.51 148.87"/></clipPath></defs><title>Asset 36</title><g class="cls-2"><g id="Layer_2" data-name="Layer 2"><g id="Layer_1-2" data-name="Layer 1"><g class="cls-3"><g class="cls-4"><polygon class="cls-5" points="22.31 109.9 0 109.77 54.28 144.54 77.04 144.67 22.31 109.9"/></g></g><rect class="cls-6" x="84.28" y="32.01" width="5.66" height="47.89"/><polygon class="cls-6" points="40.58 31.78 46.23 31.78 46.22 79.49 40.57 79.49 40.58 31.78"/><rect class="cls-6" x="54.25" y="79.49" width="7.01" height="65.22"/><rect class="cls-6" x="70.33" y="79.14" width="7.01" height="65.61"/><path class="cls-6" d="M77.71,11.72A11.67,11.67,0,1,0,66,23.47,11.7,11.7,0,0,0,77.71,11.72Z"/><polygon class="cls-7" points="47.1 67.82 40.82 67.82 40.82 31.73 48.09 31.73 47.1 67.82"/><polygon class="cls-7" points="90.25 67.82 83.97 67.82 82.99 31.73 90.25 31.73 90.25 67.82"/><polygon class="cls-8" points="63.67 107.89 53.05 107.89 53.05 80.32 65.18 80.32 63.67 107.89"/><rect class="cls-8" x="57.76" y="73.13" width="16.08" height="18.34"/><rect class="cls-7" x="39.5" y="61.28" width="8.59" height="6.54"/><polygon class="cls-8" points="78.54 107.89 68.52 107.89 66.41 82.27 78.54 80.32 78.54 107.89"/><rect class="cls-7" x="82.99" y="61.28" width="8.59" height="6.54"/><rect class="cls-7" x="50.44" y="28.8" width="10.82" height="55.66"/><rect class="cls-7" x="70.1" y="28.8" width="10.82" height="55.66"/><rect class="cls-7" x="55.85" y="27.13" width="5.41" height="3.63"/><rect class="cls-7" x="70.14" y="27.13" width="5.41" height="3.63"/><g class="cls-9"><g class="cls-10"><path class="cls-5" d="M66.06,23.79A11.74,11.74,0,1,0,54.4,12,11.7,11.7,0,0,0,66.06,23.79Z"/><polygon class="cls-5" points="40.84 32.05 40.84 32.09 40.59 32.09 40.59 61.6 39.51 61.6 39.51 68.13 40.59 68.13 40.59 79.81 46.24 79.81 46.24 68.13 47.12 68.13 48.11 68.13 48.11 61.6 47.29 61.6 48.11 32.05 40.84 32.05"/><polygon class="cls-5" points="91.25 61.6 91.25 29.12 83.98 29.12 84.8 61.6 83.98 61.6 83.98 68.13 84.97 68.13 85.28 68.13 85.27 80.22 90.93 80.22 90.94 68.13 91.25 68.13 92.58 68.13 92.58 61.6 91.25 61.6"/><polygon class="cls-5" points="75.58 27.45 70.16 27.45 70.16 29.12 70.12 29.12 70.12 29.12 61.28 29.12 61.28 29.12 61.28 27.45 55.87 27.45 55.87 29.12 50.46 29.12 50.46 84.78 54.27 84.78 53.05 107.89 54.21 108.17 54.27 140.77 54.27 145.03 61.28 145.03 61.28 140.77 61.29 108.02 63.48 107.88 64.57 91.47 68.62 88.02 70.35 140.74 70.35 145.06 77.36 145.06 77.36 84.78 80.95 84.78 80.95 29.12 75.58 29.12 75.58 27.45"/></g></g></g></g></g></svg>