<svg xmlns="http://www.w3.org/2000/svg" xmlns:xlink="http://www.w3.org/1999/xlink" viewBox="0 0 117.55 159.69"><defs><style>.cls-1,.cls-10,.cls-11,.cls-15{fill:none;}.cls-2{isolation:isolate;}.cls-14,.cls-3{fill:#999;}.cls-3{fill-opacity:0.39;}.cls-12,.cls-3{mix-blend-mode:multiply;}.cls-4{fill:#74c7a5;}.cls-5{fill:#6591ca;}.cls-6{fill:#fff;}.cls-7{fill:#434a47;}.cls-8{fill:#9cbcd9;}.cls-9{fill:#e6edb1;}.cls-10,.cls-11,.cls-15{stroke:#434a47;stroke-miterlimit:10;}.cls-10{stroke-width:0.5px;}.cls-11{stroke-width:0.25px;}.cls-13{clip-path:url(#clip-path);}.cls-14{opacity:0.4;}.cls-15{stroke-width:0.3px;}</style><clipPath id="clip-path"><path class="cls-1" d="M94.19,147.49h6.32v10.6H94.19ZM113.67,40.22v-.07h-4.93v20.4l-1.2-.06L107.26,66l1.48.07V90H109v.27h4.35v-9h-.19l.17-15,1.51.08.27-5.51-1.72-.09Zm-42.48.2H66l.65,20.14-1.34-.07L65.07,66l1.84.09,0,15.21h0v9h4.35V66.31l1.5.08L73,60.87l-1.77-.09Zm28.81-3-4-2.12-1.2,2.29H83.3l-1.2-2.29-4,2.12.09.17H73.58l2.09,67.11h.91l1.61,42.73h.65v10.6h6.33v-10.6h.56l.42-42.73h6.61l1,42.71h7.31l1.4-42.71h1.43L106,37.64H99.91ZM101.5,14V1.6H79v12c-10.41,2.44-17.77,7.79-17.77,9.63s7.07-.26,17.16-1.42a11.85,11.85,0,0,0,23.68.18c9.31,1.18,15.72,3,15.72,1.24S111.13,16.57,101.5,14Z"/></clipPath></defs><title>Asset 48</title><g class="cls-2"><g id="Layer_2" data-name="Layer 2"><g id="Layer_1-2" data-name="Layer 1"><polygon class="cls-3" points="39.46 119.2 18.69 119.2 78.99 158.1 100.25 158.1 39.46 119.2"/><polygon class="cls-3" points="0 123.44 5.35 123.44 57.78 158.1 52.93 158.1 0 123.44"/><rect class="cls-4" x="78.56" y="147.41" width="6.33" height="10.6"/><rect class="cls-4" x="93.93" y="147.41" width="6.32" height="10.6"/><ellipse class="cls-4" cx="90" cy="21.17" rx="11.91" ry="12.07"/><polygon class="cls-4" points="70.93 90.18 66.58 90.18 66.72 40.34 70.93 40.34 70.93 90.18"/><polygon class="cls-4" points="112.83 89.91 108.48 89.91 108.48 40.08 113.41 40.08 112.83 89.91"/><polygon class="cls-5" points="103.65 104.68 75.41 104.68 73.32 37.56 105.73 37.56 103.65 104.68"/><polygon class="cls-5" points="70.93 65.26 66.58 65.26 65.78 40.34 70.93 40.34 70.93 65.26"/><polygon class="cls-5" points="112.83 64.99 108.48 64.99 108.48 40.08 113.41 40.08 112.83 64.99"/><path class="cls-4" d="M96.28,37.56a6.76,6.76,0,1,1-13.51,0Z"/><rect class="cls-4" x="82.77" y="37.56" width="13.51" height="15.15"/><rect class="cls-6" x="82.77" y="49.46" width="13.51" height="39.86"/><polygon class="cls-7" points="102.22 104.68 100.82 147.38 93.52 147.38 92.48 104.68 85.87 104.68 85.45 147.41 77.92 147.41 76.31 104.68 82.77 104.68 82.77 89.32 96.28 89.32 96.28 104.68 102.22 104.68"/><polygon class="cls-8" points="80.81 43.02 84.78 40.9 81.84 35.27 77.88 37.39 80.81 43.02"/><polygon class="cls-8" points="96.8 43.02 92.83 40.9 95.77 35.27 99.73 37.39 96.8 43.02"/><polygon class="cls-8" points="64.81 65.92 65.08 60.41 72.7 60.8 72.42 66.31 64.81 65.92"/><polygon class="cls-8" points="107 65.92 107.27 60.41 114.88 60.8 114.61 66.31 107 65.92"/><rect class="cls-9" x="78.75" y="1.53" width="22.48" height="15.16"/><path class="cls-9" d="M117.55,23.18c0,2.42-12.66-2.11-28.28-2.11S61,25.61,61,23.18,73.65,12.29,89.27,12.29,117.55,20.76,117.55,23.18Z"/><rect class="cls-7" x="66.58" y="81.22" width="4.35" height="8.96"/><rect class="cls-7" x="108.77" y="81.22" width="4.35" height="8.96"/><line class="cls-10" x1="55.57" y1="23.89" x2="55.57" y2="150.14"/><line class="cls-10" x1="44.01" y1="150.14" x2="67.13" y2="150.14"/><line class="cls-11" x1="44.01" y1="150.14" x2="44.01" y2="158.01"/><line class="cls-11" x1="46.31" y1="150.14" x2="46.31" y2="158.01"/><line class="cls-11" x1="48.6" y1="150.14" x2="48.6" y2="158.01"/><line class="cls-11" x1="50.9" y1="150.14" x2="50.9" y2="158.01"/><line class="cls-11" x1="53.19" y1="150.14" x2="53.19" y2="158.01"/><line class="cls-11" x1="55.49" y1="150.14" x2="55.49" y2="158.01"/><line class="cls-11" x1="57.78" y1="150.14" x2="57.78" y2="158.01"/><line class="cls-11" x1="60.08" y1="150.14" x2="60.08" y2="158.01"/><line class="cls-11" x1="62.37" y1="150.14" x2="62.37" y2="158.01"/><line class="cls-11" x1="64.67" y1="150.14" x2="64.67" y2="158.01"/><line class="cls-11" x1="66.96" y1="150.14" x2="66.96" y2="158.01"/><g class="cls-12"><g class="cls-13"><rect class="cls-14" x="32.89" width="56.72" height="159.69"/></g></g><line class="cls-15" x1="78.56" y1="10.86" x2="101.5" y2="10.86"/></g></g></g></svg>