<svg xmlns="http://www.w3.org/2000/svg" xmlns:xlink="http://www.w3.org/1999/xlink" viewBox="0 0 94.7 159.43"><defs><style>.cls-1,.cls-7{fill:none;}.cls-2{isolation:isolate;}.cls-3,.cls-6{fill:#999;}.cls-3{fill-opacity:0.39;}.cls-3,.cls-9{mix-blend-mode:multiply;}.cls-4{fill:#434a47;}.cls-5{fill:#74c7a5;}.cls-7{stroke:#424543;stroke-linecap:round;stroke-miterlimit:10;}.cls-8{clip-path:url(#clip-path);}.cls-9{opacity:0.4;}</style><clipPath id="clip-path" transform="translate(0 -1.41)"><polygon class="cls-1" points="46.39 149.71 71.29 149.71 71.29 0.7 46.39 0 46.39 149.71"/></clipPath></defs><title>Asset 9</title><g class="cls-2"><g id="Layer_2" data-name="Layer 2"><g id="Layer_1-2" data-name="Layer 1"><polygon class="cls-3" points="20.77 110.08 0 110.08 60.29 148.97 81.55 148.97 20.77 110.08"/><polygon class="cls-4" points="59.22 138.29 57.61 112.28 67.17 112.28 66.75 138.29 59.22 138.29"/><polygon class="cls-4" points="74.81 138.26 73.78 112.04 83.52 112.04 82.12 138.26 74.81 138.26"/><rect class="cls-5" x="59.86" y="138.29" width="6.33" height="10.6"/><rect class="cls-5" x="75.23" y="138.29" width="6.32" height="10.6"/><ellipse class="cls-5" cx="71.29" cy="12.06" rx="11.91" ry="12.06"/><polygon class="cls-5" points="52.23 81.06 47.88 81.06 48.02 31.24 52.23 31.24 52.23 81.06"/><polygon class="cls-5" points="94.12 80.8 89.77 80.8 89.77 30.97 94.7 30.97 94.12 80.8"/><polygon class="cls-6" points="84.94 112.28 56.7 112.28 54.62 28.45 87.03 28.45 84.94 112.28"/><polygon class="cls-6" points="52.23 74.48 47.88 74.48 47.08 31.24 52.23 31.24 52.23 74.48"/><polygon class="cls-6" points="94.12 74.48 89.77 74.48 89.77 30.97 94.7 30.97 94.12 74.48"/><line class="cls-7" x1="89.77" y1="71.4" x2="94.12" y2="71.4"/><path class="cls-5" d="M77.58,29.86a6.76,6.76,0,1,1-13.51,0Z" transform="translate(0 -1.41)"/><g class="cls-8"><g class="cls-9"><rect class="cls-6" x="75.13" y="148.83" width="6.32" height="10.6"/><ellipse class="cls-6" cx="71.29" cy="12.01" rx="11.77" ry="11.92"/><polygon class="cls-6" points="55.21 56.15 55.21 56.15 56.6 112.28 57.51 112.28 59.86 148.73 66.19 148.73 67.07 112.28 73.69 112.28 75.12 148.72 81.46 148.72 83.4 112.28 84.84 112.28 86.93 28.45 54.52 28.45 55.21 56.15"/><polygon class="cls-6" points="52.23 31.23 47.08 31.23 47.88 74.48 47.88 81.06 52.23 81.06 52.23 74.48 52.23 56.15 52.23 56.15 52.23 31.23"/><polygon class="cls-6" points="94.03 30.97 89.69 30.97 89.69 30.97 89.69 56.15 89.69 74.48 89.69 74.48 89.69 80.8 94.03 80.8 94.03 74.48 94.03 74.48 94.03 74.48 94.03 30.97 94.03 30.97"/></g></g></g></g></g></svg>