<svg xmlns="http://www.w3.org/2000/svg" xmlns:xlink="http://www.w3.org/1999/xlink" viewBox="0 0 87.78 144.44"><defs><style>.cls-1{fill:none;}.cls-2{isolation:isolate;}.cls-3,.cls-9{mix-blend-mode:multiply;}.cls-4{opacity:0.39;}.cls-5{fill:#9e9e9e;}.cls-6{fill:#73c8ef;}.cls-7{fill:#6d62ab;}.cls-8{fill:#ffd043;}.cls-9{opacity:0.4;}.cls-10{clip-path:url(#clip-path);}.cls-11{fill:#999;}.cls-12{clip-path:url(#clip-path-2);}</style><clipPath id="clip-path" transform="translate(0 -12.9)"><rect class="cls-1" x="35.06" width="25.67" height="157.11"/></clipPath><clipPath id="clip-path-2" transform="translate(0 -12.9)"><rect class="cls-1" x="49.36" y="12.9" width="11.36" height="23.02"/></clipPath></defs><title>Asset 32</title><g class="cls-2"><g id="Layer_2" data-name="Layer 2"><g id="Layer_1-2" data-name="Layer 1"><g class="cls-3"><g class="cls-4"><polygon class="cls-5" points="20.75 111.3 0 111.3 51.37 144.44 72.55 144.44 20.75 111.3"/></g></g><rect class="cls-6" x="80.4" y="30.81" width="5.51" height="53.39"/><rect class="cls-6" x="36.62" y="30.58" width="5.51" height="53.22"/><rect class="cls-6" x="50.42" y="80.25" width="6.82" height="63.95"/><rect class="cls-6" x="66.08" y="79.9" width="6.82" height="64.33"/><path class="cls-6" d="M72.09,24.41A11.36,11.36,0,1,0,60.73,35.93,11.44,11.44,0,0,0,72.09,24.41Z" transform="translate(0 -12.9)"/><polygon class="cls-7" points="76.81 69.73 45.85 69.73 45.74 28.03 76.7 28.03 76.81 69.73"/><polygon class="cls-7" points="74.38 72.48 48.25 72.48 48.16 32.03 74.29 32.03 74.38 72.48"/><polygon class="cls-7" points="42.13 75.73 36.61 75.73 36.15 30.03 42.9 30.03 42.13 75.73"/><polygon class="cls-7" points="85.92 76.24 80.39 76.24 79.89 30.54 86.64 30.54 85.92 76.24"/><polygon class="cls-7" points="48.96 75.74 73.9 75.74 72.9 134.53 66.08 134.53 62.54 86.25 60.32 86.25 57.24 134.86 50.43 135.03 48.96 75.74"/><polygon class="cls-7" points="67.88 24.16 62.69 24.16 54.5 24.16 54.5 29.28 67.88 29.28 67.88 24.16"/><rect class="cls-7" x="50.42" y="130.79" width="6.82" height="7.97"/><rect class="cls-7" x="66.08" y="130.79" width="6.82" height="7.97"/><polygon class="cls-7" points="42.13 73.51 36.6 73.51 35.83 30.03 43.21 30.03 42.13 73.51"/><polygon class="cls-7" points="85.96 73.51 80.36 73.51 79.47 30.03 86.84 30.03 85.96 73.51"/><polygon class="cls-8" points="43.21 32.47 35.83 33.27 35.83 30.03 43.21 30.03 43.21 32.47"/><polygon class="cls-8" points="79.47 32.47 86.84 33.27 86.84 30.03 79.47 30.03 79.47 32.47"/><polyline class="cls-8" points="45.74 30.68 54.5 29.71 54.5 28.03 45.74 28.03 45.74 30.68"/><polyline class="cls-8" points="76.64 30.68 67.88 29.71 67.88 28.03 76.64 28.03 76.64 30.68"/><rect class="cls-8" x="45.57" y="52.26" width="31.23" height="7.63"/><g class="cls-9"><g class="cls-10"><polygon class="cls-11" points="76.7 28.03 76.65 28.03 67.89 28.03 67.89 24.16 54.51 24.16 54.51 28.03 45.75 28.03 45.75 30.68 45.76 30.68 45.81 52.26 45.58 52.26 45.58 59.88 45.83 59.88 45.86 69.73 48.26 69.73 48.26 72.48 50.55 72.48 71.85 72.48 74.39 72.48 74.39 69.73 76.81 69.73 76.79 59.88 76.81 59.88 76.81 52.26 76.77 52.26 76.7 28.03"/><polygon class="cls-11" points="73.91 75.74 48.97 75.74 50.43 135.03 50.43 135 50.43 138.76 50.43 144.2 57.25 144.2 57.25 138.76 57.25 138.76 57.25 134.88 57.25 134.86 60.33 86.25 62.55 86.25 64.93 134.53 66.09 134.53 66.09 138.76 66.09 138.76 66.09 144.23 72.91 144.23 72.91 138.76 72.91 138.76 72.91 134.53 74.07 134.53 73.91 75.74"/><polygon class="cls-11" points="36.16 30.03 35.84 30.03 35.84 33.27 36.61 73.51 36.6 73.51 36.62 75.73 36.62 75.73 36.62 83.81 42.13 83.81 42.13 75.73 42.14 75.73 42.18 73.51 42.14 73.51 43.22 32.47 43.22 30.03 42.91 30.03 36.16 30.03"/><polygon class="cls-11" points="80.4 30.03 80.4 32.47 80.4 73.51 81.3 73.51 81.33 76.24 81.33 76.24 81.33 84.2 86.84 84.2 86.84 76.24 86.86 76.24 86.9 73.51 87.78 73.51 87.78 33.27 87.78 30.03 80.4 30.03"/></g></g><g class="cls-9"><g class="cls-12"><path class="cls-11" d="M72.09,24.41A11.36,11.36,0,1,0,60.73,35.93,11.44,11.44,0,0,0,72.09,24.41Z" transform="translate(0 -12.9)"/></g></g></g></g></g></svg>