<svg xmlns="http://www.w3.org/2000/svg" xmlns:xlink="http://www.w3.org/1999/xlink" viewBox="0 0 84.37 144.72"><defs><style>.cls-1{fill:none;}.cls-2{isolation:isolate;}.cls-12,.cls-3{mix-blend-mode:multiply;}.cls-4{opacity:0.39;}.cls-5{fill:#9e9e9e;}.cls-6{fill:#73c8ef;}.cls-7{fill:#5590cc;}.cls-8{fill:#2b2e31;}.cls-9{fill:#b1b1b1;}.cls-10{fill:#f16667;}.cls-11{clip-path:url(#clip-path);}.cls-12{opacity:0.3;}</style><clipPath id="clip-path"><rect class="cls-1" x="36.92" width="23.79" height="144.69"/></clipPath></defs><title>Asset 34</title><g class="cls-2"><g id="Layer_2" data-name="Layer 2"><g id="Layer_1-2" data-name="Layer 1"><g class="cls-3"><g class="cls-4"><polygon class="cls-5" points="20.83 111.43 0 111.43 51.57 144.69 72.82 144.69 20.83 111.43"/></g></g><polygon class="cls-6" points="50.81 144.69 56.66 144.69 58.66 80.5 49.81 80.5 50.81 144.69"/><polygon class="cls-6" points="65.53 144.72 71.38 144.72 72.38 80.14 63.53 80.14 65.53 144.72"/><polygon class="cls-7" points="73.18 59.63 48.23 59.63 50.71 130.71 56.87 130.71 60.23 77.05 61.13 77.05 65.32 130.71 71.48 130.71 73.18 59.63"/><rect class="cls-6" x="79.26" y="30.74" width="4.04" height="53.59"/><rect class="cls-6" x="37.79" y="30.64" width="4.13" height="53.43"/><polygon class="cls-8" points="69.86 28.08 51.73 28.08 45.32 29.08 45.28 53.09 44.28 70.42 44.28 70.42 44.28 72.31 59.22 72.31 59.22 59.63 62.24 59.63 62.24 72.31 77.19 72.31 77.19 70.42 77.19 70.42 76.19 53.96 76.07 29.08 69.86 28.08"/><polygon class="cls-8" points="44.09 30.09 36.91 30.09 37.08 75.96 42.63 75.96 44.09 30.09"/><polygon class="cls-8" points="84.36 29.96 77.19 29.96 78.5 76.34 84.05 76.34 84.36 29.96"/><polygon class="cls-9" points="71.71 29.02 70.84 29.53 70.05 29.07 69.39 28.52 68.95 27.82 67.98 28.66 67.12 28.16 66.41 28.71 65.64 28.82 64.82 28.49 64.08 28.88 63.32 29.33 62.49 28.52 61.74 29.37 60.95 29.38 60.15 28.81 59.37 29.19 58.59 28.89 57.78 29.38 57.01 29.1 56.23 28.95 55.44 29 54.72 28.4 53.87 28.9 53.13 28.48 52.43 27.93 51.64 28.33 50.86 28.4 50.16 28.59 49.4 28.88 48.6 29.37 47.79 28.87 47.04 28.59 46.23 28.64 46.07 28.25 45.81 27.56 45.92 26.87 45.56 26.18 45.28 25.49 45.81 24.77 46.31 24.21 47.09 24.03 47.31 22.97 48.1 22.82 48.94 22.84 49.44 22 50.37 22.38 50.95 21.59 51.75 21.64 52.45 21.22 53.22 21.13 54.02 21.23 54.76 20.97 55.56 21.29 56.34 21.38 57.06 20.84 57.83 20.75 58.61 20.98 59.37 20.58 60.15 20.56 60.93 20.52 61.68 21.22 62.49 20.41 63.22 21.18 63.98 21.33 64.72 21.53 65.49 21.5 66.32 21.11 67.08 21.22 67.72 21.95 68.52 21.87 69.24 22.11 70 22.22 70.63 22.71 71.56 22.38 72.39 22.43 72.96 23.06 73.44 23.74 73.89 24.33 74.22 24.91 74.88 25.49 74.83 26.18 74.61 26.87 74.35 27.56 74.44 28.25 74.21 28.94 73.42 29.35 72.5 28.76 71.71 29.02"/><path class="cls-6" d="M72.11,11.55a11.41,11.41,0,1,0-22.81,0,11.41,11.41,0,1,0,22.81,0Z"/><path class="cls-8" d="M55.12,26h3.41a.66.66,0,0,1,.66.66v3.76a.66.66,0,0,1-.66.66h-6a.66.66,0,0,1-.66-.66V29.31A3.29,3.29,0,0,1,55.12,26Z"/><path class="cls-8" d="M62.22,26l4.16-.09A3.13,3.13,0,0,1,69.58,29v2.05H62.22Z"/><rect class="cls-10" x="59.2" y="28.08" width="3.01" height="31.56"/><g class="cls-11"><g class="cls-12"><path class="cls-5" d="M76.07,29.08l-1.62-.26.14-.57,0-.69,0-.69,0-.69.07-.69-.49-.55-.1-.78-.64-.41-.49-.65-.63-.48-.71-.33-1,.49L70,22.29,69.25,22l-.81.12-.61-.76-.86.46-.52-.33a11.4,11.4,0,1,0-12-.31l-.4.27-.84-.35-.64.78-.81-.14-.69.4-.93-.49-.56.79-.77.12H48l-.55.63-.6.47-.54.52-.56.53-.42.76.75.69-.42.69.24.69-.59.69.91.42.47.2-1.36.21,0,24-1,17.33v1.9h4.4l1.83,52.41.31,20h5.85l.66-21.31,2.9-46.32h.9l3.82,48.88.58,18.79h5.84l.43-27.58,1.07-44.83h4.31v-1.9L76.19,54Z"/><polygon class="cls-5" points="37.08 75.96 37.78 75.96 37.78 84.06 41.91 84.06 41.92 75.96 42.63 75.96 44.09 30.09 36.91 30.09 37.08 75.96"/><polygon class="cls-5" points="84.36 29.96 77.19 29.96 78.5 76.34 79.25 76.34 79.25 84.33 83.29 84.33 83.29 76.34 84.05 76.34 84.36 29.96"/></g></g></g></g></g></svg>