<svg xmlns="http://www.w3.org/2000/svg" xmlns:xlink="http://www.w3.org/1999/xlink" viewBox="0 0 88.67 156.15"><defs><style>.cls-1{fill:none;}.cls-2{isolation:isolate;}.cls-10,.cls-3{fill:#999;}.cls-3{fill-opacity:0.39;}.cls-3,.cls-9{mix-blend-mode:multiply;}.cls-4{fill:#73c8ef;}.cls-5{fill:#fff;}.cls-6{fill:#557faa;}.cls-7{fill:#9fc9eb;}.cls-8{clip-path:url(#clip-path);}.cls-9{opacity:0.4;}.cls-11{fill:#0b1017;}.cls-12{fill:#62666f;}.cls-13{fill:#00000a;}</style><clipPath id="clip-path"><rect class="cls-1" x="43.71" y="4.9" width="22.87" height="151.01"/></clipPath></defs><title>Asset 49</title><g class="cls-2"><g id="Layer_2" data-name="Layer 2"><g id="Layer_1-2" data-name="Layer 1"><polygon class="cls-3" points="19.93 120.41 0 120.41 55.1 155.95 75.49 155.95 19.93 120.41"/><rect class="cls-4" x="56.01" y="112.78" width="5.81" height="43.37"/><rect class="cls-4" x="52.11" y="72.76" width="28.56" height="12.13"/><rect class="cls-4" x="70.11" y="112.55" width="5.81" height="43.36"/><rect class="cls-5" x="51.22" y="35.67" width="30.04" height="42.77"/><path class="cls-4" d="M75.33,27.91C85,15,70.61.38,57.86,10.22,48.12,23.15,62.57,37.78,75.33,27.91Z"/><rect class="cls-4" x="43.71" y="38.33" width="4" height="45.77"/><rect class="cls-4" x="84.68" y="38.09" width="3.99" height="45.77"/><polygon class="cls-6" points="51.58 81.2 81.4 81.56 76.37 140.28 69.79 140.43 68.04 92.36 64.15 92.36 63.5 140.43 53.33 140.28 51.58 81.2"/><rect class="cls-7" x="52.58" y="136.95" width="11.97" height="3.64"/><rect class="cls-7" x="67.99" y="137.4" width="9.87" height="3.64"/><rect class="cls-4" x="50.98" y="35.67" width="3.42" height="9.6"/><rect class="cls-4" x="78.22" y="35.51" width="3.27" height="9.6"/><rect class="cls-4" x="57.34" y="35.67" width="17.93" height="9.6"/><g class="cls-8"><g class="cls-9"><ellipse class="cls-10" cx="66.59" cy="19.07" rx="11.92" ry="12.08"/><rect class="cls-10" x="43.71" y="38.33" width="4" height="45.77"/><rect class="cls-10" x="84.68" y="38.08" width="3.99" height="45.78"/><polygon class="cls-10" points="80.67 81.55 80.67 78.43 81.27 78.43 81.27 45.11 81.49 45.11 81.49 35.51 78.22 35.51 78.22 35.66 75.28 35.66 57.34 35.66 54.41 35.66 51.23 35.66 50.98 35.66 50.98 45.26 51.23 45.26 51.23 78.43 52.11 78.43 52.11 81.21 51.58 81.2 53.23 136.95 52.58 136.95 52.58 140.59 56.01 140.59 56.01 156.15 61.82 156.15 61.82 140.59 64.55 140.59 64.55 136.95 63.55 136.95 64.15 92.36 68.04 92.36 69.68 137.4 67.99 137.4 67.99 141.04 70.11 141.04 70.11 155.91 75.92 155.91 75.92 141.04 77.87 141.04 77.87 137.4 76.61 137.4 81.4 81.56 80.67 81.55"/></g></g><path class="cls-11" d="M74.27,9.51c-.85-2.17-7.67-4.74-12.71-2.73s-7.79,7-7.44,10.67L64.6,15.31Z"/><polygon class="cls-12" points="76.18 11.84 65.87 17.87 54.44 20.67 54.12 17.45 64.6 15.31 74.23 9.41 76.18 11.84"/><polygon class="cls-13" points="59.18 2.68 78.51 0 62.52 11.27 43.25 14.09 59.18 2.68"/><polygon class="cls-13" points="50.36 21 48.79 21.63 46.02 12.97 46.73 12.69 50.36 21"/></g></g></g></svg>