<svg xmlns="http://www.w3.org/2000/svg" xmlns:xlink="http://www.w3.org/1999/xlink" viewBox="0 0 88.17 146.13"><defs><style>.cls-1{fill:none;}.cls-2{isolation:isolate;}.cls-14,.cls-3{mix-blend-mode:multiply;}.cls-4{opacity:0.39;}.cls-5{fill:#969696;}.cls-6,.cls-8{fill:#4e5d75;}.cls-7{fill:#73c8f0;}.cls-8{stroke:#4e5d75;stroke-miterlimit:10;}.cls-9{fill:#bfc0c0;}.cls-10{fill:#fff;}.cls-11{fill:#231233;}.cls-12{fill:#ee6667;}.cls-13{clip-path:url(#clip-path);}.cls-14{opacity:0.4;}</style><clipPath id="clip-path"><rect class="cls-1" x="43.37" y="0.04" width="21.12" height="145.98"/></clipPath></defs><title>Asset 18</title><g class="cls-2"><g id="Layer_2" data-name="Layer 2"><g id="Layer_1-2" data-name="Layer 1"><g class="cls-3"><g class="cls-4"><polygon class="cls-5" points="16.89 110.48 0 110.48 55.28 146.13 72.62 146.13 16.89 110.48"/></g></g><polygon class="cls-6" points="54.65 135.59 53.07 101.06 62.44 101.06 62.03 135.59 54.65 135.59"/><polygon class="cls-6" points="66.01 135.56 65 100.82 74.55 100.82 73.18 135.56 66.01 135.56"/><rect class="cls-7" x="55.28" y="135.59" width="6.21" height="10.39"/><rect class="cls-7" x="66.42" y="135.59" width="6.2" height="10.39"/><ellipse class="cls-7" cx="64.52" cy="11.83" rx="11.68" ry="11.83"/><polygon class="cls-7" points="46.81 79.48 42.55 79.48 42.69 30.63 46.81 30.63 46.81 79.48"/><polygon class="cls-7" points="85.93 79.22 81.66 79.22 81.66 30.36 86.49 30.36 85.93 79.22"/><rect class="cls-6" x="49.28" y="27.9" width="29.57" height="37.24"/><polygon class="cls-6" points="47.89 55.05 41.92 55.05 40.82 30.52 47.89 30.52 47.89 55.05"/><polygon class="cls-6" points="87.25 55.05 80.4 55.05 80.4 30.36 88.17 30.36 87.25 55.05"/><line class="cls-8" x1="81.66" y1="73.21" x2="85.93" y2="73.21"/><path class="cls-9" d="M68.17,27.9a3.69,3.69,0,1,1-7.39,0Z"/><path class="cls-7" d="M68.69,27.9c0,1-1.86,1.73-4.16,1.73s-4.16-.78-4.16-1.73Z"/><polyline class="cls-10" points="57.55 26.43 57.56 37.27 64.65 29.66"/><polyline class="cls-10" points="71.69 26.43 71.69 37.27 64.65 29.66"/><rect class="cls-10" x="42.32" y="55.1" width="4.98" height="3.99"/><rect class="cls-10" x="81.59" y="55.05" width="4.98" height="4.05"/><rect class="cls-11" x="51.11" y="68.47" width="25.4" height="9.48"/><polygon class="cls-12" points="80.64 100.94 46.73 100.94 51.11 68.47 76.51 68.47 80.64 100.94"/><g class="cls-13"><g class="cls-14"><polygon class="cls-5" points="54.65 135.63 55.28 135.63 55.28 146.02 61.49 146.02 61.49 135.63 62.03 135.63 62.44 101.1 53.07 101.1 54.65 135.63"/><rect class="cls-5" x="66.39" y="135.63" width="6.2" height="10.39"/><ellipse class="cls-5" cx="64.49" cy="11.87" rx="11.67" ry="11.83"/><polygon class="cls-5" points="78.81 27.94 71.53 27.94 71.53 26.47 68.32 27.94 68.14 27.94 60.75 27.94 60.62 27.94 57.41 26.47 57.41 27.94 49.25 27.94 49.25 65.18 78.81 65.18 78.81 27.94"/><polygon class="cls-5" points="42.16 59.15 42.45 59.15 42.39 79.53 46.65 79.53 46.65 59.15 47.14 59.15 47.14 55.1 47.75 55.05 47.75 30.52 40.68 30.52 41.78 55.05 42.16 55.1 42.16 59.15"/><polygon class="cls-5" points="81.56 59.14 81.63 59.14 81.63 79.26 85.89 79.26 86.13 59.14 86.54 59.14 86.54 54.83 86.42 54.83 87.07 30.41 86.46 30.41 81.63 30.41 81.43 30.41 81.43 55.09 81.56 55.09 81.56 59.14"/><polygon class="cls-5" points="76.48 68.52 51.08 68.52 48.57 81.26 46.7 100.98 64.97 100.98 65.98 135.6 73.14 135.6 74.51 100.98 82.61 100.98 82.61 100.98 82.61 100.98 76.48 68.52"/></g></g></g></g></g></svg>