<svg xmlns="http://www.w3.org/2000/svg" xmlns:xlink="http://www.w3.org/1999/xlink" viewBox="0 0 93.32 146.05"><defs><style>.cls-1,.cls-11{fill:none;}.cls-2{isolation:isolate;}.cls-14,.cls-3{fill:#999;}.cls-3{fill-opacity:0.39;}.cls-13,.cls-3{mix-blend-mode:multiply;}.cls-4{fill:#73c8ef;}.cls-5{fill:#557faa;}.cls-6{fill:#9fc9eb;}.cls-7{fill:#fff;}.cls-8{fill:#f16667;}.cls-9{fill:#ffd043;}.cls-10{fill:#36393b;}.cls-11{stroke:#ffd043;stroke-miterlimit:10;stroke-width:0.5px;stroke-dasharray:1 1;}.cls-12{clip-path:url(#clip-path);}.cls-13{opacity:0.3;}</style><clipPath id="clip-path"><rect class="cls-1" x="41.71" y="0.4" width="23.1" height="145.36"/></clipPath></defs><title>Asset 26</title><g class="cls-2"><g id="Layer_2" data-name="Layer 2"><g id="Layer_1-2" data-name="Layer 1"><polygon class="cls-3" points="21.1 111.03 0 111.03 53.94 145.83 75.49 145.83 21.1 111.03"/><rect class="cls-4" x="54.49" y="103.56" width="5.69" height="42.46"/><rect class="cls-4" x="69.8" y="103.34" width="5.69" height="42.45"/><path class="cls-4" d="M73.74,20.48c9.5-12.65-4.62-26.95-17.1-17.32C47.11,15.81,61.25,30.14,73.74,20.48Z"/><rect class="cls-4" x="42.79" y="30.68" width="3.91" height="44.81"/><rect class="cls-4" x="82.9" y="30.44" width="3.91" height="44.81"/><polygon class="cls-5" points="50.5 70.55 79.94 71.1 77.33 130.63 68.32 130.63 66.61 85.17 62.8 85.17 62.16 130.63 52.2 130.48 50.5 70.55"/><rect class="cls-6" x="51.48" y="127.22" width="11.72" height="3.56"/><rect class="cls-6" x="67.07" y="127.22" width="11.15" height="3.56"/><polygon class="cls-7" points="53.26 38.32 49.91 40.1 49.91 45.08 53.26 45.08 53.26 38.32"/><polygon class="cls-7" points="79.85 40.1 76.5 38.32 76.5 45.08 79.85 45.08 79.85 40.1"/><rect class="cls-8" x="50.56" y="30.44" width="29.38" height="40.38"/><rect class="cls-9" x="42.08" y="30.44" width="4.93" height="38.55"/><rect class="cls-9" x="82.38" y="30.44" width="4.93" height="38.55"/><polygon class="cls-9" points="60.18 116.72 50.56 116.72 50.56 29.44 60.18 29.44 60.18 47.69 60.18 116.72"/><polygon class="cls-9" points="79.94 116.72 70.33 116.72 70.33 45.02 70.33 29.44 79.94 29.44 79.94 116.72"/><rect class="cls-9" x="59.79" y="29.42" width="11.04" height="1.03"/><rect class="cls-9" x="55.37" y="27.68" width="4.81" height="2.26"/><rect class="cls-9" x="70.33" y="27.68" width="4.81" height="2.26"/><rect class="cls-10" x="79.01" y="60.57" width="11.68" height="14.37" transform="translate(-2.85 131.77) rotate(-74.74)"/><path class="cls-11" d="M91.18,63.43a5,5,0,0,1-9.59-2.62"/><g class="cls-12"><g class="cls-13"><path class="cls-14" d="M73.73,20.51c9.5-12.65-4.62-26.95-17.1-17.32C47.1,15.85,61.25,30.17,73.73,20.51Z"/><polygon class="cls-14" points="42.08 69.02 42.79 69.02 42.79 75.52 46.7 75.52 46.7 69.02 47 69.02 47 30.47 42.08 30.47 42.08 69.02"/><path class="cls-14" d="M93.31,64l-6-1.64V30.47H82.38V61.06l-.79-.22h0l-1.65-.45V29.47H75.13V27.71H70.32v1.75H60.17V27.71H55.36v1.76H50.56V70.58h-.06l.06,2.29v43.88H51.8l.3,10.5h-.63v3.56h3v15.24h5.69V130.82h3v-3.56h-1l.59-42H66.6l1.58,42H67.06v3.56h2.73v15h5.69v-15h2.73v-3.56h-.74l.46-10.5h2V72.5l3,.81v2h3.91v-.91l3.44.94ZM64.62,70.85h5.7V71Z"/></g></g></g></g></g></svg>