<svg xmlns="http://www.w3.org/2000/svg" xmlns:xlink="http://www.w3.org/1999/xlink" viewBox="0 0 96.16 150.38"><defs><style>.cls-1{fill:none;}.cls-2{isolation:isolate;}.cls-11,.cls-3{fill:#999;}.cls-3{fill-opacity:0.39;}.cls-10,.cls-3{mix-blend-mode:multiply;}.cls-4{fill:#73c8ef;}.cls-5{fill:#f26739;}.cls-6{fill:#5590cc;}.cls-7{fill:#c33;}.cls-8{fill:#fff;}.cls-9{clip-path:url(#clip-path);}.cls-10{opacity:0.4;}</style><clipPath id="clip-path"><rect class="cls-1" x="41.74" width="26.44" height="150.38"/></clipPath></defs><title>Asset 6</title><g class="cls-2"><g id="Layer_2" data-name="Layer 2"><g id="Layer_1-2" data-name="Layer 1"><polygon class="cls-3" points="23.74 113.48 0 113.48 57.16 150.35 81.37 150.35 23.74 113.48"/><rect class="cls-4" x="89.66" y="32.12" width="5.74" height="55.66"/><rect class="cls-4" x="42.23" y="31.89" width="5.74" height="55.49"/><rect class="cls-4" x="57.43" y="83.67" width="7.12" height="66.68"/><rect class="cls-4" x="73.76" y="83.31" width="7.11" height="67.07"/><ellipse class="cls-4" cx="68.18" cy="12" rx="11.85" ry="12"/><rect class="cls-5" x="52.56" y="29.22" width="32.27" height="45.55"/><rect class="cls-5" x="41.74" y="31.31" width="7.03" height="41.11"/><rect class="cls-5" x="89.12" y="31.77" width="7.04" height="41.12"/><polygon class="cls-6" points="55.91 78.97 81.57 79.32 81.14 143.66 73.45 144.91 70.07 89.93 66.72 89.93 65.44 144.01 56.97 144.38 55.91 78.97"/><polygon class="cls-7" points="60.93 29.25 66.41 32.77 68.86 30.42 71.56 32.96 76.37 29.25 68.93 29.18 60.93 29.25"/><ellipse class="cls-8" cx="68.65" cy="39.42" rx="0.77" ry="0.78"/><ellipse class="cls-8" cx="68.56" cy="46.55" rx="0.77" ry="0.78"/><ellipse class="cls-8" cx="68.73" cy="54.38" rx="0.77" ry="0.78"/><ellipse class="cls-8" cx="68.73" cy="63.42" rx="0.77" ry="0.78"/><g class="cls-9"><g class="cls-10"><ellipse class="cls-11" cx="68.18" cy="12" rx="11.85" ry="12"/><polygon class="cls-11" points="41.74 72.42 42.23 72.42 42.23 87.38 47.97 87.38 47.97 72.42 48.78 72.42 48.78 31.31 41.74 31.31 41.74 72.42"/><polygon class="cls-11" points="96.16 31.77 89.12 31.77 89.12 72.88 89.66 72.88 89.66 87.79 95.4 87.79 95.4 72.88 96.16 72.88 96.16 31.77"/><polygon class="cls-11" points="56.97 144.38 57.43 144.37 57.43 150.35 64.55 150.35 64.55 144.05 65.44 144.01 66.72 89.93 70.06 89.93 73.45 144.91 73.76 144.86 73.76 150.38 80.87 150.38 80.87 143.71 81.14 143.66 81.57 79.32 55.91 78.97 56.97 144.38"/><polygon class="cls-11" points="68.93 29.18 63.78 29.22 52.56 29.22 52.56 74.77 84.83 74.77 84.83 29.22 73.71 29.22 68.93 29.18"/></g></g></g></g></g></svg>