<svg xmlns="http://www.w3.org/2000/svg" xmlns:xlink="http://www.w3.org/1999/xlink" viewBox="0 0 86.8 157.21"><defs><style>.cls-1{fill:none;}.cls-2{isolation:isolate;}.cls-10,.cls-3{fill:#999;}.cls-3{fill-opacity:0.39;}.cls-3,.cls-8{mix-blend-mode:multiply;}.cls-4{fill:#73c8ef;}.cls-5{fill:#557faa;}.cls-6{fill:#9fc9eb;}.cls-7{fill:#fff;}.cls-9{clip-path:url(#clip-path);}.cls-10{opacity:0.4;}</style><clipPath id="clip-path"><path class="cls-1" d="M56.69,8.75c12.48-9.63,26.6,4.67,17.1,17.32C61.3,35.73,47.15,21.41,56.69,8.75ZM42.84,81.08h3.91V36.27H42.84Zm40.1-45V80.85h3.91V36ZM50.55,78.24l1.61,54.57h-.63v3.56h3v15.24h5.69V136.38h3.06v-3.56h-1l.59-43.65h3.81l1.59,43.65H67.12v3.56h3.47v15h5.69v-15h2v-3.56h-.75l2.23-54.22ZM79.82,33.52h-3.2v.15H50.2v.12H50V50.67h.24V81.21H79.6V50.67h.29v-5l-.07,0Z"/></clipPath></defs><title>Asset 25</title><g class="cls-2"><g id="Layer_2" data-name="Layer 2"><g id="Layer_1-2" data-name="Layer 1"><polygon class="cls-3" points="21.1 116.63 0 116.63 53.94 151.42 75.49 151.42 21.1 116.63"/><rect class="cls-4" x="54.49" y="109.16" width="5.69" height="42.46"/><rect class="cls-4" x="69.8" y="108.94" width="5.69" height="42.45"/><polygon class="cls-5" points="79.94 80.84 50.53 80.84 50.15 33.66 79.56 33.66 79.94 80.84"/><path class="cls-4" d="M73.74,26.07c9.5-12.65-4.62-26.95-17.1-17.32C47.11,21.41,61.25,35.73,73.74,26.07Z"/><rect class="cls-4" x="42.79" y="36.27" width="3.91" height="44.81"/><rect class="cls-4" x="82.9" y="36.03" width="3.91" height="44.81"/><polygon class="cls-5" points="50.5 78.24 79.94 80.84 77.33 136.22 68.32 136.22 66.61 89.17 62.8 89.17 62.16 136.22 52.2 136.08 50.5 78.24"/><rect class="cls-6" x="51.48" y="132.81" width="11.72" height="3.56"/><rect class="cls-6" x="67.07" y="132.81" width="11.15" height="3.56"/><rect class="cls-4" x="49.91" y="33.78" width="3.35" height="16.89"/><rect class="cls-4" x="76.57" y="33.52" width="3.2" height="16.89"/><rect class="cls-4" x="56.14" y="33.78" width="17.56" height="16.89"/><rect class="cls-7" x="49.91" y="43.92" width="3.35" height="6.75"/><rect class="cls-7" x="76.5" y="43.92" width="3.35" height="6.75"/><rect class="cls-7" x="56" y="43.92" width="17.7" height="6.75"/><g class="cls-8"><g class="cls-9"><rect class="cls-10" x="9.01" width="55.84" height="157.21"/></g></g></g></g></g></svg>