<svg xmlns="http://www.w3.org/2000/svg" viewBox="0 0 251.18 204"><defs><style>.cls-1{isolation:isolate;}.cls-2{fill:#999;fill-opacity:0.39;mix-blend-mode:multiply;}.cls-3{fill:#72c7a5;}.cls-4{fill:#74c7a5;}.cls-5{fill:#419975;}</style></defs><title>Asset 55</title><g class="cls-1"><g id="Layer_2" data-name="Layer 2"><g id="Layer_1-2" data-name="Layer 1"><polygon class="cls-2" points="19.9 189.38 5.33 180.32 134.57 156.94 135.11 156.94 185.88 189.65 186.07 189.94 207.81 204 161.55 203.97 139.15 189.65 19.9 189.38"/><polygon class="cls-3" points="180.54 29.12 161.55 29.12 171.04 46.25 149.69 42.29 161.55 64.04 144.05 58.13 152.4 80.52 135.18 80.52 144.47 93.75 127.11 93.75 132.35 111.63 117.43 108.22 121.23 125.43 105.33 122.28 109.23 137.66 90.82 132.9 90.82 151.64 76.3 144.19 76.3 163.12 134.37 149.13 184.67 42.29 180.54 29.12"/><path class="cls-4" d="M199.19,193.41s-17.21-160-37.64,0V204h46.24Z"/><path class="cls-5" d="M64.76,163.18v-.07C151.33,138.92,172.84,5.57,208.87.1c12.37-1.17,19.36,8.7,19.36,8.7l22,10.75L232,19l19.2,6.32c-16.51,7.66-38,3.78-38,3.78s34.11,187-73.15,142.15c0,0-30.42-11.83-74.8,2.46l-.45.26C17.71,185.82,0,150.74,0,150.74S24.22,175.85,64.76,163.18Z"/><path class="cls-3" d="M199.19,193.41s-17.21-160-37.64,0V204h46.24Z"/><path class="cls-3" d="M231.45,84.61s-59.15-19.89-10.22,9.14l19.36-4.65S255.64,73.32,231.45,84.61Z"/></g></g></g></svg>