<svg xmlns="http://www.w3.org/2000/svg" xmlns:xlink="http://www.w3.org/1999/xlink" viewBox="0 0 162.12 159.69"><defs><style>.cls-1{fill:none;}.cls-2{isolation:isolate;}.cls-12,.cls-3{fill:#999;}.cls-3{fill-opacity:0.39;}.cls-10,.cls-3{mix-blend-mode:multiply;}.cls-4{fill:#73c8ef;}.cls-5{fill:#f79340;}.cls-6{fill:#36393b;}.cls-7{clip-path:url(#clip-path);}.cls-8{fill:#fff;}.cls-9{fill:#f1ece7;}.cls-11{clip-path:url(#clip-path-2);}.cls-12{opacity:0.4;}.cls-13{fill:#575757;}.cls-14{fill:#ccc;}</style><clipPath id="clip-path"><polygon class="cls-1" points="77.83 71.81 107.49 72.16 106.4 106.73 95.01 106.9 94.52 89.36 90.65 89.36 90.47 106.92 78.88 106.92 77.83 71.81"/></clipPath><clipPath id="clip-path-2"><path class="cls-1" d="M81.91,111.45h5.78v43.13H81.91Zm25.85-54.73h0V46h-.1l-.06-11.2H78.22l0,11.2h-.07V56.72h0l0,14.75H77.9l.23,7.8V80l.73,31.27H90.44l0-23.33h4.44L95,111.3l2.79,0v43.08h5.77V111.22H100l6.36-.1.91-19.84.59-10.88ZM70.31,51.34V82.93h4V37.41h-4ZM115,37.41v-.24h-4v.24h0V56.72h0v26h4v-26h0V37.41ZM91.69,2.71c-8.3,0-11.72,8-12.41,13.64l1.85-.17c-1.85,10.27,9.82,19.59,19.67,12a14.55,14.55,0,0,0,3.11-8.57c1.86.29,3,0,3-1.81A15.17,15.17,0,0,0,91.69,2.71Z"/></clipPath></defs><title>Asset 47</title><g class="cls-2"><g id="Layer_2" data-name="Layer 2"><g id="Layer_1-2" data-name="Layer 1"><polygon class="cls-3" points="118.67 131.16 65.03 131.16 46.59 119.37 26.77 119.37 45.05 131.16 0 131.16 36.55 154.71 81.56 154.71 101.83 154.71 155.67 154.71 118.67 131.16"/><rect class="cls-4" x="81.84" y="111.78" width="5.78" height="43.12"/><rect class="cls-4" x="78.59" y="71.99" width="28.4" height="12.07"/><rect class="cls-4" x="97.71" y="111.56" width="5.78" height="43.12"/><path class="cls-4" d="M101.67,27.39C111.32,14.54,97,0,84.31,9.8,74.62,22.65,89,37.2,101.67,27.39Z"/><rect class="cls-4" x="70.24" y="37.75" width="3.98" height="45.52"/><rect class="cls-4" x="110.97" y="37.51" width="3.97" height="45.52"/><polygon class="cls-5" points="78.06 80.38 107.72 80.74 106.31 111.46 94.92 111.63 94.43 89.36 90.56 89.36 90.38 111.65 78.79 111.65 78.06 80.38"/><polygon class="cls-6" points="78.06 80.38 78.16 35.1 107.58 35.1 107.81 80.74 106.4 106.73 95.01 106.9 94.52 89.36 90.65 89.36 90.47 106.92 78.88 106.92 78.06 80.38"/><g class="cls-7"><rect x="84.43" y="67.41" width="17.1" height="41.27"/></g><path class="cls-5" d="M107.74,57.05H78.06V46.3a38.77,38.77,0,0,1,14.73,3.25s7.74-3.25,14.95-3.25Z"/><rect class="cls-6" x="70.24" y="37.75" width="3.98" height="13.93"/><rect class="cls-6" x="110.97" y="37.75" width="3.98" height="13.93"/><rect class="cls-5" x="70.24" y="51.67" width="3.98" height="5.38"/><rect class="cls-5" x="110.97" y="51.67" width="3.98" height="5.38"/><rect class="cls-8" x="84.16" y="52.91" width="17.26" height="1.45"/><rect class="cls-8" x="99.38" y="41.24" width="4.08" height="1.45"/><rect class="cls-8" x="80.41" y="83.28" width="1.43" height="17.48"/><rect class="cls-8" x="103.48" y="83.28" width="1.43" height="17.48"/><path class="cls-9" d="M106.3,16.34l-13.51-.52a109.11,109.11,0,0,0-13.51.52,13.51,13.51,0,1,1,27,0Z"/><g class="cls-10"><g class="cls-11"><rect class="cls-12" x="35.57" width="56.72" height="159.69"/></g></g><path class="cls-13" d="M113.34,129.55a24.39,24.39,0,1,1,24.4,24.71A24.58,24.58,0,0,1,113.34,129.55Zm2.46,0a21.94,21.94,0,1,0,21.94-22.23A22.1,22.1,0,0,0,115.79,129.55Z"/><path class="cls-13" d="M23.2,129.55a24.4,24.4,0,1,1,24.4,24.71A24.58,24.58,0,0,1,23.2,129.55Zm2.46,0a21.94,21.94,0,1,0,21.94-22.23A22.1,22.1,0,0,0,25.66,129.55Z"/><polygon class="cls-5" points="99.25 132.3 140.46 131.05 117.3 92.26 67.03 92.26 67.03 95.43 115.54 95.43 135 128.04 100.3 129.1 64.88 100.53 62.93 103.01 99.25 132.3"/><path class="cls-14" d="M58.58,95.63l.5-2.39c-4.2-.9-6.45-2.92-6.18-5.53S55.64,82.8,58,82.8H71.73L69.05,89l2.21,1,4.15-9.63H58c-3.61,0-7.12,3.32-7.51,7.11C50.34,88.94,50.47,93.89,58.58,95.63Z"/><path class="cls-5" d="M48,131.16c1.7,0,6.22-.8,9.66-8.65l14-32.39-2.87-1.27-14,32.38c-3.19,7.27-6.85,6.77-6.89,6.76l-.58,3.12A3.69,3.69,0,0,0,48,131.16Z"/><polygon class="cls-5" points="101.2 131.36 122.76 83.52 119.91 82.19 98.35 130.04 101.2 131.36"/><path class="cls-13" d="M90.2,131.63a9.57,9.57,0,1,1,9.57,9.7A9.65,9.65,0,0,1,90.2,131.63Zm4.15,0a5.42,5.42,0,1,0,5.42-5.49A5.46,5.46,0,0,0,94.35,131.63Z"/><ellipse class="cls-13" cx="137.73" cy="129.58" rx="3.08" ry="3.11"/><path class="cls-13" d="M132.18,129.58a5.54,5.54,0,1,1,5.55,5.6A5.59,5.59,0,0,1,132.18,129.58Zm4.92,0c0,.67,1.23.69,1.23,0a.61.61,0,0,0-.61-.62A.62.62,0,0,0,137.11,129.58Z"/><rect class="cls-13" x="108.26" y="81.59" width="19.82" height="2.49"/></g></g></g></svg>