<svg xmlns="http://www.w3.org/2000/svg" xmlns:xlink="http://www.w3.org/1999/xlink" viewBox="0 0 94.31 144.68"><defs><style>.cls-1{fill:none;}.cls-2{isolation:isolate;}.cls-12,.cls-3{fill:#999;}.cls-3{fill-opacity:0.39;}.cls-11,.cls-3{mix-blend-mode:multiply;}.cls-4{fill:#5f3d2d;}.cls-5{fill:#74c7a5;}.cls-6{fill:#5590cc;}.cls-7{fill:#4e5d75;}.cls-8{fill:#fff;}.cls-9{opacity:0.4;}.cls-10{clip-path:url(#clip-path);}.cls-12{opacity:0.39;}</style><clipPath id="clip-path"><rect class="cls-1" x="37.41" width="23.89" height="144.68"/></clipPath></defs><title>Asset 31</title><g class="cls-2"><g id="Layer_2" data-name="Layer 2"><g id="Layer_1-2" data-name="Layer 1"><polygon class="cls-3" points="20.59 110.83 0 110.83 51.8 144.25 72.81 144.25 20.59 110.83"/><polygon class="cls-3" points="42.08 110.83 39.31 110.83 91.11 144.25 94.31 144.25 42.08 110.83"/><path class="cls-4" d="M93.74,144.47H91.84V87.53c0-2.69-2.72-4.88-6.06-4.88V80.74c4.2,0,7.65,2.8,7.93,6.33h0Z"/><rect class="cls-5" x="79.72" y="31.92" width="5.62" height="54.42"/><rect class="cls-5" x="37.42" y="31.92" width="5.61" height="52.84"/><rect class="cls-5" x="50.85" y="79.45" width="6.96" height="65.2"/><rect class="cls-5" x="66.81" y="79.09" width="6.96" height="65.59"/><polygon class="cls-6" points="49.35 74.85 74.51 76.06 74.03 112.6 64.88 112.6 63.2 85.57 60.51 85.57 59.27 113.54 50.4 113.31 49.35 74.85"/><path class="cls-5" d="M72.51,11.37a11.22,11.22,0,1,0-22.44,0,11.22,11.22,0,1,0,22.44,0Z"/><rect class="cls-7" x="45.71" y="30.23" width="31.16" height="63.24"/><rect class="cls-8" x="44.54" y="53.16" width="33.51" height="11.55"/><path class="cls-5" d="M68.17,30.23a6.87,6.87,0,0,1-13.74,0Z"/><g class="cls-9"><g class="cls-10"><g class="cls-11"><g class="cls-11"><path class="cls-12" d="M93.72,87.07c-.28-3.53-3.73-6.33-7.93-6.33v1.92c3.34,0,6.06,2.19,6.06,4.88v56.94h1.89V87.07Z"/></g><g class="cls-11"><rect class="cls-12" x="79.72" y="31.92" width="5.62" height="54.42"/></g><g class="cls-11"><rect class="cls-12" x="37.42" y="31.92" width="5.61" height="52.84"/></g><g class="cls-11"><path class="cls-12" d="M61.3,22.74A11.29,11.29,0,0,0,72.51,11.37a11.22,11.22,0,1,0-22.44,0A11.3,11.3,0,0,0,61.3,22.74Z"/></g><g class="cls-11"><polygon class="cls-12" points="55.03 30.23 45.71 30.23 45.71 93.47 49.66 93.47 50.4 113.31 50.85 113.32 50.85 144.65 57.81 144.65 57.81 113.54 59.27 113.54 59.75 93.47 63.69 93.47 64.87 112.61 66.81 112.6 66.81 144.68 73.77 144.68 73.77 139.32 73.77 112.6 74.03 112.6 74.33 93.47 76.88 93.47 76.88 30.23 68.77 30.23 55.03 30.23"/></g></g></g></g></g></g></g></svg>