<svg xmlns="http://www.w3.org/2000/svg" xmlns:xlink="http://www.w3.org/1999/xlink" viewBox="0 0 88.77 143.2"><defs><style>.cls-1{fill:none;}.cls-2{isolation:isolate;}.cls-3{fill:#f16667;}.cls-11,.cls-4{mix-blend-mode:multiply;}.cls-5{opacity:0.39;}.cls-6{fill:#999;}.cls-7{fill:#73c8ef;}.cls-8{fill:#242058;}.cls-9{fill:#f0efef;}.cls-10{clip-path:url(#clip-path);}.cls-11{opacity:0.15;}.cls-12{fill:#333;}</style><clipPath id="clip-path" transform="translate(0 -0.3)"><rect class="cls-1" x="37.82" width="24.86" height="143.78"/></clipPath></defs><title>Asset 40</title><g class="cls-2"><g id="Layer_2" data-name="Layer 2"><g id="Layer_1-2" data-name="Layer 1"><rect class="cls-3" x="48.02" y="27.72" width="30.81" height="42.59"/><g class="cls-4"><g class="cls-5"><polygon class="cls-6" points="21.56 109.27 0 109.15 52.48 143 74.47 143.12 21.56 109.27"/></g></g><rect class="cls-7" x="82.42" y="30.59" width="5.47" height="49.47"/><polygon class="cls-7" points="38.28 30.36 43.75 30.36 43.73 79.67 38.27 79.67 38.28 30.36"/><rect class="cls-7" x="52.45" y="79.67" width="6.77" height="63.5"/><rect class="cls-7" x="67.99" y="79.33" width="6.78" height="63.87"/><path class="cls-7" d="M74,11.72a11.28,11.28,0,1,0-22.55,0,11.28,11.28,0,1,0,22.55,0Z" transform="translate(0 -0.3)"/><polygon class="cls-8" points="50.05 132.73 49.92 72.96 76.93 72.96 76.8 132.73 67.17 132.73 65.14 87.66 62.44 87.66 60.4 133.27 50.05 132.73"/><rect class="cls-3" x="37.8" y="29.81" width="6.7" height="43.57"/><rect class="cls-3" x="81.91" y="30.32" width="6.7" height="43.54"/><rect class="cls-9" x="48.97" y="129.73" width="13.04" height="3.66"/><rect class="cls-9" x="66.16" y="129.73" width="12.08" height="3.66"/><path class="cls-7" d="M67.14,28a4.47,4.47,0,0,1-8.93,0Z" transform="translate(0 -0.3)"/><g class="cls-10"><g class="cls-11"><path class="cls-12" d="M62.84,23.15A11.35,11.35,0,0,0,74.12,11.71a11.28,11.28,0,1,0-22.55,0A11.35,11.35,0,0,0,62.84,23.15Z" transform="translate(0 -0.3)"/><polygon class="cls-12" points="77.09 72.95 50.09 72.95 50.21 129.72 49.13 129.72 49.13 133.38 52.61 133.38 52.61 143.16 59.39 143.16 59.39 133.38 62.17 133.38 62.17 129.72 60.72 129.72 62.6 87.65 65.3 87.65 67.2 129.72 66.32 129.72 66.32 133.38 68.15 133.38 68.15 143.19 74.93 143.19 74.93 133.38 78.4 133.38 78.4 129.72 76.97 129.72 77.09 72.95"/><polygon class="cls-12" points="88.77 30.31 82.08 30.31 82.08 51.27 79 33.23 79 27.72 48.18 27.72 48.18 70.31 79 70.31 79 68.31 79 67.69 79 67.7 79 68.31 79.44 68.31 79.4 62.58 79 62.02 79 56.06 82.08 55.53 82.08 73.86 82.58 73.86 82.58 80.06 88.05 80.06 88.06 73.86 88.77 73.86 88.77 30.31"/><rect class="cls-12" x="37.8" y="29.81" width="6.7" height="43.57"/></g></g></g></g></g></svg>