<svg xmlns="http://www.w3.org/2000/svg" xmlns:xlink="http://www.w3.org/1999/xlink" viewBox="0 0 116.29 150.41"><defs><style>.cls-1{fill:none;}.cls-2{isolation:isolate;}.cls-11,.cls-3{fill:#999;}.cls-3{fill-opacity:0.39;}.cls-10,.cls-3{mix-blend-mode:multiply;}.cls-4{fill:#73c8ef;}.cls-5{fill:#4e5d75;}.cls-6{fill:#ee6667;}.cls-7{clip-path:url(#clip-path);}.cls-8{fill:#fff;opacity:0.8;}.cls-9{clip-path:url(#clip-path-2);}.cls-10{opacity:0.4;}</style><clipPath id="clip-path" transform="translate(0 -2.04)"><polygon class="cls-1" points="51.99 76.83 82.05 77.2 76.67 136.69 70.67 136.53 68.58 88.08 64.66 88.08 62.31 136.69 56.45 136.69 51.99 76.83"/></clipPath><clipPath id="clip-path-2" transform="translate(0 -2.04)"><rect class="cls-1" x="42.73" width="24.39" height="152.21"/></clipPath></defs><title>Asset 20</title><g class="cls-2"><g id="Layer_2" data-name="Layer 2"><g id="Layer_1-2" data-name="Layer 1"><polygon class="cls-3" points="20.09 114.32 0 114.32 55.54 150.14 76.09 150.14 20.09 114.32"/><rect class="cls-4" x="56.45" y="106.63" width="5.85" height="43.71"/><rect class="cls-4" x="52.53" y="66.29" width="28.78" height="12.23"/><rect class="cls-4" x="70.67" y="106.4" width="5.85" height="43.7"/><rect class="cls-5" x="51.63" y="28.9" width="30.28" height="43.11"/><path class="cls-4" d="M75.92,23.12c9.78-13-4.75-27.75-17.61-17.83C48.5,18.32,63.07,33.07,75.92,23.12Z" transform="translate(0 -2.04)"/><rect class="cls-4" x="44.06" y="31.58" width="4.03" height="46.14"/><rect class="cls-4" x="85.35" y="32.09" width="4.02" height="45.39"/><polygon class="cls-6" points="51.99 74.8 82.05 75.16 76.67 134.65 70.67 134.49 68.58 86.05 64.66 86.05 62.31 134.65 56.45 134.65 51.99 74.8"/><polygon class="cls-4" points="67.11 38.57 57.8 28.9 75.88 28.9 67.11 38.57"/><g class="cls-7"><circle class="cls-8" cx="58.15" cy="138.75" r="2.39"/><circle class="cls-8" cx="68.13" cy="138.75" r="2.39"/><circle class="cls-8" cx="78.12" cy="138.75" r="2.39"/><circle class="cls-8" cx="88.11" cy="138.75" r="2.39"/><circle class="cls-8" cx="98.1" cy="138.75" r="2.39"/><circle class="cls-8" cx="108.08" cy="138.75" r="2.39"/><circle class="cls-8" cx="53.32" cy="133.92" r="2.39"/><circle class="cls-8" cx="63.3" cy="133.92" r="2.39"/><circle class="cls-8" cx="73.29" cy="133.92" r="2.39"/><circle class="cls-8" cx="83.28" cy="133.92" r="2.39"/><circle class="cls-8" cx="93.27" cy="133.92" r="2.39"/><circle class="cls-8" cx="103.25" cy="133.92" r="2.39"/><circle class="cls-8" cx="113.24" cy="133.92" r="2.39"/><circle class="cls-8" cx="48.49" cy="129.09" r="2.39"/><circle class="cls-8" cx="58.47" cy="129.09" r="2.39"/><circle class="cls-8" cx="68.46" cy="129.09" r="2.39"/><circle class="cls-8" cx="78.45" cy="129.09" r="2.39"/><circle class="cls-8" cx="88.44" cy="129.09" r="2.39"/><circle class="cls-8" cx="98.43" cy="129.09" r="2.39"/><circle class="cls-8" cx="108.41" cy="129.09" r="2.39"/><circle class="cls-8" cx="43.66" cy="124.26" r="2.39"/><circle class="cls-8" cx="53.64" cy="124.26" r="2.39"/><circle class="cls-8" cx="63.63" cy="124.26" r="2.39"/><circle class="cls-8" cx="73.62" cy="124.26" r="2.39"/><circle class="cls-8" cx="83.61" cy="124.26" r="2.39"/><circle class="cls-8" cx="93.6" cy="124.26" r="2.39"/><circle class="cls-8" cx="103.58" cy="124.26" r="2.39"/><circle class="cls-8" cx="113.57" cy="124.26" r="2.39"/><circle class="cls-8" cx="38.83" cy="119.43" r="2.39"/><circle class="cls-8" cx="48.82" cy="119.43" r="2.39"/><circle class="cls-8" cx="58.8" cy="119.43" r="2.39"/><circle class="cls-8" cx="68.79" cy="119.43" r="2.39"/><circle class="cls-8" cx="78.78" cy="119.43" r="2.39"/><circle class="cls-8" cx="88.77" cy="119.43" r="2.39"/><circle class="cls-8" cx="98.75" cy="119.43" r="2.39"/><circle class="cls-8" cx="108.74" cy="119.43" r="2.39"/><circle class="cls-8" cx="43.99" cy="114.6" r="2.39"/><circle class="cls-8" cx="53.97" cy="114.6" r="2.39"/><circle class="cls-8" cx="63.96" cy="114.6" r="2.39"/><circle class="cls-8" cx="73.95" cy="114.6" r="2.39"/><circle class="cls-8" cx="83.94" cy="114.6" r="2.39"/><circle class="cls-8" cx="93.92" cy="114.6" r="2.39"/><circle class="cls-8" cx="103.91" cy="114.6" r="2.39"/><circle class="cls-8" cx="113.9" cy="114.6" r="2.39"/><circle class="cls-8" cx="39.16" cy="109.77" r="2.39"/><circle class="cls-8" cx="49.14" cy="109.77" r="2.39"/><circle class="cls-8" cx="59.13" cy="109.77" r="2.39"/><circle class="cls-8" cx="69.12" cy="109.77" r="2.39"/><circle class="cls-8" cx="79.11" cy="109.77" r="2.39"/><circle class="cls-8" cx="89.1" cy="109.77" r="2.39"/><circle class="cls-8" cx="99.08" cy="109.77" r="2.39"/><circle class="cls-8" cx="109.07" cy="109.77" r="2.39"/><circle class="cls-8" cx="44.32" cy="104.94" r="2.39"/><circle class="cls-8" cx="54.3" cy="104.94" r="2.39"/><circle class="cls-8" cx="64.29" cy="104.94" r="2.39"/><circle class="cls-8" cx="74.28" cy="104.94" r="2.39"/><circle class="cls-8" cx="84.27" cy="104.94" r="2.39"/><circle class="cls-8" cx="94.25" cy="104.94" r="2.39"/><circle class="cls-8" cx="104.24" cy="104.94" r="2.39"/><circle class="cls-8" cx="39.49" cy="100.11" r="2.39"/><circle class="cls-8" cx="49.47" cy="100.11" r="2.39"/><circle class="cls-8" cx="59.46" cy="100.11" r="2.39"/><circle class="cls-8" cx="69.45" cy="100.11" r="2.39"/><circle class="cls-8" cx="79.44" cy="100.11" r="2.39"/><circle class="cls-8" cx="89.42" cy="100.11" r="2.39"/><circle class="cls-8" cx="99.41" cy="100.11" r="2.39"/><circle class="cls-8" cx="109.4" cy="100.11" r="2.39"/><circle class="cls-8" cx="34.66" cy="95.28" r="2.39"/><circle class="cls-8" cx="44.64" cy="95.28" r="2.39"/><circle class="cls-8" cx="54.63" cy="95.28" r="2.39"/><circle class="cls-8" cx="64.62" cy="95.28" r="2.39"/><circle class="cls-8" cx="74.61" cy="95.28" r="2.39"/><circle class="cls-8" cx="84.59" cy="95.28" r="2.39"/><circle class="cls-8" cx="94.58" cy="95.28" r="2.39"/><circle class="cls-8" cx="104.57" cy="95.28" r="2.39"/><circle class="cls-8" cx="39.81" cy="90.45" r="2.39"/><circle class="cls-8" cx="49.8" cy="90.45" r="2.39"/><circle class="cls-8" cx="59.79" cy="90.45" r="2.39"/><circle class="cls-8" cx="69.78" cy="90.45" r="2.39"/><circle class="cls-8" cx="79.77" cy="90.45" r="2.39"/><circle class="cls-8" cx="89.75" cy="90.45" r="2.39"/><circle class="cls-8" cx="99.74" cy="90.45" r="2.39"/><circle class="cls-8" cx="34.99" cy="85.62" r="2.39"/><circle class="cls-8" cx="44.97" cy="85.62" r="2.39"/><circle class="cls-8" cx="54.96" cy="85.62" r="2.39"/><circle class="cls-8" cx="64.95" cy="85.62" r="2.39"/><circle class="cls-8" cx="74.94" cy="85.62" r="2.39"/><circle class="cls-8" cx="84.92" cy="85.62" r="2.39"/><circle class="cls-8" cx="94.91" cy="85.62" r="2.39"/><circle class="cls-8" cx="40.14" cy="80.8" r="2.39"/><circle class="cls-8" cx="50.13" cy="80.8" r="2.39"/><circle class="cls-8" cx="60.12" cy="80.8" r="2.39"/><circle class="cls-8" cx="70.11" cy="80.8" r="2.39"/><circle class="cls-8" cx="80.09" cy="80.8" r="2.39"/><circle class="cls-8" cx="90.08" cy="80.8" r="2.39"/><circle class="cls-8" cx="35.31" cy="75.97" r="2.39"/><circle class="cls-8" cx="45.3" cy="75.97" r="2.39"/><circle class="cls-8" cx="55.29" cy="75.97" r="2.39"/><circle class="cls-8" cx="65.28" cy="75.97" r="2.39"/><circle class="cls-8" cx="75.27" cy="75.97" r="2.39"/><circle class="cls-8" cx="85.25" cy="75.97" r="2.39"/><circle class="cls-8" cx="40.47" cy="71.14" r="2.39"/><circle class="cls-8" cx="50.46" cy="71.14" r="2.39"/><circle class="cls-8" cx="60.45" cy="71.14" r="2.39"/><circle class="cls-8" cx="70.44" cy="71.14" r="2.39"/><circle class="cls-8" cx="80.42" cy="71.14" r="2.39"/></g><rect class="cls-5" x="42.73" y="31.58" width="6.94" height="9.39"/><rect class="cls-5" x="83.89" y="31.58" width="6.94" height="9.39"/><g class="cls-9"><g class="cls-10"><ellipse class="cls-11" cx="67.11" cy="12.24" rx="12.02" ry="12.17"/><polygon class="cls-11" points="44.06 77.79 48.09 77.79 48.09 40.97 49.66 40.97 49.66 31.58 42.73 31.58 42.73 40.97 44.06 40.94 44.06 77.79"/><rect class="cls-11" x="85.35" y="31.41" width="4.02" height="46.14"/><polygon class="cls-11" points="81.31 75.22 81.31 72.08 81.91 72.08 81.91 38.49 82.14 38.49 82.14 28.82 78.84 28.82 78.84 28.97 75.88 28.97 57.8 28.97 54.84 28.97 51.63 28.97 51.63 72.08 52.53 72.08 52.53 74.87 51.99 74.87 56.45 134.72 56.45 150.41 62.31 150.41 62.31 134.72 64.66 86.11 68.58 86.11 70.23 131.51 68.53 131.51 68.53 135.18 70.67 135.18 70.67 150.17 76.52 150.17 76.52 135.18 78.48 135.18 78.48 131.51 77.22 131.51 82.05 75.23 81.31 75.22"/></g></g></g></g></g></svg>