<svg xmlns="http://www.w3.org/2000/svg" xmlns:xlink="http://www.w3.org/1999/xlink" viewBox="0 0 92.04 159.69"><defs><style>.cls-1,.cls-3{fill:none;}.cls-2{isolation:isolate;}.cls-3{stroke:#02b14c;stroke-miterlimit:10;stroke-width:0.25px;}.cls-13,.cls-4{fill:#999;}.cls-4{fill-opacity:0.39;}.cls-11,.cls-4{mix-blend-mode:multiply;}.cls-5{fill:#74c7a5;}.cls-6{fill:#fff;}.cls-7{fill:#c9c9c9;}.cls-8{fill:#232427;}.cls-9{fill:#ed1d36;}.cls-10{fill:#02b14c;}.cls-12{clip-path:url(#clip-path);}.cls-13{opacity:0.4;}</style><clipPath id="clip-path"><path class="cls-1" d="M45.24,92.21l2.6,2.66-.76.76-3.34-3.43H39.6V88l-6.05-6.2-2,2-2.31-2.38,3.93,0-3.57-3.66.76-.76,3.82,3.91,2-2.1,2.35,2.34-4.12,0,5.14,5.27v-2.8h-.45l.1-47.5h7l-.1,47.51h-.85l0,8.56Zm19.89-64.4a12,12,0,0,0,0-24,11.92,11.92,0,0,0-11.87,12A11.92,11.92,0,0,0,65.13,27.81Zm27.05,7.89h-7L85,83.21h.5l0,8.43h5.74l0-8.44h.8ZM53.66,148.18l.46,0v6l7.11,0v-6.3l.88,0,1.4-54.09h3.34l3.28,55,.3,0v5.52h7.11v-6.66l.27,0,.56-64.35-25.66-.41ZM79.41,33,73,31.85l-1.5-1.69-.12.06-.06-.06-2.2,1.08V30.19L66.7,31.84h-3.1l-2.47-1.65v.7l-1.52-.73-1.48,1.67L51.78,33l.06.05H49.49L49.4,77.29l32.27.07.09-44.29H79.29ZM28.17,71.43l-3.7,3.87L28.29,79,32,75.18Z"/></clipPath></defs><title>Asset 45</title><g class="cls-2"><g id="Layer_2" data-name="Layer 2"><g id="Layer_1-2" data-name="Layer 1"><line class="cls-3" x1="29.86" y1="77.33" x2="47.32" y2="95.22"/><polygon class="cls-4" points="24.83 119.28 0 119.28 53.17 153.51 78.44 153.51 24.83 119.28"/><rect class="cls-5" x="60.48" y="60.92" width="55.66" height="5.74" transform="translate(24.31 151.95) rotate(-89.86)"/><rect class="cls-5" x="14.65" y="61.55" width="55.49" height="5.75" transform="translate(-22.13 106.67) rotate(-89.86)"/><rect class="cls-5" x="24.26" y="117.22" width="66.68" height="7.11" transform="translate(-63.31 178.1) rotate(-89.87)"/><rect class="cls-5" x="40.39" y="117.08" width="67.07" height="7.12" transform="translate(-46.86 194.33) rotate(-89.89)"/><ellipse class="cls-5" cx="65.01" cy="15.78" rx="12" ry="11.84" transform="matrix(0, -1, 1, 0, 49.09, 80.76)"/><rect x="42.6" y="39.71" width="45.68" height="32.27" transform="translate(9.46 121.17) rotate(-89.88)"/><polygon points="46.08 83.63 39.03 83.6 39.13 36.1 46.17 36.12 46.08 83.63"/><rect x="64.71" y="55.91" width="47.51" height="7.04" transform="translate(28.9 147.8) rotate(-89.91)"/><polygon points="52.59 82.72 78.26 83.13 77.69 147.47 70.01 148.69 66.73 93.71 63.39 93.7 61.98 147.79 53.52 148.14 52.59 82.72"/><polygon class="cls-6" points="65.01 52.86 56.96 32.97 73.93 32.97 65.01 52.86"/><polygon class="cls-7" points="65.01 59.43 56.96 32.97 59.48 30.13 65.44 32.97 71.23 30.13 73.93 32.97 65.01 59.43"/><polygon class="cls-8" points="65.01 59.43 77.24 37.16 76.22 35.61 79.27 32.92 72.82 31.8 73.93 32.97 65.01 59.43"/><polygon class="cls-8" points="65.01 59.43 53.66 37.16 54.69 35.61 51.64 32.92 57.99 31.8 56.98 32.97 65.01 59.43"/><polygon class="cls-6" points="62.42 35.95 56.96 32.97 59.48 30.13 64.79 32.97 62.42 35.95"/><polygon class="cls-6" points="68.47 35.95 73.93 32.97 71.41 30.13 66.09 32.97 68.47 35.95"/><polygon points="69.03 35.78 69.03 30.16 66.56 31.8 63.47 31.8 61 30.16 61 35.78 63.47 34.14 66.56 34.14 69.03 35.78"/><polygon class="cls-9" points="31.85 75.14 28.15 79.02 24.33 75.27 28.03 71.39 31.85 75.14"/><polygon class="cls-10" points="33.79 81.37 31.44 83.71 29.13 81.33 33.79 81.37"/><polygon class="cls-10" points="38.45 81.1 36.1 78.75 33.79 81.14 38.45 81.1"/><g class="cls-11"><g class="cls-12"><rect class="cls-13" x="8.44" width="56.72" height="159.69"/></g></g><ellipse class="cls-8" cx="60.88" cy="73.79" rx="1.39" ry="1.41"/><ellipse class="cls-8" cx="60.88" cy="66.63" rx="1.39" ry="1.41"/></g></g></g></svg>