<svg xmlns="http://www.w3.org/2000/svg" xmlns:xlink="http://www.w3.org/1999/xlink" viewBox="0 0 87.81 144.34"><defs><style>.cls-1{fill:none;}.cls-2{isolation:isolate;}.cls-3{fill:#999;fill-opacity:0.39;}.cls-3,.cls-9{mix-blend-mode:multiply;}.cls-4{fill:#75c5a4;}.cls-5{fill:#dedede;}.cls-6{fill:#4e5d75;}.cls-7{fill:#f499c1;}.cls-8{clip-path:url(#clip-path);}.cls-9{opacity:0.3;}.cls-10{fill:#969696;}</style><clipPath id="clip-path" transform="translate(0 -0.96)"><polygon class="cls-1" points="38.13 145.23 64.47 146.02 64.02 0 40.08 0.94 38.13 145.23"/></clipPath></defs><title>Asset 24</title><g class="cls-2"><g id="Layer_2" data-name="Layer 2"><g id="Layer_1-2" data-name="Layer 1"><polygon class="cls-3" points="18.86 109.52 0 109.52 53.82 144.24 73.13 144.24 18.86 109.52"/><polygon class="cls-4" points="59.89 144.26 53.8 144.27 53.78 140.44 59.87 140.43 59.89 144.26"/><polygon class="cls-4" points="73.05 144.22 66.92 144.24 66.9 140.31 73.03 140.3 73.05 144.22"/><ellipse class="cls-4" cx="63.83" cy="12.65" rx="11.54" ry="11.69" transform="matrix(1, 0, 0, 1, -0.03, -0.83)"/><polygon class="cls-4" points="45.5 78.57 41.29 78.58 41.32 30.31 45.4 30.3 45.5 78.57"/><polygon class="cls-4" points="86 78.23 81.88 78.24 81.78 30.3 86.46 30.29 86 78.23"/><polygon class="cls-5" points="50.29 73.84 50.11 68.84 59.82 27.6 67.9 27.54 77.03 68.77 76.8 73.84 50.29 73.84"/><path class="cls-4" d="M69.23,28.56a5.39,5.39,0,0,1-10.79,0Z" transform="translate(0 -0.96)"/><polygon class="cls-6" points="45.49 72.2 41.28 72.2 40.41 30.31 45.4 30.3 45.49 72.2"/><polygon class="cls-6" points="86.08 72.11 81.87 72.12 81.78 30.3 86.55 30.29 86.08 72.11"/><rect class="cls-6" x="39.78" y="30.3" width="7.15" height="38.47"/><rect class="cls-6" x="48.36" y="27.54" width="11.46" height="41.23"/><rect class="cls-6" x="67.9" y="27.53" width="11.05" height="41.23"/><rect class="cls-6" x="80.54" y="30.3" width="7.15" height="38.47"/><polygon class="cls-7" points="70.97 77.59 64.69 77.59 62.14 77.59 54.46 77.6 51.75 77.6 52.84 140.5 60.78 140.43 62.14 87.11 64.69 87.11 65.98 140.43 73.97 140.43 75.08 77.59 70.97 77.59"/><rect class="cls-6" x="55.02" y="26.59" width="4.8" height="1.92"/><rect class="cls-6" x="67.9" y="26.59" width="4.8" height="1.92"/><g class="cls-8"><g class="cls-9"><ellipse class="cls-10" cx="63.91" cy="12.72" rx="11.54" ry="11.69" transform="translate(-0.03 -0.83) rotate(-0.12)"/><polygon class="cls-10" points="39.78 30.25 39.78 68.71 41.21 68.71 41.28 72.15 41.3 72.15 41.29 78.53 45.5 78.52 45.49 72.14 45.49 72.14 45.48 68.71 46.93 68.71 46.93 30.24 39.78 30.25"/><polygon class="cls-10" points="87.81 30.37 86.62 30.37 86.62 30.36 84.25 30.37 80.66 30.37 80.67 68.84 81.93 68.83 81.94 72.19 81.94 72.19 81.95 78.31 86.07 78.3 86.13 72.18 86.15 72.18 86.19 68.83 87.81 68.83 87.81 30.37"/><polygon class="cls-10" points="75.16 77.66 71.05 77.66 64.76 77.66 62.22 77.66 54.53 77.67 51.82 77.67 52.84 140.5 56.82 140.5 53.85 140.51 53.87 144.34 59.97 144.32 59.87 140.43 60.78 140.5 62.22 87.18 64.76 86.33 66.97 140.5 66.98 140.5 67 144.31 73.12 144.29 73.1 140.5 73.11 140.5 75.16 77.66"/><polygon class="cls-10" points="72.77 26.6 67.97 26.6 67.97 27.55 67.97 27.57 59.89 27.59 59.89 27.55 59.89 26.6 55.09 26.6 55.09 27.55 48.44 27.55 48.44 68.78 50.13 68.78 50.36 73.86 75.83 73.85 76.18 68.78 79.02 68.78 79.02 27.55 72.77 27.55 72.77 26.6"/></g></g></g></g></g></svg>