<svg xmlns="http://www.w3.org/2000/svg" xmlns:xlink="http://www.w3.org/1999/xlink" viewBox="0 0 89.2 155.32"><defs><style>.cls-1{fill:none;}.cls-2{isolation:isolate;}.cls-3{fill:#999;fill-opacity:0.39;}.cls-3,.cls-8{mix-blend-mode:multiply;}.cls-4{fill:#4e5d75;}.cls-5{fill:#75c5a4;}.cls-6{fill:#e5dfdc;}.cls-7{clip-path:url(#clip-path);}.cls-8{opacity:0.4;}.cls-9{fill:#969696;}.cls-10{fill:#f16667;}</style><clipPath id="clip-path" transform="translate(0 -1.32)"><polygon class="cls-1" points="42.19 146.4 66.45 146.34 66.33 0.63 42.06 0 42.19 146.4"/></clipPath></defs><title>Asset 27</title><g class="cls-2"><g id="Layer_2" data-name="Layer 2"><g id="Layer_1-2" data-name="Layer 1"><polygon class="cls-3" points="20.72 109.31 0 109.31 55.45 145.08 76.63 145.08 20.72 109.31"/><polygon class="cls-4" points="54.85 134.75 53.23 109.42 62.54 109.4 62.19 134.74 54.85 134.75"/><polygon class="cls-4" points="70.04 134.69 68.98 109.15 78.47 109.13 77.16 134.68 70.04 134.69"/><rect class="cls-5" x="55.49" y="136.06" width="6.17" height="10.33" transform="translate(-0.3 -1.19) rotate(-0.12)"/><rect class="cls-5" x="70.46" y="136.03" width="6.16" height="10.32" transform="translate(-0.3 -1.16) rotate(-0.12)"/><ellipse class="cls-5" cx="66.35" cy="13.07" rx="11.6" ry="11.75" transform="translate(-0.03 -1.18) rotate(-0.12)"/><polygon class="cls-5" points="47.92 79.01 43.68 79.02 43.72 30.48 47.82 30.47 47.92 79.01"/><polygon class="cls-5" points="88.64 78.67 84.5 78.68 84.4 30.13 89.1 30.12 88.64 78.67"/><polygon class="cls-6" points="79.86 109.37 52.35 109.42 50.14 27.76 81.72 27.69 79.86 109.37"/><polygon class="cls-6" points="47.91 72.6 43.67 72.61 42.8 30.48 47.82 30.47 47.91 72.6"/><polygon class="cls-6" points="88.72 72.51 84.49 72.52 84.39 30.13 89.19 30.12 88.72 72.51"/><g class="cls-7"><g class="cls-8"><rect class="cls-9" x="70.38" y="146.3" width="6.16" height="10.33" transform="translate(-0.32 -1.16) rotate(-0.12)"/><ellipse class="cls-9" cx="66.35" cy="13.02" rx="11.47" ry="11.62" transform="translate(-0.03 -1.18) rotate(-0.12)"/><polygon class="cls-9" points="88.55 30.12 84.31 30.13 84.31 30.13 84.36 54.66 84.4 72.52 84.4 72.52 84.41 78.68 88.65 78.67 88.64 72.51 88.64 72.51 88.64 72.51 88.55 30.12 88.55 30.12"/><polygon class="cls-9" points="50.61 54.74 50.61 54.74 52.09 109.42 52.97 109.42 54.59 134.75 55.22 134.75 55.24 145.08 61.41 145.06 61.39 134.74 61.93 134.74 62.28 109.4 68.73 109.39 70.2 144.89 76.37 144.88 78.19 109.37 79.6 109.37 81.46 27.69 49.88 27.76 50.61 54.74"/><polygon class="cls-9" points="47.82 30.47 42.8 30.48 43.67 72.61 43.68 79.02 47.92 79.01 47.91 72.6 47.87 54.74 47.87 54.74 47.82 30.47"/></g></g><polygon class="cls-4" points="63.78 94.06 50.01 94.06 50.01 27.73 63.78 26.73 63.78 64.83 63.78 94.06"/><polygon class="cls-4" points="81.85 94.06 68.07 94.06 68.07 26.73 81.85 27.73 81.85 94.06"/><path class="cls-10" d="M75.27,28.6H57.89V26.42a3.79,3.79,0,0,1,3.79-3.79h10a3.6,3.6,0,0,1,3.6,3.6Z" transform="translate(0 -1.32)"/><rect class="cls-10" x="61.25" y="24.11" width="5.33" height="27.21"/><path class="cls-10" d="M71.9,41.5H66.58a33.54,33.54,0,0,1,0-13.6H71.9A33.54,33.54,0,0,0,71.9,41.5Z" transform="translate(0 -1.32)"/></g></g></g></svg>