<svg xmlns="http://www.w3.org/2000/svg" xmlns:xlink="http://www.w3.org/1999/xlink" viewBox="0 0 135.01 158.53"><defs><style>.cls-1,.cls-16,.cls-7{fill:none;}.cls-2{isolation:isolate;}.cls-3,.cls-6{fill:#999;}.cls-3{fill-opacity:0.39;}.cls-3,.cls-9{mix-blend-mode:multiply;}.cls-4{fill:#434a47;}.cls-5{fill:#74c7a5;}.cls-7{stroke:#424543;stroke-linecap:round;}.cls-16,.cls-7{stroke-miterlimit:10;}.cls-8{clip-path:url(#clip-path);}.cls-9{opacity:0.4;}.cls-10{opacity:0.57;}.cls-11{fill:#fff;}.cls-12{fill:#f499c1;}.cls-13{fill:#b3b3b3;}.cls-14{fill:#969696;}.cls-15{fill:#828282;}.cls-16{stroke:#f499c1;stroke-width:0.75px;}</style><clipPath id="clip-path" transform="translate(0 -2.2)"><polygon class="cls-1" points="46.92 150.38 70.5 150.26 71.18 0 46.92 0.11 46.92 150.38"/></clipPath></defs><title>Asset 50</title><g class="cls-2"><g id="Layer_2" data-name="Layer 2"><g id="Layer_1-2" data-name="Layer 1"><polygon class="cls-3" points="20.65 109.46 0 109.46 59.95 148.13 130.25 148.13 91 124.08 44.81 124.81 20.65 109.46"/><polygon class="cls-4" points="58.88 137.51 57.28 111.65 66.79 111.65 66.38 137.51 58.88 137.51"/><polygon class="cls-4" points="74.39 137.48 73.36 111.41 83.05 111.41 81.66 137.48 74.39 137.48"/><rect class="cls-5" x="59.53" y="137.51" width="6.3" height="10.54"/><rect class="cls-5" x="74.8" y="137.51" width="6.29" height="10.54"/><ellipse class="cls-5" cx="70.89" cy="12" rx="11.84" ry="12"/><polygon class="cls-5" points="51.93 80.6 47.61 80.6 47.75 31.06 51.93 31.06 51.93 80.6"/><polygon class="cls-5" points="93.59 80.34 89.27 80.34 89.27 30.79 94.17 30.79 93.59 80.34"/><polygon class="cls-6" points="84.46 111.65 56.38 111.65 54.31 28.29 86.54 28.29 84.46 111.65"/><polygon class="cls-6" points="51.93 74.06 47.61 74.06 46.81 31.06 51.93 31.06 51.93 74.06"/><polygon class="cls-6" points="93.59 74.06 89.27 74.06 89.27 30.79 94.17 30.79 93.59 74.06"/><line class="cls-7" x1="89.27" y1="70.99" x2="93.59" y2="70.99"/><path class="cls-5" d="M77.14,30.49a6.72,6.72,0,1,1-13.43,0Z" transform="translate(0 -2.2)"/><g class="cls-8"><g class="cls-9"><rect class="cls-6" x="74.82" y="147.99" width="6.29" height="10.54"/><ellipse class="cls-6" cx="71.01" cy="11.95" rx="11.7" ry="11.86"/><polygon class="cls-6" points="55.01 55.83 55.01 55.83 56.4 111.65 57.3 111.65 59.64 147.89 65.94 147.89 66.81 111.65 73.39 111.65 74.81 147.89 81.11 147.89 83.05 111.65 84.48 111.65 86.56 28.29 54.33 28.29 55.01 55.83"/><polygon class="cls-6" points="52.05 31.06 46.93 31.06 47.73 74.06 47.73 80.6 52.05 80.6 52.05 74.06 52.05 55.83 52.05 55.83 52.05 31.06"/><polygon class="cls-6" points="93.62 30.79 89.3 30.79 89.3 30.79 89.3 55.83 89.3 74.06 89.3 74.06 89.3 80.34 93.62 80.34 93.62 74.06 93.62 74.06 93.62 74.06 93.62 30.79 93.62 30.79"/></g></g><g class="cls-10"><path class="cls-11" d="M135,100.18c0-.09,0-.18,0-.27,0-15.41-13.27-28.06-30.17-29.39V97.31a3,3,0,0,1-2.13,2.88Z" transform="translate(0 -2.2)"/></g><path class="cls-12" d="M103,100.06a4,4,0,0,1-2.2.12,4,4,0,0,1-.63,0H69.95a32.45,32.45,0,0,0,64.9-.17Z" transform="translate(0 -2.2)"/><path class="cls-13" d="M135,100.18c0-.09,0-.18,0-.27,0-15.41-13.27-28.06-30.17-29.39V97.31a3,3,0,0,1-2.13,2.88Z" transform="translate(0 -2.2)"/><path class="cls-14" d="M104.81,97.91a3,3,0,0,1-2.1,2.42H135c0-.09,0-.18,0-.28,0-9.43-5-17.83-12.7-23.22" transform="translate(0 -2.2)"/><path class="cls-15" d="M104.72,98.31a3.05,3.05,0,0,1-2,2H135c0-.09,0-.18,0-.28a26.8,26.8,0,0,0-3.6-13.37" transform="translate(0 -2.2)"/><path class="cls-6" d="M86.45,150.38h0a8.44,8.44,0,0,1-6-2.56,8.51,8.51,0,1,1,6.07,2.56Zm0-14.23a5.6,5.6,0,0,0-3.94,9.51,5.44,5.44,0,0,0,3.89,1.65l0,1.53v-1.53a5.58,5.58,0,0,0,0-11.16Z" transform="translate(0 -2.2)"/><path class="cls-6" d="M118.49,150.38h0a8.42,8.42,0,0,1-6-2.57,8.51,8.51,0,1,1,6.07,2.57Zm0-14.23a5.6,5.6,0,0,0-3.95,9.5,5.44,5.44,0,0,0,3.89,1.66l0,1.53v-1.53a5.58,5.58,0,0,0,0-11.16Z" transform="translate(0 -2.2)"/><path class="cls-12" d="M64.83,88.16a3.62,3.62,0,1,0-3.61,3.66A3.64,3.64,0,0,0,64.83,88.16Z" transform="translate(0 -2.2)"/><path class="cls-16" d="M61.62,88.16s9.56.72,9.56,12.17" transform="translate(0 -2.2)"/></g></g></g></svg>