<svg xmlns="http://www.w3.org/2000/svg" xmlns:xlink="http://www.w3.org/1999/xlink" viewBox="0 0 104.55 143.43"><defs><style>.cls-1{fill:none;}.cls-2{isolation:isolate;}.cls-3{mix-blend-mode:multiply;}.cls-4{opacity:0.39;}.cls-5{fill:#999;}.cls-6{fill:#74c7a5;}.cls-7{fill:#2b2e31;}.cls-8{fill:#333;}.cls-9{clip-path:url(#clip-path);}.cls-10{opacity:0.3;}.cls-11{clip-path:url(#clip-path-2);}.cls-12{fill:#6263ad;}.cls-13{fill:#a8a8a8;}</style><clipPath id="clip-path"><polygon class="cls-1" points="38.17 147.21 65.44 144.3 65.44 0 38.17 2.9 38.17 147.21"/></clipPath><clipPath id="clip-path-2"><path class="cls-1" d="M46.68,68.17H40.45V31.45h7.2ZM89.43,31.45h-7.2l1,36.72h6.22Zm-9.24-2.9H50v82.55H80.19Z"/></clipPath></defs><title>Asset 39</title><g class="cls-2"><g id="Layer_2" data-name="Layer 2"><g id="Layer_1-2" data-name="Layer 1"><g class="cls-3"><g class="cls-4"><polygon class="cls-5" points="22.1 108.9 0 108.78 53.79 143.24 76.34 143.36 22.1 108.9"/></g></g><rect class="cls-6" x="83.52" y="31.72" width="5.61" height="47.45"/><polygon class="cls-6" points="40.46 31.49 46.07 31.49 46.05 78.77 40.45 78.77 40.46 31.49"/><rect class="cls-6" x="53.76" y="78.77" width="6.94" height="64.63"/><rect class="cls-6" x="69.69" y="78.42" width="6.95" height="65.01"/><path class="cls-6" d="M77,11.62A11.56,11.56,0,1,0,65.44,23.26,11.59,11.59,0,0,0,77,11.62Z"/><polygon class="cls-7" points="46.68 67.2 40.45 67.2 40.45 31.45 47.65 31.45 46.68 67.2"/><polygon class="cls-7" points="89.43 67.2 83.21 67.2 82.24 31.45 89.43 31.45 89.43 67.2"/><polygon class="cls-8" points="60.71 139.18 53.76 139.18 53.76 79.59 64.59 79.59 60.71 139.18"/><rect class="cls-8" x="57.23" y="72.47" width="15.93" height="18.17"/><polygon class="cls-8" points="76.64 139.18 69.69 139.18 65.81 81.53 76.64 79.59 76.64 139.18"/><rect class="cls-7" x="49.98" y="28.54" width="30.21" height="82.55"/><g class="cls-3"><g class="cls-9"><g class="cls-10"><path class="cls-5" d="M54,11.62A11.56,11.56,0,1,1,65.59,23.26,11.59,11.59,0,0,1,54,11.62ZM40.6,67.2h0V78.77h5.6V67.2h.62l1-35.76H40.6Zm49-35.76h-7.2l1,35.76h.3v12h5.61v-12h.31Zm-32.67-2.9H50.12v82.55H53.9v32.32h6.94v-4.23l1.83-28.09h5.26l1.89,28.07v4.27h6.95V111.09h3.56V28.54H56.91Z"/></g></g></g><g class="cls-11"><line class="cls-12" x1="35.85" y1="29.51" x2="104.55" y2="29.51"/><rect class="cls-13" x="35.85" y="28.83" width="68.71" height="1.37"/><line class="cls-12" x1="35.85" y1="32.41" x2="104.55" y2="32.41"/><rect class="cls-13" x="35.85" y="31.73" width="68.71" height="1.37"/><line class="cls-12" x1="35.85" y1="35.32" x2="104.55" y2="35.32"/><rect class="cls-13" x="35.85" y="34.63" width="68.71" height="1.37"/><line class="cls-12" x1="35.85" y1="38.22" x2="104.55" y2="38.22"/><rect class="cls-13" x="35.85" y="37.53" width="68.71" height="1.37"/><line class="cls-12" x1="35.85" y1="41.12" x2="104.55" y2="41.12"/><rect class="cls-13" x="35.85" y="40.44" width="68.71" height="1.37"/><line class="cls-12" x1="35.85" y1="44.03" x2="104.55" y2="44.03"/><rect class="cls-13" x="35.85" y="43.34" width="68.71" height="1.37"/><line class="cls-12" x1="35.85" y1="46.93" x2="104.55" y2="46.93"/><rect class="cls-13" x="35.85" y="46.24" width="68.71" height="1.37"/><line class="cls-12" x1="35.85" y1="49.83" x2="104.55" y2="49.83"/><rect class="cls-13" x="35.85" y="49.15" width="68.71" height="1.37"/><line class="cls-12" x1="35.85" y1="52.74" x2="104.55" y2="52.74"/><rect class="cls-13" x="35.85" y="52.05" width="68.71" height="1.37"/><line class="cls-12" x1="35.85" y1="55.64" x2="104.55" y2="55.64"/><rect class="cls-13" x="35.85" y="54.95" width="68.71" height="1.37"/><line class="cls-12" x1="35.85" y1="58.54" x2="104.55" y2="58.54"/><rect class="cls-13" x="35.85" y="57.86" width="68.71" height="1.37"/><line class="cls-12" x1="35.85" y1="61.44" x2="104.55" y2="61.44"/><rect class="cls-13" x="35.85" y="60.76" width="68.71" height="1.37"/><line class="cls-12" x1="35.85" y1="64.35" x2="104.55" y2="64.35"/><rect class="cls-13" x="35.85" y="63.66" width="68.71" height="1.37"/><line class="cls-12" x1="35.85" y1="67.25" x2="104.55" y2="67.25"/><rect class="cls-13" x="35.85" y="66.56" width="68.71" height="1.37"/><line class="cls-12" x1="35.85" y1="70.15" x2="104.55" y2="70.15"/><rect class="cls-13" x="35.85" y="69.47" width="68.71" height="1.37"/><line class="cls-12" x1="35.85" y1="73.06" x2="104.55" y2="73.06"/><rect class="cls-13" x="35.85" y="72.37" width="68.71" height="1.37"/><line class="cls-12" x1="35.85" y1="75.96" x2="104.55" y2="75.96"/><rect class="cls-13" x="35.85" y="75.27" width="68.71" height="1.37"/><line class="cls-12" x1="35.85" y1="78.86" x2="104.55" y2="78.86"/><rect class="cls-13" x="35.85" y="78.18" width="68.71" height="1.37"/><line class="cls-12" x1="35.85" y1="81.77" x2="104.55" y2="81.77"/><rect class="cls-13" x="35.85" y="81.08" width="68.71" height="1.37"/><line class="cls-12" x1="35.85" y1="84.67" x2="104.55" y2="84.67"/><rect class="cls-13" x="35.85" y="83.98" width="68.71" height="1.37"/><line class="cls-12" x1="35.85" y1="87.57" x2="104.55" y2="87.57"/><rect class="cls-13" x="35.85" y="86.89" width="68.71" height="1.37"/><line class="cls-12" x1="35.85" y1="90.47" x2="104.55" y2="90.47"/><rect class="cls-13" x="35.85" y="89.79" width="68.71" height="1.37"/><line class="cls-12" x1="35.85" y1="93.38" x2="104.55" y2="93.38"/><rect class="cls-13" x="35.85" y="92.69" width="68.71" height="1.37"/><line class="cls-12" x1="35.85" y1="96.28" x2="104.55" y2="96.28"/><rect class="cls-13" x="35.85" y="95.6" width="68.71" height="1.37"/><line class="cls-12" x1="35.85" y1="99.18" x2="104.55" y2="99.18"/><rect class="cls-13" x="35.85" y="98.5" width="68.71" height="1.37"/><line class="cls-12" x1="35.85" y1="102.09" x2="104.55" y2="102.09"/><rect class="cls-13" x="35.85" y="101.4" width="68.71" height="1.37"/><line class="cls-12" x1="35.85" y1="104.99" x2="104.55" y2="104.99"/><rect class="cls-13" x="35.85" y="104.3" width="68.71" height="1.37"/><line class="cls-12" x1="35.85" y1="107.89" x2="104.55" y2="107.89"/><rect class="cls-13" x="35.85" y="107.21" width="68.71" height="1.37"/><line class="cls-12" x1="35.85" y1="110.8" x2="104.55" y2="110.8"/><rect class="cls-13" x="35.85" y="110.11" width="68.71" height="1.37"/><line class="cls-12" x1="35.85" y1="113.7" x2="104.55" y2="113.7"/><rect class="cls-13" x="35.85" y="113.01" width="68.71" height="1.37"/></g><path class="cls-6" d="M73.41,28.54a8.32,8.32,0,1,1-16.65,0Z"/></g></g></g></svg>