<svg xmlns="http://www.w3.org/2000/svg" xmlns:xlink="http://www.w3.org/1999/xlink" viewBox="0 0 87.9 145.11"><defs><style>.cls-1{fill:none;}.cls-2{isolation:isolate;}.cls-10,.cls-3{mix-blend-mode:multiply;}.cls-4{opacity:0.39;}.cls-5{fill:#9e9e9e;}.cls-6{fill:#73c8ef;}.cls-7{fill:#f16667;}.cls-8{fill:#fff;}.cls-9{clip-path:url(#clip-path);}.cls-10{opacity:0.3;}.cls-11{fill:#999;}</style><clipPath id="clip-path"><rect class="cls-1" x="20.83" y="0.12" width="40.03" height="145.52"/></clipPath></defs><title>Asset 28</title><g class="cls-2"><g id="Layer_2" data-name="Layer 2"><g id="Layer_1-2" data-name="Layer 1"><g class="cls-3"><g class="cls-4"><polygon class="cls-5" points="20.83 111.84 0 111.84 51.57 145.11 72.82 145.11 20.83 111.84"/></g></g><rect class="cls-6" x="81.64" y="31.05" width="5.53" height="53.59"/><rect class="cls-6" x="35.98" y="30.82" width="5.53" height="53.43"/><rect class="cls-6" x="50.61" y="80.68" width="6.85" height="64.19"/><rect class="cls-6" x="66.33" y="80.32" width="6.84" height="64.58"/><path class="cls-6" d="M72.36,11.67a11.41,11.41,0,1,0-22.81,0,11.41,11.41,0,1,0,22.81,0Z"/><polygon class="cls-7" points="77.1 70.11 46.02 70.11 45.92 28.26 76.99 28.26 77.1 70.11"/><polygon class="cls-7" points="74.67 72.88 48.44 72.88 48.35 32.28 74.58 32.28 74.67 72.88"/><rect class="cls-7" x="35.51" y="30.27" width="6.77" height="45.87"/><rect class="cls-7" x="81.12" y="30.77" width="6.77" height="45.88"/><polygon class="cls-7" points="49.14 76.15 74.19 76.15 73.44 138.44 64.26 138.44 62.78 86.7 59.55 86.7 58.31 138.77 48.4 138.94 49.14 76.15"/><path class="cls-6" d="M65.6,28.26a4.64,4.64,0,1,1-9.28,0Z"/><rect class="cls-8" x="19.22" y="106.98" width="62.79" height="1.09" transform="translate(-57.79 156.24) rotate(-88.99)"/><rect class="cls-8" x="71.53" y="76.14" width="1.09" height="62.3"/><rect class="cls-8" x="45.37" y="39.25" width="32.34" height="11.04"/><rect class="cls-8" x="50.68" y="4.81" width="21.68" height="1.86"/><g class="cls-9"><g class="cls-10"><path class="cls-11" d="M60.86,23.11a11.48,11.48,0,0,0,11.4-11.56,11.41,11.41,0,1,0-22.81,0A11.48,11.48,0,0,0,60.86,23.11Z"/><polygon class="cls-11" points="46.02 70.11 48.52 70.11 48.44 72.88 77 72.88 76.89 28.14 45.82 28.14 46.02 70.11"/><polygon class="cls-11" points="35.51 76.02 35.97 76.02 35.97 84.13 41.5 84.13 41.5 76.02 42.28 76.02 42.28 30.15 35.51 30.15 35.51 76.02"/><polygon class="cls-11" points="87.8 30.65 81.02 30.65 81.02 76.53 81.53 76.53 81.53 84.52 87.06 84.52 87.07 76.53 87.8 76.53 87.8 30.65"/><polygon class="cls-11" points="48.4 138.94 50.61 138.9 50.61 144.87 57.46 144.87 57.46 138.79 58.31 138.77 59.55 86.7 62.78 86.7 64.26 138.44 66.33 138.44 66.33 144.9 73.18 144.9 73.18 138.44 73.44 138.44 73.84 76.49 49.14 76.15 48.4 138.94"/></g></g><g class="cls-3"><g class="cls-4"><polygon class="cls-11" points="78.94 11.18 58.31 11.18 50.68 6.67 71.31 6.67 78.94 11.18"/></g></g></g></g></g></svg>