<svg xmlns="http://www.w3.org/2000/svg" xmlns:xlink="http://www.w3.org/1999/xlink" viewBox="0 0 98.02 150.38"><defs><style>.cls-1,.cls-12,.cls-13,.cls-14{fill:none;}.cls-2{isolation:isolate;}.cls-17,.cls-3{fill:#999;}.cls-3{fill-opacity:0.39;}.cls-16,.cls-3{mix-blend-mode:multiply;}.cls-4{fill:#5f3d2d;}.cls-5{fill:#73c8ef;}.cls-6{fill:#5590cc;}.cls-7{fill:#fff;}.cls-8,.cls-9{fill:#996632;}.cls-9{opacity:0.5;}.cls-10,.cls-11{fill:#2a439b;}.cls-11{opacity:0.4;}.cls-12,.cls-13,.cls-14{stroke:#ed1c24;stroke-miterlimit:10;opacity:0.8;}.cls-12{stroke-width:0.4px;}.cls-13{stroke-width:0.43px;}.cls-14{stroke-width:0.19px;}.cls-15{clip-path:url(#clip-path);}.cls-16{opacity:0.3;}</style><clipPath id="clip-path"><rect class="cls-1" x="37.61" width="26.52" height="150.35"/></clipPath></defs><title>Asset 12</title><g class="cls-2"><g id="Layer_2" data-name="Layer 2"><g id="Layer_1-2" data-name="Layer 1"><polygon class="cls-3" points="21.4 115.2 0 115.2 53.84 149.93 75.68 149.93 21.4 115.2"/><polygon class="cls-3" points="43.74 115.2 40.86 115.2 94.7 149.93 98.02 149.93 43.74 115.2"/><path class="cls-4" d="M97.43,150.16h-2V91c0-2.8-2.83-5.07-6.3-5.07v-2c4.37,0,8,2.91,8.25,6.58h0Z"/><rect class="cls-5" x="82.86" y="30.2" width="5.84" height="56.57"/><rect class="cls-5" x="38.89" y="31.43" width="5.84" height="54.92"/><rect class="cls-5" x="52.85" y="82.58" width="7.24" height="67.77"/><rect class="cls-5" x="69.44" y="82.21" width="7.23" height="68.17"/><polygon class="cls-6" points="51.3 77.8 77.38 78.16 76.95 143.56 69.13 144.81 65.69 88.94 62.3 88.94 60.99 143.91 52.38 144.28 51.3 77.8"/><ellipse class="cls-7" cx="63.83" cy="39.53" rx="0.76" ry="0.77"/><ellipse class="cls-7" cx="63.75" cy="46.52" rx="0.76" ry="0.77"/><ellipse class="cls-7" cx="63.91" cy="54.2" rx="0.76" ry="0.77"/><ellipse class="cls-7" cx="63.91" cy="63.08" rx="0.76" ry="0.77"/><rect class="cls-7" x="48.14" y="29.7" width="30.91" height="25.16"/><rect class="cls-8" x="72.98" y="36.04" width="6.22" height="6.3"/><rect class="cls-9" x="66.82" y="36.07" width="6.23" height="6.3"/><rect class="cls-8" x="48.28" y="35.96" width="6.22" height="6.3"/><rect class="cls-9" x="48.25" y="29.72" width="6.23" height="6.3"/><rect class="cls-8" x="60.63" y="35.87" width="6.22" height="6.3"/><rect class="cls-9" x="54.46" y="35.9" width="6.22" height="6.3"/><rect class="cls-9" x="60.63" y="29.58" width="6.22" height="6.31"/><rect class="cls-9" x="72.98" y="29.76" width="6.22" height="6.3"/><rect class="cls-10" x="72.98" y="48.49" width="6.22" height="6.31"/><rect class="cls-11" x="66.82" y="48.53" width="6.23" height="6.3"/><rect class="cls-9" x="72.98" y="42.21" width="6.22" height="6.38"/><rect class="cls-7" x="48.14" y="48.55" width="30.91" height="25.08"/><rect class="cls-8" x="72.98" y="48.47" width="6.22" height="6.46"/><rect class="cls-9" x="66.82" y="48.66" width="6.23" height="6.3"/><rect class="cls-8" x="48.28" y="48.55" width="6.22" height="6.31"/><rect class="cls-8" x="60.63" y="48.45" width="6.22" height="6.3"/><rect class="cls-9" x="54.46" y="48.48" width="6.22" height="6.31"/><rect class="cls-8" x="72.98" y="61.12" width="6.22" height="6.3"/><rect class="cls-9" x="66.82" y="61.15" width="6.23" height="6.31"/><rect class="cls-8" x="48.28" y="61.05" width="6.22" height="6.3"/><rect class="cls-9" x="48.25" y="54.8" width="6.23" height="6.3"/><rect class="cls-8" x="60.63" y="60.95" width="6.22" height="6.31"/><rect class="cls-9" x="54.46" y="60.98" width="6.22" height="6.3"/><rect class="cls-9" x="60.63" y="54.67" width="6.22" height="6.31"/><rect class="cls-9" x="48.25" y="42.34" width="6.23" height="6.3"/><rect class="cls-9" x="60.63" y="42.2" width="6.22" height="6.31"/><rect class="cls-9" x="72.98" y="54.84" width="6.22" height="6.31"/><rect class="cls-9" x="48.25" y="67.26" width="6.23" height="6.3"/><rect class="cls-9" x="60.63" y="67.12" width="6.22" height="6.31"/><rect class="cls-9" x="72.98" y="67.3" width="6.22" height="6.3"/><line class="cls-12" x1="50.87" y1="29.73" x2="50.87" y2="73.41"/><line class="cls-12" x1="63.64" y1="29.64" x2="63.64" y2="73.32"/><line class="cls-12" x1="76.2" y1="29.91" x2="76.2" y2="73.59"/><line class="cls-13" x1="79.32" y1="64.4" x2="48.33" y2="64.4"/><line class="cls-13" x1="79.22" y1="51.77" x2="48.23" y2="51.77"/><line class="cls-13" x1="79.53" y1="38.84" x2="48.54" y2="38.84"/><rect class="cls-7" x="82.92" y="29.95" width="6.14" height="25.16"/><rect class="cls-8" x="82.61" y="36.3" width="6.22" height="6.3"/><rect class="cls-9" x="82.61" y="30.02" width="6.23" height="6.3"/><rect class="cls-10" x="82.61" y="48.75" width="6.22" height="6.3"/><rect class="cls-9" x="82.61" y="42.47" width="6.23" height="6.39"/><rect class="cls-7" x="82.92" y="48.8" width="6.14" height="25.08"/><rect class="cls-8" x="82.61" y="48.72" width="6.22" height="6.46"/><rect class="cls-8" x="82.61" y="61.38" width="6.22" height="6.3"/><rect class="cls-9" x="82.61" y="55.1" width="6.23" height="6.3"/><rect class="cls-9" x="82.61" y="67.56" width="6.23" height="6.3"/><line class="cls-12" x1="85.84" y1="30.17" x2="85.84" y2="73.85"/><line class="cls-14" x1="89.12" y1="64.65" x2="82.97" y2="64.65"/><line class="cls-14" x1="89.1" y1="52.03" x2="82.95" y2="52.03"/><line class="cls-14" x1="89.16" y1="39.1" x2="83.01" y2="39.1"/><rect class="cls-7" x="38.99" y="30.29" width="6.13" height="25.16"/><rect class="cls-8" x="38.67" y="36.64" width="6.22" height="6.3"/><rect class="cls-9" x="38.67" y="30.36" width="6.23" height="6.3"/><rect class="cls-10" x="38.67" y="49.09" width="6.22" height="6.3"/><rect class="cls-9" x="38.67" y="42.81" width="6.23" height="6.38"/><rect class="cls-7" x="38.99" y="49.14" width="6.13" height="25.08"/><rect class="cls-8" x="38.67" y="49.07" width="6.22" height="6.46"/><rect class="cls-8" x="38.67" y="61.72" width="6.22" height="6.3"/><rect class="cls-9" x="38.67" y="55.44" width="6.23" height="6.31"/><rect class="cls-9" x="38.67" y="67.9" width="6.23" height="6.3"/><line class="cls-12" x1="41.9" y1="30.51" x2="41.9" y2="74.19"/><line class="cls-14" x1="45.18" y1="64.99" x2="39.03" y2="64.99"/><line class="cls-14" x1="45.16" y1="52.37" x2="39" y2="52.37"/><line class="cls-14" x1="45.22" y1="39.43" x2="39.07" y2="39.43"/><path class="cls-5" d="M75.37,11.81a11.66,11.66,0,1,0-23.32,0,11.66,11.66,0,1,0,23.32,0Z"/><g class="cls-15"><g class="cls-16"><polygon class="cls-17" points="52.81 144.28 53.27 144.26 53.27 150.34 60.51 150.34 60.51 143.95 61.41 143.91 62.72 88.94 66.12 88.94 69.56 144.81 69.86 144.76 69.86 150.38 77.1 150.38 77.1 143.6 77.37 143.55 77.8 78.16 51.72 77.8 52.81 144.28"/><polygon class="cls-17" points="79.63 61.15 79.63 61.15 79.63 54.84 79.63 54.84 79.63 54.8 79.63 48.6 79.63 48.6 79.63 42.22 79.63 42.22 79.63 36.06 79.63 36.06 79.63 29.76 79.47 29.76 79.47 29.7 67.27 29.7 67.27 29.58 61.05 29.58 61.05 29.7 48.56 29.7 48.56 48.55 48.56 54.86 48.56 73.62 79.47 73.62 79.47 73.6 79.63 73.6 79.63 67.3 79.63 67.3 79.63 61.15"/><polygon class="cls-17" points="92.24 55.12 92.24 48.8 92.24 29.95 86.1 29.95 86.1 30.02 85.78 30.02 85.78 36.3 85.78 36.32 85.78 42.47 85.78 42.59 85.78 48.72 85.78 48.75 85.78 48.85 85.78 55.05 85.78 55.1 85.78 55.19 85.78 61.38 85.78 61.4 85.78 67.56 85.78 67.68 85.78 73.86 86.03 73.86 86.03 86.77 91.86 86.77 91.87 73.88 92.24 73.88 92.24 55.12"/><polygon class="cls-17" points="45.01 55.45 45.01 49.14 45.01 30.29 38.88 30.29 38.88 30.36 38.56 30.36 38.56 36.64 38.56 36.66 38.56 42.81 38.56 42.94 38.56 49.06 38.56 49.09 38.56 49.19 38.56 55.39 38.56 55.44 38.56 55.53 38.56 61.72 38.56 61.74 38.56 67.89 38.56 68.02 38.56 74.2 38.77 74.2 38.77 86.35 44.6 86.35 44.6 74.22 45.01 74.22 45.01 55.45"/><path class="cls-17" d="M64.14,23.64A11.74,11.74,0,0,0,75.79,11.81a11.66,11.66,0,1,0-23.32,0A11.74,11.74,0,0,0,64.14,23.64Z"/></g></g></g></g></g></svg>