<svg xmlns="http://www.w3.org/2000/svg" xmlns:xlink="http://www.w3.org/1999/xlink" viewBox="0 0 92.68 155.32"><defs><style>.cls-1{fill:none;}.cls-2{isolation:isolate;}.cls-3{fill:#999;fill-opacity:0.39;}.cls-10,.cls-3{mix-blend-mode:multiply;}.cls-4{fill:#2c2f31;}.cls-5{fill:#75c5a4;}.cls-6{fill:#e5dfdc;}.cls-7{clip-path:url(#clip-path);}.cls-8{fill:#ee6667;}.cls-9{clip-path:url(#clip-path-2);}.cls-10{opacity:0.4;}.cls-11{fill:#969696;}</style><clipPath id="clip-path" transform="translate(0 -1.32)"><path class="cls-1" d="M79.86,110.68l-27.51.06L50.14,29.07,81.71,29Zm-32-78.89h-5l.87,42.13H47.9Zm41.38-.35h-4.8l.09,42.39h4.24Z"/></clipPath><clipPath id="clip-path-2" transform="translate(0 -1.32)"><polygon class="cls-1" points="42.19 146.4 66.45 146.34 66.33 0.63 42.06 0 42.19 146.4"/></clipPath></defs><title>Asset 22</title><g class="cls-2"><g id="Layer_2" data-name="Layer 2"><g id="Layer_1-2" data-name="Layer 1"><polygon class="cls-3" points="20.72 109.31 0 109.31 55.45 145.08 76.63 145.08 20.72 109.31"/><polygon class="cls-4" points="54.85 134.75 53.23 109.42 62.54 109.4 62.19 134.74 54.85 134.75"/><polygon class="cls-4" points="70.04 134.69 68.98 109.15 78.47 109.13 77.16 134.68 70.04 134.69"/><rect class="cls-5" x="55.49" y="136.06" width="6.17" height="10.33" transform="translate(-0.3 -1.19) rotate(-0.12)"/><rect class="cls-5" x="70.46" y="136.03" width="6.16" height="10.32" transform="translate(-0.3 -1.16) rotate(-0.12)"/><ellipse class="cls-5" cx="66.35" cy="13.07" rx="11.6" ry="11.75" transform="translate(-0.03 -1.18) rotate(-0.12)"/><polygon class="cls-5" points="47.92 79.01 43.68 79.02 43.72 30.48 47.82 30.47 47.92 79.01"/><polygon class="cls-5" points="88.64 78.67 84.5 78.68 84.4 30.13 89.1 30.12 88.64 78.67"/><polygon class="cls-6" points="79.86 109.37 52.35 109.42 50.14 27.76 81.72 27.69 79.86 109.37"/><polygon class="cls-6" points="47.91 72.6 43.67 72.61 42.8 30.48 47.82 30.47 47.91 72.6"/><polygon class="cls-6" points="88.72 72.51 84.49 72.52 84.39 30.13 89.19 30.12 88.72 72.51"/><g class="cls-7"><rect class="cls-8" x="40.72" y="26.29" width="51.8" height="20.27" transform="translate(-0.08 -1.18) rotate(-0.12)"/><rect class="cls-8" x="40.75" y="48.22" width="51.8" height="1.65" transform="matrix(1, 0, 0, 1, -0.1, -1.18)"/><rect class="cls-8" x="40.75" y="51.52" width="51.8" height="1.65" transform="matrix(1, 0, 0, 1, -0.11, -1.18)"/><rect class="cls-8" x="40.76" y="54.82" width="51.8" height="1.65" transform="translate(-0.12 -1.18) rotate(-0.12)"/><rect class="cls-8" x="40.77" y="58.12" width="51.8" height="1.65" transform="matrix(1, 0, 0, 1, -0.13, -1.18)"/><rect class="cls-8" x="40.77" y="61.42" width="51.8" height="1.65" transform="translate(-0.13 -1.18) rotate(-0.12)"/><rect class="cls-8" x="40.78" y="64.72" width="51.8" height="1.65" transform="matrix(1, 0, 0, 1, -0.14, -1.18)"/><rect class="cls-8" x="40.79" y="68.02" width="51.8" height="1.65" transform="translate(-0.15 -1.18) rotate(-0.12)"/><rect class="cls-8" x="40.8" y="71.32" width="51.8" height="1.65" transform="matrix(1, 0, 0, 1, -0.15, -1.18)"/><rect class="cls-8" x="40.8" y="74.62" width="51.8" height="1.65" transform="translate(-0.16 -1.18) rotate(-0.12)"/><rect class="cls-8" x="40.81" y="77.92" width="51.8" height="1.65" transform="matrix(1, 0, 0, 1, -0.17, -1.18)"/><rect class="cls-8" x="40.82" y="81.23" width="51.8" height="1.65" transform="translate(-0.17 -1.18) rotate(-0.12)"/><rect class="cls-8" x="40.82" y="84.53" width="51.8" height="1.65" transform="matrix(1, 0, 0, 1, -0.18, -1.18)"/><rect class="cls-8" x="40.83" y="87.83" width="51.8" height="1.65" transform="translate(-0.19 -1.18) rotate(-0.12)"/><rect class="cls-8" x="40.84" y="91.13" width="51.8" height="1.65" transform="translate(-0.2 -1.18) rotate(-0.12)"/><rect class="cls-8" x="40.84" y="94.43" width="51.8" height="1.65" transform="matrix(1, 0, 0, 1, -0.2, -1.18)"/><rect class="cls-8" x="40.85" y="97.73" width="51.8" height="1.65" transform="translate(-0.21 -1.18) rotate(-0.12)"/><rect class="cls-8" x="40.86" y="101.03" width="51.8" height="1.65" transform="translate(-0.22 -1.18) rotate(-0.12)"/><rect class="cls-8" x="40.87" y="104.33" width="51.8" height="1.65" transform="translate(-0.22 -1.18) rotate(-0.12)"/><rect class="cls-8" x="40.87" y="107.63" width="51.8" height="1.65" transform="translate(-0.23 -1.18) rotate(-0.12)"/><rect class="cls-8" x="40.88" y="110.93" width="51.8" height="1.65" transform="matrix(1, 0, 0, 1, -0.24, -1.18)"/></g><path class="cls-5" d="M72.51,29a6.58,6.58,0,1,1-13.16,0Z" transform="translate(0 -1.32)"/><g class="cls-9"><g class="cls-10"><rect class="cls-11" x="70.38" y="146.3" width="6.16" height="10.33" transform="translate(-0.32 -1.16) rotate(-0.12)"/><ellipse class="cls-11" cx="66.35" cy="13.02" rx="11.47" ry="11.62" transform="translate(-0.03 -1.18) rotate(-0.12)"/><polygon class="cls-11" points="88.55 30.12 84.31 30.13 84.31 30.13 84.36 54.66 84.4 72.52 84.4 72.52 84.41 78.68 88.65 78.67 88.64 72.51 88.64 72.51 88.64 72.51 88.55 30.12 88.55 30.12"/><polygon class="cls-11" points="50.87 54.74 50.87 54.74 52.35 109.42 53.23 109.42 54.85 134.75 55.48 134.75 55.5 145.08 61.67 145.06 61.65 134.74 62.19 134.74 62.54 109.4 68.99 109.39 70.46 144.89 76.63 144.88 78.45 109.37 79.86 109.37 81.72 27.69 50.14 27.76 50.87 54.74"/><polygon class="cls-11" points="47.82 30.47 42.8 30.48 43.67 72.61 43.68 79.02 47.92 79.01 47.91 72.6 47.87 54.74 47.87 54.74 47.82 30.47"/></g></g></g></g></g></svg>