<svg xmlns="http://www.w3.org/2000/svg" xmlns:xlink="http://www.w3.org/1999/xlink" viewBox="0 0 92.14 150.38"><defs><style>.cls-1{fill:none;}.cls-2{isolation:isolate;}.cls-3,.cls-5{fill:#999;}.cls-3{fill-opacity:0.39;}.cls-3,.cls-9{mix-blend-mode:multiply;}.cls-4{fill:#74c7a5;}.cls-6{fill:#5590cc;}.cls-7{fill:#fff;}.cls-8{clip-path:url(#clip-path);}.cls-9{opacity:0.4;}</style><clipPath id="clip-path"><rect class="cls-1" x="37.69" width="26.54" height="150.38"/></clipPath></defs><title>Asset 11</title><g class="cls-2"><g id="Layer_2" data-name="Layer 2"><g id="Layer_1-2" data-name="Layer 1"><polygon class="cls-3" points="22.99 116.16 0 116.16 53.16 150.38 76.6 150.38 22.99 116.16"/><rect class="cls-4" x="60.62" y="57.13" width="55.65" height="5.74" transform="translate(28.24 148.3) rotate(-89.86)"/><rect class="cls-4" x="13.28" y="56.7" width="55.49" height="5.75" transform="translate(-18.65 100.45) rotate(-89.86)"/><rect class="cls-4" x="23.45" y="113.42" width="66.67" height="7.11" transform="translate(-60.32 173.5) rotate(-89.87)"/><rect class="cls-4" x="39.58" y="113.29" width="67.06" height="7.12" transform="translate(-43.87 189.73) rotate(-89.89)"/><ellipse class="cls-4" cx="64.2" cy="12" rx="12" ry="11.84" transform="matrix(0, -1, 1, 0, 52.07, 76.18)"/><rect class="cls-5" x="41.08" y="36.63" width="47.1" height="32.27" transform="translate(11.73 117.29) rotate(-89.88)"/><rect class="cls-5" x="33.4" y="35.56" width="15.65" height="7.04" transform="translate(2.04 80.21) rotate(-89.85)"/><rect class="cls-5" x="80.77" y="35.84" width="15.65" height="7.04" transform="translate(49.07 127.88) rotate(-89.89)"/><polygon class="cls-6" points="51.78 78.93 77.44 79.33 76.88 143.67 69.19 144.89 65.92 89.91 62.58 89.91 61.17 143.99 52.71 144.34 51.78 78.93"/><polygon class="cls-7" points="54.19 53.51 64.79 39.3 73.46 52.27 54.19 53.51"/><g class="cls-8"><g class="cls-9"><ellipse class="cls-5" cx="64.2" cy="12" rx="12" ry="11.84" transform="translate(52.07 76.18) rotate(-89.88)"/><rect class="cls-5" x="41.08" y="36.63" width="47.1" height="32.27" transform="translate(11.73 117.29) rotate(-89.88)"/><polygon class="cls-5" points="37.69 46.9 38.18 46.9 38.09 87.31 43.83 87.32 43.93 46.91 44.73 46.92 44.76 31.26 37.72 31.25 37.69 46.9"/><polygon class="cls-5" points="92.14 31.54 85.1 31.53 85.06 47.18 85.61 47.18 85.51 87.82 91.25 87.83 91.35 47.19 92.11 47.19 92.14 31.54"/><polygon class="cls-5" points="52.71 144.34 53.18 144.32 53.16 150.31 60.28 150.32 60.29 144.03 61.17 143.99 62.58 89.91 65.92 89.91 69.19 144.9 69.5 144.85 69.49 150.37 76.6 150.38 76.61 143.72 76.88 143.67 77.44 79.33 51.78 78.93 52.71 144.34"/></g></g></g></g></g></svg>