<svg xmlns="http://www.w3.org/2000/svg" xmlns:xlink="http://www.w3.org/1999/xlink" viewBox="0 0 90.14 143.74"><defs><style>.cls-1{fill:none;}.cls-2{isolation:isolate;}.cls-3{fill:#f0efef;}.cls-16,.cls-4{mix-blend-mode:multiply;}.cls-5{opacity:0.39;}.cls-6{fill:#999;}.cls-7{fill:#73c8ef;}.cls-8{fill:#242058;}.cls-9{fill:#f9a052;}.cls-10{clip-path:url(#clip-path);}.cls-11{fill:#805126;}.cls-12{fill:#fdc490;}.cls-13{fill:#f5841f;}.cls-14{fill:#fff;}.cls-15{clip-path:url(#clip-path-2);}.cls-16{opacity:0.4;}</style><clipPath id="clip-path"><path class="cls-1" d="M74.38,11.48H51.45a11.47,11.47,0,1,1,22.94,0Z"/></clipPath><clipPath id="clip-path-2"><rect class="cls-1" x="37.38" width="25.85" height="143.73"/></clipPath></defs><title>Asset 37</title><g class="cls-2"><g id="Layer_2" data-name="Layer 2"><g id="Layer_1-2" data-name="Layer 1"><rect class="cls-3" x="48.2" y="27.84" width="30.93" height="42.75"/><g class="cls-4"><g class="cls-5"><polygon class="cls-6" points="21.64 109.69 0 109.57 52.67 143.55 74.75 143.67 21.64 109.69"/></g></g><rect class="cls-7" x="82.73" y="30.71" width="5.49" height="49.66"/><polygon class="cls-7" points="38.43 30.48 43.92 30.48 43.9 79.98 38.42 79.98 38.43 30.48"/><rect class="cls-7" x="52.64" y="79.98" width="6.8" height="63.74"/><rect class="cls-7" x="68.24" y="79.63" width="6.8" height="64.11"/><path class="cls-7" d="M74.23,11.47a11.32,11.32,0,1,0-22.64,0,11.32,11.32,0,1,0,22.64,0Z"/><polygon class="cls-8" points="50.24 133.24 48.2 73.24 79.13 73.24 77.09 133.24 67.42 133.24 65.38 88 62.67 88 60.63 133.78 50.24 133.24"/><rect class="cls-3" x="37.95" y="29.94" width="6.72" height="43.73"/><rect class="cls-3" x="82.22" y="30.44" width="6.72" height="43.71"/><polygon class="cls-7" points="66.52 27.93 63.52 32.37 60.47 27.84 66.52 27.93"/><rect class="cls-3" x="49.16" y="126.62" width="13.09" height="7.16"/><rect class="cls-3" x="66.41" y="126.62" width="12.13" height="7.16"/><path class="cls-9" d="M74.38,11.48H51.45a11.47,11.47,0,1,1,22.94,0Z"/><g class="cls-10"><path class="cls-11" d="M63.14,5.62a1.22,1.22,0,0,1-1.18-1,1.27,1.27,0,0,1,.2-.94,1.14,1.14,0,0,1,.75-.49l.19,0a1.22,1.22,0,0,1,1.18,1,1.21,1.21,0,0,1-.95,1.43Z"/><path class="cls-11" d="M72.41,10a1.39,1.39,0,0,1-1.29-1,1.35,1.35,0,0,1,.81-1.72,1.2,1.2,0,0,1,.36-.06,1.39,1.39,0,0,1,1.29,1,1.35,1.35,0,0,1-.81,1.72A1.2,1.2,0,0,1,72.41,10Z"/><path class="cls-11" d="M66.86,3.17a1.33,1.33,0,0,1-1-.43A1.48,1.48,0,0,1,66.07.66,1.62,1.62,0,0,1,67.15.24a1.33,1.33,0,0,1,1,.43,1.48,1.48,0,0,1-.21,2.08A1.62,1.62,0,0,1,66.86,3.17Z"/><path class="cls-11" d="M58.56,3.3a1.92,1.92,0,0,1-.86-.21,1.85,1.85,0,0,1-.92-1A1.46,1.46,0,0,1,56.84.91,1.54,1.54,0,0,1,58.24.11a1.9,1.9,0,0,1,.86.21,1.85,1.85,0,0,1,.92,1A1.46,1.46,0,0,1,60,2.49,1.54,1.54,0,0,1,58.56,3.3Z"/><path class="cls-11" d="M65.92,8.77A1.05,1.05,0,0,1,65,8.19a1.11,1.11,0,0,1,1-1.61,1.05,1.05,0,0,1,.94.58,1.11,1.11,0,0,1-1,1.61Z"/><path class="cls-11" d="M61.79,11a2.48,2.48,0,0,1-2-2.86,2.53,2.53,0,0,1,2.29-2.45h.18a2.48,2.48,0,0,1,2,2.86A2.53,2.53,0,0,1,62,11Z"/><path class="cls-11" d="M54.95,7.22a1.27,1.27,0,0,1-1.22-.8,1.22,1.22,0,0,1,0-1,1.41,1.41,0,0,1,.78-.72,1.45,1.45,0,0,1,.52-.1,1.27,1.27,0,0,1,1.22.8,1.22,1.22,0,0,1,0,1,1.41,1.41,0,0,1-.78.72A1.45,1.45,0,0,1,54.95,7.22Z"/><path class="cls-11" d="M52,10.23a1.27,1.27,0,0,1-1.18-.73,1.33,1.33,0,0,1,.73-1.73,1.46,1.46,0,0,1,.6-.13,1.27,1.27,0,0,1,1.18.73,1.33,1.33,0,0,1-.73,1.73A1.46,1.46,0,0,1,52,10.23Z"/></g><ellipse class="cls-12" cx="65.78" cy="11.48" rx="14.52" ry="1.53"/><path class="cls-13" d="M80.3,11.48c0,.84-6.5,1.53-14.52,1.53s-14.52-.68-14.52-1.53Z"/><polygon class="cls-14" points="74.6 27.95 66.52 31.57 66.56 27.25 74.6 24.1 74.6 27.95"/><polygon class="cls-14" points="52.53 27.95 60.62 31.57 60.57 27.25 52.53 24.1 52.53 27.95"/><rect class="cls-14" x="37.07" y="67.51" width="8.48" height="6.16"/><rect class="cls-14" x="81.34" y="67.51" width="8.48" height="6.16"/><circle class="cls-6" cx="63.23" cy="36.49" r="0.8"/><circle class="cls-6" cx="63.23" cy="40.89" r="0.8"/><circle class="cls-6" cx="63.23" cy="45.29" r="0.8"/><circle class="cls-6" cx="63.23" cy="49.69" r="0.8"/><circle class="cls-6" cx="63.23" cy="54.09" r="0.8"/><circle class="cls-6" cx="63.23" cy="58.49" r="0.8"/><circle class="cls-6" cx="63.23" cy="62.89" r="0.8"/><circle class="cls-6" cx="63.23" cy="67.29" r="0.8"/><g class="cls-15"><g class="cls-16"><polygon class="cls-6" points="48.52 73.23 50.33 126.6 49.47 126.6 49.47 133.77 52.96 133.77 52.96 143.7 59.76 143.7 59.76 133.77 62.56 133.77 62.56 126.6 61.27 126.6 62.99 87.98 65.7 87.98 67.44 126.6 66.72 126.6 66.72 133.77 68.56 133.77 68.56 143.73 75.36 143.73 75.36 133.77 78.85 133.77 78.85 126.6 77.63 126.6 79.45 73.23 48.52 73.23"/><polygon class="cls-6" points="44.98 29.92 38.26 29.92 38.26 67.5 37.38 67.5 37.38 73.65 38.26 73.65 38.73 73.65 38.73 79.96 44.22 79.96 44.22 73.65 44.98 73.65 45.86 73.65 45.86 67.5 44.98 67.5 44.98 29.92"/><path class="cls-6" d="M74.63,10.23a11.46,11.46,0,0,0-22.86,1c-.12.08-.2.16-.2.24s.13.22.35.33a11.3,11.3,0,0,0,22.55.92c3.71-.28,6.14-.73,6.14-1.25S78.25,10.51,74.63,10.23Z"/><polygon class="cls-6" points="74.92 24.09 66.88 27.23 66.87 27.82 60.9 27.82 60.89 27.23 52.85 24.09 52.85 27.82 48.52 27.82 48.52 70.57 79.45 70.57 79.45 27.82 74.92 27.82 74.92 24.09"/><polygon class="cls-6" points="90.14 67.5 89.26 67.5 89.26 30.43 82.54 30.43 82.54 67.5 81.66 67.5 81.66 73.65 82.54 73.65 82.54 74.13 83.04 74.13 83.04 80.36 88.54 80.36 88.54 74.13 89.26 74.13 89.26 73.65 90.14 73.65 90.14 67.5"/></g></g></g></g></g></svg>