<svg xmlns="http://www.w3.org/2000/svg" xmlns:xlink="http://www.w3.org/1999/xlink" viewBox="0 0 104.03 125.69"><defs><style>.cls-1{fill:none;}.cls-2{isolation:isolate;}.cls-3,.cls-4{fill:#999;}.cls-3{fill-opacity:0.39;}.cls-11,.cls-3{mix-blend-mode:multiply;}.cls-5{fill:#4d5d74;}.cls-6{fill:#73c8f0;}.cls-7{fill:#f2716c;}.cls-8{fill:#f69799;}.cls-9{fill:#454545;}.cls-10{clip-path:url(#clip-path);}.cls-11{opacity:0.3;}</style><clipPath id="clip-path"><rect class="cls-1" x="38.59" y="0.04" width="30.94" height="125.59"/></clipPath></defs><title>Asset 43</title><g class="cls-2"><g id="Layer_2" data-name="Layer 2"><g id="Layer_1-2" data-name="Layer 1"><polygon class="cls-3" points="64.32 102.41 12.9 102.69 0 102.41 39.22 125.59 104.03 125.59 64.32 102.41"/><rect class="cls-4" x="43.35" y="109.26" width="24.03" height="3.06"/><rect class="cls-4" x="71.26" y="109.25" width="26.16" height="3.07"/><path class="cls-4" d="M72.29,75h-24V38.66c0-5,1.8-5.2,3.74-5.2H72.29"/><path class="cls-4" d="M70.57,75H91.23V38.65c0-5-1.8-5.2-3.73-5.2H70.57"/><rect class="cls-4" x="43.35" y="73.57" width="54.06" height="9.69"/><rect class="cls-5" x="54.8" y="26.87" width="29.97" height="47.7"/><rect class="cls-6" x="56.59" y="62.72" width="6.2" height="51.41"/><rect class="cls-7" x="54.82" y="61.75" width="9.65" height="40.26"/><rect class="cls-8" x="54.06" y="97.91" width="11.36" height="3.97"/><rect class="cls-6" x="76.93" y="62.83" width="6.19" height="51.41"/><rect class="cls-7" x="75.21" y="61.87" width="9.65" height="40.26"/><rect class="cls-8" x="74.14" y="98.16" width="11.36" height="3.97"/><path class="cls-6" d="M76.07,26.87a6.59,6.59,0,0,1-13.17,0Z"/><rect class="cls-9" x="42.04" y="62.63" width="5.27" height="63.03"/><rect class="cls-9" x="38.48" y="67.21" width="1.83" height="53.85"/><rect class="cls-9" x="99.14" y="67.21" width="1.83" height="53.85"/><rect class="cls-9" x="92.16" y="62.63" width="5.27" height="63.03"/><circle class="cls-6" cx="69.42" cy="11.33" r="11.33"/><rect class="cls-6" x="47.3" y="29.5" width="3.99" height="45.07"/><rect class="cls-6" x="88.18" y="29.26" width="3.98" height="45.4"/><rect class="cls-5" x="87.08" y="29.26" width="6.62" height="7.24"/><rect class="cls-5" x="45.99" y="29.26" width="6.62" height="7.24"/><g class="cls-10"><g class="cls-11"><rect class="cls-4" x="38.59" y="67.25" width="1.83" height="53.85"/><rect class="cls-4" x="99.25" y="67.25" width="1.83" height="53.85"/><circle class="cls-4" cx="69.53" cy="11.36" r="11.33"/><path class="cls-4" d="M92.26,36.54h1.55V29.29H87.19v4.2H84.87V26.91h-30v6.59H52.71v-4.2H46.09v7.24h1.32V62.66H42.14v63h5.27V112.36h9.27v1.8h6.2v-1.8h4.61v-3.07H62.88V102h1.69v-.13h.95v-4h-.95V83.3H75.32V98.19H74.25v4H77v7.13H71.37v3.07H77v1.92h6.2v-1.92h9v13.33h5.27v-63H92.26ZM56.69,109.29H47.41v-26h7.52V97.94h-.76v4h.76V102h1.76Zm26.55,0v-7.13H85.6v-4H85V83.3h7.29v26Z"/></g></g></g></g></g></svg>